<?xml version="1.0" encoding="UTF-8"?>
<svg width="210px" height="97px" viewBox="0 0 210 97" version="1.1" xmlns="http://www.w3.org/2000/svg" xmlns:xlink="http://www.w3.org/1999/xlink">
    <!-- Generator: sketchtool 54.1 (76490) - https://sketchapp.com -->
    <title>2CB0F8C6-9A81-477C-AFBB-E38F3A9EF1AF</title>
    <desc>Created with sketchtool.</desc>
    <g id="UI-UX-Screens" stroke="none" stroke-width="1" fill="none" fill-rule="evenodd">
        <g id="Make-a-Payment-See-Online-Banking-and-Interac" transform="translate(-539.000000, -608.000000)">
            <g id="back-card-copy-13" transform="translate(540.000000, 609.000000)">
                <rect id="BG" stroke="#DEDEDE" fill="#FFFFFF" stroke-linecap="square" x="0" y="0" width="208" height="95" rx="6"></rect>
                <g id="bank-logo-image" transform="translate(36.000000, 12.000000)">
                    <rect id="Back-logo" fill-rule="nonzero" x="-26.5" y="0" width="188" height="77"></rect>
                    <g id="cucentralontario_logo" transform="translate(7.898936, 0.000000)" fill="#1C1B19">
                        <path d="M6.60637612,44.0005387 C5.99219509,44.3499505 5.01698621,44.5731858 4.40334727,44.5731858 C2.24856389,44.5731858 0.455350449,43.3124995 0.455350449,41.011666 C0.455350449,38.7631365 2.27946267,37.5035286 4.20765499,37.5035286 C5.06577376,37.5035286 5.92389252,37.7057345 6.74243917,37.9386757 C6.64486407,38.4239698 6.5868611,38.9098032 6.52940021,39.3940189 L6.24589034,39.3940189 C6.21661781,38.7717639 6.37273797,38.5506855 5.7970449,38.267058 C5.39752909,38.074558 4.92971071,37.9100972 4.22662793,37.9100972 C2.61826509,37.9100972 1.50699316,39.0435287 1.50699316,40.7997542 C1.50699316,42.7420092 2.77546941,44.078725 4.73401843,44.078725 C5.43493287,44.078725 6.12825814,43.8544112 6.71262455,43.4667151 L6.80098423,43.5621563 L6.60637612,44.0005387" id="Fill-1"></path>
                        <path d="M8.23533819,38.8105893 C8.23533819,38.0551482 8.24563779,37.9855893 7.30729063,37.9386776 L7.30729063,37.6475011 C7.85371116,37.677158 8.41910462,37.697109 8.99371352,37.697109 C9.56994866,37.697109 10.1348,37.677158 10.7012777,37.6475011 C12.0472719,37.5795599 12.6706683,38.3080403 12.6706683,39.1233344 C12.6706683,40.1807363 11.7144324,40.8116187 10.7695802,40.9954912 L12.9812824,43.8635793 C13.1379446,44.0485303 13.3428523,44.1067656 13.5374604,44.135344 L13.5374604,44.4270597 C13.3233373,44.3968636 13.0999988,44.3785303 12.8734077,44.3785303 C12.6511533,44.3785303 12.4354039,44.3968636 12.2126075,44.4270597 C12.0564873,44.2216185 11.9496968,44.0485303 11.8136338,43.8835303 L9.49297275,40.9156873 L9.53091862,40.7711775 C9.8339435,40.7905892 10.1348,40.7808834 10.4275253,40.7334324 C11.1110931,40.6142657 11.6970857,40.092305 11.6970857,39.3756873 C11.6970857,38.3274521 10.9159429,38.0174031 10.1938872,38.0174031 C9.85183227,38.0174031 9.48267316,38.064854 9.2192204,38.1425011 C9.16013326,38.3080403 9.16013326,38.5113246 9.16013326,38.8105893 L9.16013326,43.2645107 C9.16013326,44.0215695 9.14983367,44.0889715 10.0865546,44.135344 L10.0865546,44.4270597 C9.61927829,44.3968636 9.16013326,44.3785303 8.68309946,44.3785303 C8.20552358,44.3785303 7.7447523,44.3968636 7.30729063,44.4270597 L7.30729063,44.135344 C8.24563779,44.0889715 8.23533819,44.0215695 8.23533819,43.2645107 L8.23533819,38.8105893" id="Fill-2"></path>
                        <path d="M15.5767796,43.0989714 C15.5767796,43.4467656 15.585453,43.6813244 15.6239409,43.9320597 C15.9844267,43.9805891 16.4820597,43.9805891 16.9509622,43.9805891 C17.4778677,43.9805891 18.0134465,43.9606381 18.5202949,43.8161283 C18.5685404,43.6700009 18.61787,43.4963734 18.637385,43.3211283 L18.7252026,42.7883832 L19.0461163,42.7883832 C19.0081704,42.9905891 18.9496253,43.2645107 18.9496253,43.572942 L18.9496253,44.3785303 C18.5885975,44.4270597 17.9348444,44.4162754 17.3298788,44.4270597 C16.7541857,44.3968636 16.1714456,44.3785303 15.5767796,44.3785303 C14.9799453,44.3785303 14.4047943,44.3968636 13.8112125,44.4270597 L13.8112125,44.135344 C14.299088,44.1164715 14.6498162,43.9110303 14.6498162,43.2645107 L14.6498162,38.810589 C14.6498162,38.0551478 14.6590317,37.985589 13.7244791,37.9386772 L13.7244791,37.6475007 C14.3169768,37.6771576 14.9035115,37.6971086 15.507935,37.6971086 C16.1129006,37.6971086 16.7064824,37.6771576 17.292475,37.6475007 C17.9050298,37.658285 18.5782979,37.6475007 18.9100532,37.6971086 C18.8032627,38.0174027 18.7626064,38.3274517 18.7539331,38.6375007 C18.7539331,38.8413243 18.7252026,39.0047066 18.7252026,39.2096086 L18.4216357,39.2096086 C18.4118782,38.8316184 18.3538752,38.5609321 18.2855726,38.2578929 C17.8172122,38.1144615 17.3217475,38.0945105 16.8327879,38.0945105 C16.4050837,38.0945105 15.9470229,38.0945105 15.6239409,38.1425007 C15.585453,38.3851478 15.5767796,38.6083831 15.5767796,38.948089 L15.5767796,40.7620106 C17.7012062,40.7808832 17.8367272,40.8968145 17.848111,39.9461772 L18.1690246,39.9461772 L18.1690246,42.1871577 L17.848111,42.1871577 C17.848111,41.0920106 17.7787242,41.1486283 15.5767796,41.2273538 L15.5767796,43.0989714" id="Fill-3"></path>
                        <path d="M20.430598,38.9281368 C20.430598,38.0174015 20.3427804,37.9564701 19.5735634,37.9489211 L19.5735634,37.6474996 C20.1958757,37.6771564 20.8214405,37.6971074 21.4632677,37.6971074 C22.1061792,37.6971074 22.731744,37.6771564 23.3556825,37.6474996 C25.1700372,37.628627 26.6499261,38.7431858 26.6499261,40.6261269 C26.6499261,42.9630877 24.8464131,44.5818131 22.5078633,44.4270582 C22.079075,44.3968621 21.6497446,44.3785288 21.2090304,44.3785288 C20.7715687,44.3785288 20.3427804,44.3968621 19.91345,44.4270582 L19.91345,44.1353425 C20.2647203,44.0679406 20.430598,43.9719602 20.430598,43.554068 L20.430598,38.9281368 M21.3467197,43.1081369 C21.3467197,43.3896075 21.3467197,43.6813232 21.3862918,43.9320585 C21.6584179,43.9719605 21.9516853,43.9913723 22.3018715,44.0005389 C24.7884102,44.0679409 25.6280981,42.6913232 25.6280981,40.9156859 C25.6280981,38.8715192 24.3590798,38.0858819 22.6829564,38.0858819 C22.2530839,38.0858819 21.8248377,38.1230878 21.3862918,38.1424995 C21.3570193,38.3651956 21.3467197,38.6180878 21.3467197,38.9674996 L21.3467197,43.1081369" id="Fill-4"></path>
                        <path d="M28.8833133,43.2645107 C28.8833133,44.0215695 28.8740978,44.0889715 29.8091925,44.135344 L29.8091925,44.4270597 C29.3413741,44.3968636 28.8833133,44.3785303 28.4051953,44.3785303 C27.9265352,44.3785303 27.4695586,44.3968636 27.0304706,44.4270597 L27.0304706,44.135344 C27.9661074,44.0889715 27.9558078,44.0215695 27.9558078,43.2645107 L27.9558078,38.810589 C27.9558078,38.0551478 27.9661074,37.985589 27.0304706,37.9386772 L27.0304706,37.6475007 C27.4695586,37.6771576 27.9265352,37.6971086 28.4051953,37.6971086 C28.8833133,37.6971086 29.3413741,37.6771576 29.8091925,37.6475007 L29.8091925,37.9386772 C28.8740978,37.985589 28.8833133,38.0551478 28.8833133,38.810589 L28.8833133,43.2645107" id="Fill-5"></path>
                        <path d="M32.4805813,39.113089 C32.4708238,38.743187 32.4708238,38.4325988 32.4431775,38.1425007 L30.939979,38.1915694 C30.7356134,38.2018145 30.6196074,38.2298537 30.5984662,38.4822066 C30.5605203,38.7146086 30.4998069,38.9675008 30.4905915,39.2290204 L30.2011187,39.2290204 C30.2011187,39.0435302 30.2011187,38.8715204 30.1897349,38.6854909 C30.1788933,38.3457851 30.1713041,38.0055399 30.1409474,37.6475007 C31.0673687,37.6771576 31.9932479,37.6971086 32.9478576,37.6971086 C33.893794,37.6971086 34.8196732,37.6771576 35.7656095,37.6475007 C35.7385053,38.0055399 35.7282058,38.3457851 35.7173641,38.6854909 C35.7081486,38.8715204 35.7081486,39.0435302 35.7081486,39.2290204 L35.4148813,39.2290204 C35.4040396,38.9675008 35.3465787,38.7146086 35.3075487,38.4822066 C35.2891178,38.2298537 35.1714856,38.2018145 34.9660358,38.1915694 L33.4454906,38.1425007 C33.4167602,38.4325988 33.4167602,38.743187 33.4070027,39.113089 L33.4070027,43.2645107 C33.4070027,44.0215695 33.396161,44.0889715 34.333424,44.135344 L34.333424,44.4270597 C33.8650635,44.3968636 33.4070027,44.3785303 32.9278005,44.3785303 C32.4507667,44.3785303 31.9932479,44.3968636 31.55416,44.4270597 L31.55416,44.135344 C32.4903388,44.0889715 32.4805813,44.0215695 32.4805813,43.2645107 L32.4805813,39.113089" id="Fill-6"></path>
                        <path d="M40.1917243,42.1984812 C40.1342634,43.572942 40.9132379,43.9719616 42.1898453,43.9719616 C42.7861375,43.9719616 43.4962674,43.8161283 43.8486219,43.3022557 C44.1494784,42.865491 44.2378381,42.2739714 44.2378381,41.6835302 L44.2378381,38.5970596 C44.2378381,38.0351968 44.0622029,37.9489223 43.468079,37.9489223 L43.3114168,37.9386772 L43.3114168,37.6475007 C43.700633,37.6771576 44.0920175,37.6971086 44.4812337,37.6971086 C44.8726182,37.6971086 45.2612923,37.6771576 45.6412931,37.6475007 L45.6412931,37.9386772 L45.485173,37.9489223 C44.8726182,37.9489223 44.6855993,38.0351968 44.6855993,38.5970596 L44.6855993,42.1763734 C44.6855993,42.7101969 44.5506204,43.1270106 44.2573531,43.5939714 C44.0622029,43.9045597 43.5943845,44.2512754 43.2431142,44.3666675 C42.872871,44.4944617 42.3183192,44.5731871 41.9258505,44.5731871 C41.0390013,44.5731871 39.9770591,44.4373048 39.5092407,43.572942 C39.2663872,43.1361773 39.2663872,42.7883832 39.2663872,42.3025498 L39.2663872,38.810589 C39.2663872,38.0551478 39.2761447,37.985589 38.3399659,37.9386772 L38.3399659,37.6475007 C38.7790538,37.6771576 39.2365726,37.6971086 39.7146905,37.6971086 C40.1917243,37.6971086 40.6503272,37.6771576 41.1181456,37.6475007 L41.1181456,37.9386772 C40.1825089,37.985589 40.1917243,38.0551478 40.1917243,38.810589 L40.1917243,42.1984812" id="Fill-7"></path>
                        <path d="M52.1549731,43.4171087 L52.1549731,38.5970596 C52.1549731,38.0351968 51.9787959,37.9489223 51.3835878,37.9489223 L51.230178,37.9386772 L51.230178,37.6475007 C51.6166838,37.6771576 52.0075263,37.6971086 52.3978267,37.6971086 C52.7886692,37.6971086 53.1784275,37.6771576 53.5595124,37.6475007 L53.5595124,37.9386772 L53.4028502,37.9489223 C52.7886692,37.9489223 52.6021923,38.0351968 52.6021923,38.5970596 L52.6021923,44.2140695 L52.6330911,44.5731871 L51.8617057,44.4373048 L47.1531652,38.743187 L47.1531652,43.4748048 C47.1531652,44.0393636 47.3380158,44.1250989 47.9521968,44.1250989 L48.108317,44.135344 L48.108317,44.4270597 C47.7283162,44.3968636 47.3380158,44.3785303 46.9471733,44.3785303 C46.5590413,44.3785303 46.1687409,44.3968636 45.7784405,44.4270597 L45.7784405,44.135344 L45.9334765,44.1250989 C46.5303108,44.1250989 46.7048619,44.0393636 46.7048619,43.4748048 L46.7048619,38.5970596 C46.7048619,38.0351968 46.5487417,37.9489223 46.0023212,37.9386772 L45.8662581,37.9386772 L45.8662581,37.6475007 C46.1481417,37.6771576 46.4224362,37.6971086 46.7146194,37.6971086 C46.9975871,37.6971086 47.2697133,37.6771576 47.5532231,37.6475007 L52.1549731,43.4171087" id="Fill-8"></path>
                        <path d="M55.7815154,43.2645107 C55.7815154,44.0215695 55.7701317,44.0889715 56.7079367,44.135344 L56.7079367,44.4270597 C56.2390342,44.3968636 55.7815154,44.3785303 55.3044816,44.3785303 C54.8258216,44.3785303 54.3672186,44.3968636 53.9292149,44.4270597 L53.9292149,44.135344 C54.8648516,44.0889715 54.8550941,44.0215695 54.8550941,43.2645107 L54.8550941,38.810589 C54.8550941,38.0551478 54.8648516,37.985589 53.9292149,37.9386772 L53.9292149,37.6475007 C54.3672186,37.6771576 54.8258216,37.6971086 55.3044816,37.6971086 C55.7815154,37.6971086 56.2390342,37.6771576 56.7079367,37.6475007 L56.7079367,37.9386772 C55.7701317,37.985589 55.7815154,38.0551478 55.7815154,38.810589 L55.7815154,43.2645107" id="Fill-9"></path>
                        <path d="M64.1165933,40.8180896 C64.1165933,42.9026976 62.4784159,44.5731878 60.3426055,44.5731878 C58.3656257,44.5731878 56.8819421,43.213825 56.8819421,41.0030406 C56.8819421,39.0246582 58.2859393,37.4749522 60.5480553,37.5035306 C62.6329098,37.5035306 64.1165933,38.6671581 64.1165933,40.8180896 M63.0730819,41.1200503 C63.0730819,39.1988248 62.2057477,37.9192659 60.3930193,37.9192659 C58.6962968,37.9192659 57.9254536,39.0936777 57.9254536,40.6822071 C57.9254536,42.381815 58.7250273,44.1542169 60.6548458,44.1542169 C62.2821815,44.0485307 63.0730819,42.9026973 63.0730819,41.1200503" id="Fill-10"></path>
                        <path d="M70.5207711,43.4171087 L70.5207711,38.5970596 C70.5207711,38.0351968 70.3478463,37.9489223 69.7504699,37.9489223 L69.5954339,37.9386772 L69.5954339,37.6475007 C69.9857343,37.6771576 70.3754926,37.6971086 70.7641667,37.6971086 C71.1560933,37.6971086 71.5453095,37.6771576 71.9258524,37.6475007 L71.9258524,37.9386772 L71.7697322,37.9489223 C71.1560933,37.9489223 70.9685323,38.0351968 70.9685323,38.5970596 L70.9685323,44.2140695 L70.9983469,44.5731871 L70.2280458,44.4373048 L65.5200476,38.743187 L65.5200476,43.4748048 C65.5200476,44.0393636 65.7059824,44.1250989 66.3217896,44.1250989 L66.4762835,44.135344 L66.4762835,44.4270597 C66.0962828,44.3968636 65.7059824,44.3785303 65.3140558,44.3785303 C64.9259238,44.3785303 64.5367076,44.3968636 64.1469493,44.4270597 L64.1469493,44.135344 L64.3025273,44.1250989 C64.8961091,44.1250989 65.0728285,44.0393636 65.0728285,43.4748048 L65.0728285,38.5970596 C65.0728285,38.0351968 64.9150821,37.9489223 64.3708299,37.9386772 L64.2331406,37.9386772 L64.2331406,37.6475007 C64.5155663,37.6771576 64.7898607,37.6971086 65.0798756,37.6971086 C65.3633854,37.6971086 65.6360536,37.6771576 65.9206476,37.6475007 L70.5207711,43.4171087" id="Fill-11"></path>
                        <path d="M80.748268,44.0005387 C80.1335449,44.3499505 79.1594203,44.5731858 78.5457813,44.5731858 C76.3904559,44.5731858 74.5967005,43.3124995 74.5967005,41.011666 C74.5967005,38.7631365 76.4208126,37.5035286 78.3506311,37.5035286 C79.2060395,37.5035286 80.0663265,37.7057345 80.8848732,37.9386757 C80.7878401,38.4239698 80.728753,38.9098032 80.6702079,39.3940189 L80.3877823,39.3940189 C80.3579677,38.7717639 80.5146299,38.5506855 79.9383947,38.267058 C79.5399631,38.074558 79.0710606,37.9100972 78.369062,37.9100972 C76.7601571,37.9100972 75.6505115,39.0435287 75.6505115,40.7997542 C75.6505115,42.7420092 76.9157352,44.078725 78.8759104,44.078725 C79.5762827,44.078725 80.2706922,43.8544112 80.8545165,43.4667151 L80.9445024,43.5621563 L80.748268,44.0005387" id="Fill-12"></path>
                        <path d="M83.3020269,43.0989714 C83.3020269,43.4467656 83.3123265,43.6813244 83.3513565,43.9320597 C83.7140106,43.9805891 84.208391,43.9805891 84.6767515,43.9805891 C85.2047411,43.9805891 85.7392358,43.9606381 86.2471684,43.8161283 C86.2948718,43.6700009 86.3442014,43.4963734 86.3642585,43.3211283 L86.451534,42.7883832 L86.7729897,42.7883832 C86.7350438,42.9905891 86.677583,43.2645107 86.677583,43.572942 L86.677583,44.3785303 C86.3154709,44.4270597 85.6633441,44.4162754 85.0567523,44.4270597 C84.4843117,44.3968636 83.8983191,44.3785303 83.3020269,44.3785303 C82.7073609,44.3785303 82.1332941,44.3968636 81.538086,44.4270597 L81.538086,44.135344 C82.0254194,44.1164715 82.3766897,43.9110303 82.3766897,43.2645107 L82.3766897,38.810589 C82.3766897,38.0551478 82.3859052,37.985589 81.4508105,37.9386772 L81.4508105,37.6475007 C82.0454765,37.6771576 82.6320112,37.6971086 83.2353505,37.6971086 C83.8381478,37.6971086 84.4328138,37.6771576 85.0198906,37.6475007 C85.6329874,37.658285 86.3046293,37.6475007 86.6369267,37.6971086 C86.5301361,38.0174027 86.4911061,38.3274517 86.4808065,38.6375007 C86.4808065,38.8413243 86.451534,39.0047066 86.451534,39.2096086 L86.1490512,39.2096086 C86.1392937,38.8316184 86.0812907,38.5609321 86.0113619,38.2578929 C85.5457119,38.1144615 85.048621,38.0945105 84.5596614,38.0945105 C84.1319572,38.0945105 83.6738964,38.0945105 83.3513565,38.1425007 C83.3123265,38.3851478 83.3020269,38.6083831 83.3020269,38.948089 L83.3020269,40.7620106 C85.4286218,40.7808832 85.5630586,40.8968145 85.5739002,39.9461772 L85.8964401,39.9461772 L85.8964401,42.1871577 L85.5739002,42.1871577 C85.5739002,41.0920106 85.5055977,41.1486283 83.3020269,41.2273538 L83.3020269,43.0989714" id="Fill-13"></path>
                        <path d="M93.5403628,43.4171087 L93.5403628,38.5970596 C93.5403628,38.0351968 93.3636434,37.9489223 92.7684353,37.9489223 L92.6139414,37.9386772 L92.6139414,37.6475007 C93.0026156,37.6771576 93.3923739,37.6971086 93.7837584,37.6971086 C94.1724325,37.6971086 94.563275,37.6771576 94.944902,37.6475007 L94.944902,37.9386772 L94.7871556,37.9489223 C94.1724325,37.9489223 93.988124,38.0351968 93.988124,38.5970596 L93.988124,44.2140695 L94.0168545,44.5731871 L93.2470954,44.4373048 L88.5374707,38.743187 L88.5374707,43.4748048 C88.5374707,44.0393636 88.7223213,44.1250989 89.3370445,44.1250989 L89.4942488,44.135344 L89.4942488,44.4270597 C89.1137059,44.3968636 88.7223213,44.3785303 88.3347314,44.3785303 C87.9449731,44.3785303 87.5530464,44.3968636 87.1627461,44.4270597 L87.1627461,44.135344 L87.3188662,44.1250989 C87.9140743,44.1250989 88.0891674,44.0393636 88.0891674,43.4748048 L88.0891674,38.5970596 C88.0891674,38.0351968 87.9335893,37.9489223 87.3871688,37.9386772 L87.2500216,37.9386772 L87.2500216,37.6475007 C87.5340735,37.6771576 87.8072838,37.6971086 88.1000091,37.6971086 C88.3818927,37.6971086 88.6545609,37.6771576 88.9369866,37.6475007 L93.5403628,43.4171087" id="Fill-14"></path>
                        <path d="M97.5745483,39.113089 C97.5647908,38.743187 97.5647908,38.4325988 97.5344341,38.1425007 L96.0350302,38.1915694 C95.8295804,38.2018145 95.7130324,38.2298537 95.6935174,38.4822066 C95.6550294,38.7146086 95.5954002,38.9675008 95.5856427,39.2290204 L95.2934595,39.2290204 C95.2934595,39.0435302 95.2934595,38.8715204 95.283702,38.6854909 C95.2744865,38.3457851 95.2636449,38.0055399 95.2354565,37.6475007 C96.1618778,37.6771576 97.0882991,37.6971086 98.0423667,37.6971086 C98.9904714,37.6971086 99.9152664,37.6771576 100.861203,37.6475007 C100.83193,38.0055399 100.821631,38.3457851 100.811873,38.6854909 C100.801031,38.8715204 100.801031,39.0435302 100.801031,39.2290204 L100.510474,39.2290204 C100.500717,38.9675008 100.442172,38.7146086 100.4026,38.4822066 C100.382001,38.2298537 100.266537,38.2018145 100.062713,38.1915694 L98.5405418,38.1425007 C98.5118113,38.4325988 98.5118113,38.743187 98.5015117,39.113089 L98.5015117,43.2645107 C98.5015117,44.0215695 98.4922963,44.0889715 99.4284751,44.135344 L99.4284751,44.4270597 C98.9590305,44.3968636 98.5015117,44.3785303 98.02502,44.3785303 C97.5458179,44.3785303 97.0882991,44.3968636 96.648127,44.4270597 L96.648127,44.135344 C97.5864742,44.0889715 97.5745483,44.0215695 97.5745483,43.2645107 L97.5745483,39.113089" id="Fill-15"></path>
                        <path d="M113.796948,43.9719603 C113.554095,43.7384799 113.427247,43.4171073 113.300941,43.1081367 L110.949924,37.5892639 L110.638226,37.5892639 C110.385072,38.2891659 110.061991,38.9966169 109.752461,39.6846562 L108.436823,42.6142151 L107.958163,43.6139211 C107.751629,44.0614701 107.57491,44.0808819 107.274595,44.1078427 C107.126064,44.0857348 106.983496,44.0032348 106.866948,43.8635779 L104.654162,40.9954896 C105.60064,40.811617 106.55525,40.1807346 106.55525,39.1233326 C106.55525,38.3080385 105.929685,37.579558 104.585317,37.6474992 C104.01884,37.6771561 103.454531,37.6971071 102.87938,37.6971071 C102.303687,37.6971071 101.738293,37.6771561 101.191873,37.6474992 L101.191873,37.9386757 C102.128051,37.9855875 102.117752,38.0551463 102.117752,38.8105875 L102.117752,43.2645093 C102.117752,44.0215681 102.128051,44.0889701 101.191873,44.1353427 L101.191873,44.4270584 C101.632045,44.3968623 102.087395,44.3785289 102.567681,44.3785289 C103.044715,44.3785289 103.502776,44.3968623 103.971136,44.4270584 L103.971136,44.1353427 C103.034416,44.0889701 103.044715,44.0215681 103.044715,43.2645093 L103.044715,38.8105875 C103.044715,38.5113228 103.044715,38.3080385 103.102718,38.1424992 C103.365629,38.0648522 103.736414,38.0174012 104.077927,38.0174012 C104.798898,38.0174012 105.579499,38.3274502 105.579499,39.3756856 C105.579499,40.0923032 104.995675,40.6142641 104.311565,40.7334307 C104.019924,40.7808817 103.716899,40.7905876 103.414416,40.7711758 L103.375928,40.9156856 L105.695505,43.8835289 C105.831568,44.0485289 105.941611,44.2216172 106.096105,44.4270584 C106.32107,44.3968623 106.533025,44.3785289 106.758532,44.3785289 C106.877248,44.3785289 107.958163,44.3785289 108.231915,44.3785289 C108.611374,44.3785289 108.981075,44.3968623 109.353487,44.4270584 L109.353487,44.1353427 C109.002217,44.0889701 108.524099,44.1353427 108.524099,43.816127 C108.524099,43.6015191 109.061304,42.4502936 109.175683,42.1871563 L111.945732,42.1871563 L112.539856,43.6015191 C112.617916,43.7789211 112.608158,43.9320583 112.472637,44.0005387 C112.256888,44.1164701 111.995061,44.1250976 111.741366,44.1353427 L111.741366,44.4270584 C112.168528,44.3968623 112.598943,44.3785289 113.036947,44.3785289 C113.475492,44.3785289 113.905365,44.3968623 114.333069,44.4270584 L114.333069,44.1353427 C114.109731,44.1250976 113.905365,44.0679407 113.796948,43.9719603 M109.332888,41.7676462 L110.552034,38.8790678 L111.770639,41.7676462 L109.332888,41.7676462" id="Fill-16"></path>
                        <path d="M115.973425,43.572942 L116.001613,43.9320597 C116.410344,43.9805891 116.907977,43.9805891 117.376338,43.9805891 C117.901075,43.9805891 118.43828,43.9606381 118.945128,43.8161283 C118.983616,43.7298538 119.013431,43.6230891 119.043245,43.5055401 L119.267126,42.6913244 L119.57774,42.7101969 C119.549552,42.8460793 119.520279,43.0989714 119.481249,43.3604911 L119.375543,44.3785303 C119.061676,44.4270597 118.43828,44.4162754 117.862587,44.4270597 C117.316166,44.3968636 116.762699,44.3785303 116.197847,44.3785303 C115.630286,44.3785303 115.085491,44.3968636 114.519014,44.4270597 L114.519014,44.135344 C114.978159,44.0593146 115.047003,43.7789224 115.047003,43.000295 L115.047003,38.810589 C115.047003,38.0551478 115.05405,37.985589 114.120582,37.9386772 L114.120582,37.6475007 C114.558586,37.6771576 115.017731,37.6971086 115.495849,37.6971086 C115.973425,37.6971086 116.429317,37.6771576 116.899846,37.6475007 L116.899846,37.9386772 C115.962041,37.985589 115.973425,38.0551478 115.973425,38.810589 L115.973425,43.572942" id="Fill-17"></path>
                        <path d="M37.989235,50.7418142 C37.989235,52.8269613 36.3510577,54.4931378 34.2163315,54.4931378 C32.2371834,54.4931378 30.7551262,53.1370103 30.7551262,50.9240691 C30.7551262,48.9467651 32.1585813,47.3938239 34.420155,47.4234808 C36.5060936,47.4234808 37.989235,48.5887259 37.989235,50.7418142 M36.9451816,51.0394611 C36.9451816,49.1198533 36.0778475,47.8402945 34.264035,47.8402945 C32.5673126,47.8402945 31.7953852,49.0125494 31.7953852,50.6059317 C31.7953852,52.3028435 32.596043,54.0763238 34.5285719,54.0763238 C36.1564496,53.9679415 36.9451816,52.8269611 36.9451816,51.0394611" id="Fill-18"></path>
                        <path d="M39.0902078,48.7343138 C39.0902078,47.9783334 39.1005074,47.909853 38.1637865,47.8602452 L38.1637865,47.5706863 C38.7584525,47.599804 39.3439031,47.6170589 39.9477845,47.6170589 C40.5532921,47.6170589 41.1468739,47.599804 41.7328665,47.5706863 C42.3459634,47.5787746 43.0192315,47.5706863 43.3509868,47.6170589 C43.2431121,47.9378922 43.2051662,48.2479412 43.1943246,48.5596079 C43.1943246,48.7628922 43.1655941,48.927353 43.1655941,49.1311765 L42.8631113,49.1311765 C42.8538959,48.7504903 42.7958929,48.4814216 42.7270483,48.1816177 C42.259772,48.0354903 41.7626812,48.0160785 41.2742636,48.0160785 C40.8449332,48.0160785 40.3868724,48.0160785 40.0659587,48.0635295 C40.0366862,48.2285295 40.0150029,48.4134805 40.0150029,48.6944118 L40.0150029,50.6814216 C42.1410557,50.7013726 42.2792871,50.8183824 42.2895866,49.8672059 L42.6105003,49.8672059 L42.6105003,52.1076471 L42.2895866,52.1076471 C42.2895866,51.0114216 42.2196578,51.0696569 40.0150029,51.1483824 L40.0150029,53.1850001 C40.0150029,53.9425981 40.0068716,54.0089216 40.9419662,54.0569118 L40.9419662,54.3486275 C40.4746899,54.3195099 40.0150029,54.2995589 39.5385112,54.2995589 C39.0603932,54.2995589 38.6023324,54.3195099 38.1637865,54.3486275 L38.1637865,54.0569118 C39.1005074,54.0089216 39.0902078,53.9425981 39.0902078,53.1850001 L39.0902078,48.7343138" id="Fill-19"></path>
                        <path d="M53.0228469,50.7418142 C53.0228469,52.8269613 51.3835853,54.4931378 49.2494011,54.4931378 C47.2697109,54.4931378 45.7892798,53.1370103 45.7892798,50.9240691 C45.7892798,48.9467651 47.1921929,47.3938239 49.4548509,47.4234808 C51.5407896,47.4234808 53.0228469,48.5887259 53.0228469,50.7418142 M51.9787933,51.0394611 C51.9787933,49.1198533 51.110917,47.8402945 49.2981886,47.8402945 C47.6009241,47.8402945 46.831165,49.0125494 46.831165,50.6059317 C46.831165,52.3028435 47.6312808,54.0763238 49.5616414,54.0763238 C51.1878929,53.9679415 51.9787933,52.8269611 51.9787933,51.0394611" id="Fill-20"></path>
                        <path d="M59.4281093,53.3365195 L59.4281093,48.5180883 C59.4281093,47.9583824 59.2524741,47.8694118 58.656724,47.8694118 L58.5006038,47.8602452 L58.5006038,47.5706863 C58.8914463,47.5981863 59.2801204,47.6170589 59.6704208,47.6170589 C60.0607212,47.6170589 60.4521057,47.5981863 60.8304802,47.5706863 L60.8304802,47.8602452 L60.6743601,47.8694118 C60.0607212,47.8694118 59.8753285,47.9583824 59.8753285,48.5180883 L59.8753285,54.1340195 L59.9051431,54.4931371 L59.1342999,54.3610292 L54.4257595,48.6647549 L54.4257595,53.3974508 C54.4257595,53.9587744 54.6095259,54.0466665 55.2253332,54.0466665 L55.3809113,54.0569116 L55.3809113,54.3486273 C54.9998263,54.3195096 54.6095259,54.2995587 54.2213939,54.2995587 C53.8316356,54.2995587 53.4418773,54.3195096 53.0499507,54.3486273 L53.0499507,54.0569116 L53.2076971,54.0466665 C53.8023631,54.0466665 53.9785403,53.9587744 53.9785403,53.3974508 L53.9785403,48.5180883 C53.9785403,47.9583824 53.8207939,47.8694118 53.2743734,47.8602452 L53.1399366,47.8602452 L53.1399366,47.5706863 C53.4229044,47.599804 53.6961147,47.6170589 53.9872137,47.6170589 C54.2690973,47.6170589 54.5439338,47.599804 54.8258174,47.5706863 L59.4281093,53.3365195" id="Fill-21"></path>
                        <path d="M63.4623011,49.0335785 C63.4536278,48.664755 63.4536278,48.3552452 63.4248974,48.0635295 L61.922783,48.1120589 C61.7184174,48.1228432 61.6029535,48.1530393 61.5823543,48.404853 C61.5433243,48.6367157 61.4836951,48.8863726 61.4739375,49.1505883 L61.1817543,49.1505883 C61.1817543,48.9667157 61.1817543,48.7909314 61.1719968,48.6070589 C61.1622393,48.2689707 61.1546502,47.9276471 61.1237514,47.5706863 C62.0507148,47.599804 62.9782203,47.6170589 63.9322878,47.6170589 C64.8776821,47.6170589 65.8041034,47.599804 66.7489556,47.5706863 C66.7202251,47.9276471 66.7110097,48.2689707 66.7007101,48.6070589 C66.6914947,48.7909314 66.6914947,48.9667157 66.6914947,49.1505883 L66.3976852,49.1505883 C66.3879277,48.8863726 66.3299247,48.6367157 66.2898105,48.404853 C66.2719218,48.1530393 66.1542896,48.1228432 65.9493819,48.1120589 L64.4288367,48.0635295 C64.399022,48.3552452 64.399022,48.664755 64.3887225,49.0335785 L64.3887225,53.1850001 C64.3887225,53.9425981 64.3800491,54.0089216 65.3140596,54.0569118 L65.3140596,54.3486275 C64.8478675,54.3195099 64.3887225,54.2995589 63.9116887,54.2995589 C63.4351969,54.2995589 62.9782203,54.3195099 62.5364219,54.3486275 L62.5364219,54.0569118 C63.4731428,54.0089216 63.4623011,53.9425981 63.4623011,53.1850001 L63.4623011,49.0335785" id="Fill-22"></path>
                        <path d="M78.3506308,53.7856877 L76.1378445,50.9154425 C77.0826967,50.7310308 78.0373064,50.1001484 78.0373064,49.0427464 C78.0373064,48.2285307 77.414452,47.504364 76.0695419,47.5706876 C75.5036064,47.5998052 74.9365867,47.6170601 74.363062,47.6170601 C73.7873689,47.6170601 73.2214333,47.5998052 72.6766391,47.5706876 L72.6766391,47.8602464 C73.6117337,47.9098542 73.6030604,47.9783346 73.6030604,48.734315 L73.6030604,53.1850014 C73.6030604,53.9021583 73.6101075,53.9992171 72.81216,54.0488249 C72.6202623,54.0321092 72.4478797,53.9760308 72.3551833,53.891374 C72.1107035,53.658972 71.9833138,53.336521 71.8570083,53.0302465 L69.5076168,47.5124523 L69.1959186,47.5124523 C68.9433075,48.2091189 68.6207676,48.9176484 68.3074431,49.606766 L66.9912635,52.534168 L66.5153139,53.5327955 C66.2822178,54.0391191 66.2133732,53.9506877 65.6674947,54.0569132 L65.6674947,54.3486289 C66.0371959,54.3195112 66.4085234,54.2995602 66.7879821,54.2995602 C67.1696091,54.2995602 67.537142,54.3195112 67.9095536,54.3486289 L67.9095536,54.0569132 C67.5571991,54.008923 67.0807073,54.0569132 67.0807073,53.7382367 C67.0807073,53.5230896 67.6173704,52.3707857 67.7328342,52.1076484 L70.5023407,52.1076484 L71.0964646,53.5230896 C71.1761509,53.6983347 71.1658513,53.8536289 71.028162,53.92157 C70.814581,54.0391191 70.5511282,54.0466681 70.297433,54.0569132 L70.297433,54.3486289 C70.7251371,54.3195112 71.1560938,54.2995602 71.5940976,54.2995602 C71.9600042,54.2995602 73.6496796,54.2995602 74.0502796,54.2995602 C74.5283975,54.2995602 74.9859163,54.3195112 75.4542768,54.3486289 L75.4542768,54.0569132 C74.5197242,54.008923 74.5283975,53.9425994 74.5283975,53.1850014 L74.5283975,48.734315 C74.5283975,48.4334327 74.5283975,48.2285307 74.5874847,48.0635307 C74.8493112,47.9848052 75.2217228,47.9378934 75.5626935,47.9378934 C76.2825809,47.9378934 77.0626396,48.2479425 77.0626396,49.296717 C77.0626396,50.0122562 76.477189,50.5385308 75.7947054,50.6533837 C75.5036064,50.7013739 75.2011236,50.7110798 74.899725,50.6911288 L74.8606949,50.8394131 L77.1802718,53.8061779 C77.3168769,53.9679426 77.4242095,54.1437269 77.5787034,54.3486289 C77.8031261,54.3195112 78.0188755,54.2995602 78.2432982,54.2995602 C78.4660947,54.2995602 78.6899753,54.3195112 78.9057247,54.3486289 L78.9057247,54.0569132 C78.7094904,54.0304916 78.5051247,53.9679426 78.3506308,53.7856877 M67.8884122,51.691374 L69.1081009,48.801717 L70.3277895,51.691374 L67.8884122,51.691374" id="Fill-23"></path>
                        <path d="M80.9434212,53.1850001 C80.9434212,53.9425981 80.9325796,54.0089216 81.8698426,54.0569118 L81.8698426,54.3486275 C81.4020242,54.3195099 80.9434212,54.2995589 80.4658454,54.2995589 C79.9871853,54.2995589 79.5280403,54.3195099 79.0916628,54.3486275 L79.0916628,54.0569118 C80.0245891,54.0089216 80.017542,53.9425981 80.017542,53.1850001 L80.017542,48.7343138 C80.017542,47.9783334 80.0245891,47.909853 79.0916628,47.8602452 L79.0916628,47.5706863 C79.5280403,47.599804 79.9871853,47.6170589 80.4658454,47.6170589 C80.9434212,47.6170589 81.4020242,47.599804 81.8698426,47.5706863 L81.8698426,47.8602452 C80.9325796,47.909853 80.9434212,47.9783334 80.9434212,48.7343138 L80.9434212,53.1850001" id="Fill-24"></path>
                        <path d="M89.2779578,50.7418142 C89.2779578,52.8269613 87.6397803,54.4931378 85.505054,54.4931378 C83.5280742,54.4931378 82.0454748,53.1370103 82.0454748,50.9240691 C82.0454748,48.9467651 83.4483878,47.3938239 85.7099617,47.4234808 C87.7959005,47.4234808 89.2779578,48.5887259 89.2779578,50.7418142 M88.2371564,51.0394611 C88.2371564,49.1198533 87.367654,47.8402945 85.5532993,47.8402945 C83.8582032,47.8402945 83.087902,49.0125494 83.087902,50.6059317 C83.087902,52.3028435 83.8874757,54.0763238 85.8194625,54.0763238 C87.4462561,53.9679415 88.2371564,52.8269611 88.2371564,51.0394611" id="Fill-25"></path>
                        <path d="M72.0727578,29.2524519 C72.0727578,28.3519617 72.798066,27.6175499 73.6941306,27.6175499 C74.5847744,27.6175499 75.306288,28.3519617 75.306288,29.2524519 C75.306288,30.1615696 74.5847744,30.8970598 73.6941306,30.8970598 C72.798066,30.8970598 72.0727578,30.1615696 72.0727578,29.2524519 L72.0727578,29.2524519 Z M72.3280792,29.2524519 C72.3280792,30.0208343 72.9455128,30.6441676 73.6941306,30.6441676 C74.4416642,30.6441676 75.0520507,30.0208343 75.0520507,29.2524519 C75.0520507,28.4959323 74.4416642,27.8693636 73.6941306,27.8693636 C72.9455128,27.8693636 72.3280792,28.4959323 72.3280792,29.2524519 Z M73.1487942,28.5633342 C73.1487942,28.4474028 73.1347,28.4344617 73.018152,28.4306872 L72.9503915,28.4306872 L72.9503915,28.3347068 L73.6561847,28.3347068 C74.1706223,28.3347068 74.3489679,28.4344617 74.3489679,28.7612264 C74.3489679,29.032991 74.142976,29.1942165 73.8957858,29.2351969 C74.090936,29.2767165 74.1830902,29.48054 74.2573557,29.6439224 C74.3440891,29.8348047 74.3814929,29.9776969 74.5560439,29.9987263 L74.5560439,30.0936283 L74.2383828,30.0936283 C74.1738748,30.0747557 74.142976,30.0747557 74.097441,30.015442 C73.9651725,29.8439714 73.8318199,29.4320106 73.7635173,29.3581381 C73.6973831,29.2896577 73.6204072,29.2988244 73.5412629,29.2988244 L73.4713341,29.2988244 L73.4713341,29.8547557 C73.4767549,29.9545106 73.4848862,29.9922557 73.593303,29.9922557 L73.6702789,29.9987263 L73.6702789,30.0936283 L72.9455127,30.0936283 L72.9455127,29.9987263 L73.0111049,29.9987263 C73.1168112,29.987942 73.1487942,29.9922557 73.1487942,29.8714714 L73.1487942,28.5633342 Z M73.5575255,29.1839715 C73.8236886,29.1839715 74.0269701,29.1149519 74.0269701,28.8032852 C74.0269701,28.555246 73.8833179,28.4344617 73.6480535,28.4344617 L73.5510205,28.4441676 C73.4583241,28.4441676 73.4713341,28.5514715 73.4713341,28.6140205 L73.4713341,29.1796578 L73.5575255,29.1839715 L73.5575255,29.1839715 Z" id="Fill-26"></path>
                        <path d="M57.3519289,30.7633332 L49.5112281,30.7633332 C49.5112281,30.7633332 51.3553973,26.3557841 51.5288642,25.9093135 C51.6768531,25.5350979 51.7700915,24.8993626 51.10116,24.3482841 C50.5769649,23.9147547 45.1713047,19.5546566 45.0531304,19.4565194 C44.8536436,19.2893625 44.8227448,19.0607351 44.7804623,18.7474508 C44.746311,18.488088 43.725025,11.338088 43.6713587,11.0242644 C43.6198607,10.713137 43.6106453,10.1102938 43.9234277,10.0261762 C44.1852542,9.95769579 44.5256829,10.0148527 44.7072809,10.0466664 C45.1160122,10.1199997 45.619066,10.5578429 45.8180108,10.9423036 C45.9416059,11.1854899 47.2567013,15.2813723 47.448599,15.8561762 C47.5250328,16.0821076 47.6800688,16.550686 47.8567881,16.7814703 C47.9733362,16.9319115 48.2286577,17.1049998 48.4216395,17.2193135 C48.8016403,17.4403919 51.5874092,19.2025488 52.6645298,19.8986762 C52.8092662,19.9941174 52.9458714,20.1100488 53.0786819,20.1849998 C53.137769,20.2173527 53.1925195,20.1461763 53.1681257,20.0728429 C53.1583682,20.0474998 53.059709,19.9407351 52.943703,19.8377449 C52.7398795,19.6614213 52.458538,19.450588 52.3213908,19.3427449 C52.103473,19.168039 50.4051243,17.8469605 50.2262367,17.6700978 C50.0489752,17.4937743 49.7871487,17.0834311 49.7974483,16.7669115 C49.80829,16.448235 50.3785622,15.6065194 50.9965378,15.5951958 C51.6145134,15.5833331 52.1473818,15.9899017 52.2612195,16.088039 C52.3777675,16.1872547 57.986167,20.4864214 58.2046268,20.7614214 C58.425797,21.0374998 59.0383518,21.7217645 58.793872,23.4208331 C58.5504763,25.1215194 57.3519289,30.7633332 57.3519289,30.7633332" id="Fill-27"></path>
                        <path d="M62.6838665,30.7633332 L70.5240254,30.7633332 C70.5240254,30.7633332 68.6787719,26.3557841 68.504763,25.9093135 C68.3573162,25.5350979 68.2646199,24.8993626 68.9330093,24.3482841 C69.4577464,23.9147547 74.8634067,19.5546566 74.9810389,19.4565194 C75.1816099,19.2893625 75.2103404,19.0607351 75.2537071,18.7474508 C75.2878584,18.488088 76.3096864,11.338088 76.3622686,11.0242644 C76.4153928,10.713137 76.4246082,10.1102938 76.1112837,10.0261762 C75.847831,9.95769579 75.5090286,10.0148527 75.3263463,10.0466664 C74.9192413,10.1199997 74.4161875,10.5578429 74.2161586,10.9423036 C74.0936476,11.1854899 72.7796363,15.2813723 72.5839441,15.8561762 C72.5096786,16.0821076 72.3535584,16.550686 72.176297,16.7814703 C72.0619173,16.9319115 71.8038854,17.1049998 71.6125298,17.2193135 C71.2336132,17.4403919 68.4478442,19.2025488 67.3690973,19.8986762 C67.2238189,19.9941174 67.0866716,20.1100488 66.9549453,20.1849998 C66.8974844,20.2173527 66.8443602,20.1461763 66.8665856,20.0728429 C66.875801,20.0474998 66.9739182,19.9407351 67.0893821,19.8377449 C67.2948318,19.6614213 67.5750892,19.450588 67.7133206,19.3427449 C67.9312383,19.168039 69.6285029,17.8469605 69.8084747,17.6700978 C69.9835678,17.4937743 70.2459364,17.0834311 70.2367209,16.7669115 C70.2253372,16.448235 69.655065,15.6065194 69.0365473,15.5951958 C68.4201979,15.5833331 67.8862453,15.9899017 67.7724077,16.088039 C67.6558597,16.1872547 62.0490863,20.4864214 61.8290003,20.7614214 C61.6089142,21.0374998 60.9952753,21.7217645 61.2397551,23.4208331 C61.4826087,25.1215194 62.6838665,30.7633332 62.6838665,30.7633332" id="Fill-28"></path>
                        <path d="M59.9794104,0.493382343 C54.3341493,0.493382343 49.4071494,2.2366667 46.8425507,4.80495107 L46.8257461,4.80495107 L46.8257461,4.82112754 C45.6391246,6.0149511 44.9620619,7.38617662 44.9620619,8.84421587 C44.9620619,13.4512748 51.6990798,17.1977455 59.9794104,17.1977455 C68.260283,17.1977455 74.997843,13.4512748 74.997843,8.84421587 C74.997843,4.23985302 68.260283,0.493382343 59.9794104,0.493382343 L59.9794104,0.493382343 Z M74.1462297,8.57946085 L69.9168915,8.57946085 C69.874609,7.50426471 69.5824258,6.52127446 69.0956345,5.6374999 L72.8018618,5.6374999 C73.604688,6.53529407 74.0773851,7.53014707 74.1462297,8.57946085 Z M64.6185652,1.74112741 C67.6531505,2.30083329 70.2242541,3.3911274 71.9285656,4.80495091 L68.5568042,4.80495091 C67.6005683,3.51406857 66.208497,2.48093133 64.6185652,1.74112741 Z M67.4851031,4.804951 L60.4510232,4.804951 L60.4510232,1.37877452 C63.1674053,1.7632353 65.8496362,2.95544119 67.4851031,4.804951 Z M59.6129626,4.804951 L52.5539463,4.804951 C54.1964605,2.95166665 56.8879069,1.75676467 59.6129626,1.37553918 L59.6129626,4.804951 Z M59.6129619,5.6374999 L59.6129619,8.57946085 L50.9623879,8.57946085 C51.0111754,7.49186275 51.3548566,6.50725485 51.9180817,5.6374999 L59.6129619,5.6374999 Z M59.6129626,9.41200967 L59.6129626,12.3372548 L52.0920911,12.3372548 C51.4811626,11.4885293 51.0859835,10.5147057 50.9835296,9.41200967 L59.6129626,9.41200967 Z M59.6129626,13.1698039 L59.6129626,16.3080392 C57.0152967,15.9063235 54.4501559,14.8510784 52.796258,13.1698039 L59.6129626,13.1698039 Z M55.5126401,15.9785785 C52.6108652,15.4668628 50.1221581,14.469853 48.3918264,13.1698039 L51.6703497,13.1698039 C52.6385114,14.3582353 53.9861319,15.297549 55.5126401,15.9785785 Z M68.3692429,13.1698039 L71.5675378,13.1698039 C69.8643102,14.4509804 67.4276432,15.4355883 64.5844132,15.9543137 C66.0876118,15.274902 67.4151753,14.3442157 68.3692429,13.1698039 Z M60.4510232,16.3037255 L60.4510232,13.1698039 L67.2460443,13.1698039 C65.5948569,14.8456863 63.0410999,15.9003922 60.4510232,16.3037255 Z M60.4510232,12.3372548 L60.4510232,9.41200967 L69.0587727,9.41200967 C68.956861,10.5147057 68.5616818,11.4885293 67.9507533,12.3372548 L60.4510232,12.3372548 Z M60.4510232,8.57946085 L60.4510232,5.6374999 L68.1247621,5.6374999 C68.6874451,6.50725485 69.0295,7.49186275 69.0799138,8.57946085 L60.4510232,8.57946085 Z M55.4719837,1.71794121 C53.8609105,2.45828432 52.4520346,3.50004899 51.4833307,4.80495091 L48.0297145,4.80495091 C49.7595041,3.37225488 52.3793954,2.26955884 55.4719837,1.71794121 Z M47.1585857,5.6374999 L50.9472096,5.6374999 C50.4598763,6.52127446 50.167151,7.50426471 50.1259526,8.57946085 L45.8125915,8.57946085 C45.8825203,7.53014707 46.3557595,6.53529407 47.1585857,5.6374999 Z M45.8434903,9.41200967 L50.1427573,9.41200967 C50.2284065,10.4958332 50.5644985,11.4718136 51.0865253,12.3372548 L47.4290856,12.3372548 C46.5476572,11.4513234 45.9936475,10.4618626 45.8434903,9.41200967 Z M72.5313624,12.3372548 L68.9546932,12.3372548 C69.477262,11.4718136 69.8128119,10.4974508 69.8990033,9.41200967 L74.1153314,9.41200967 C73.9651742,10.4618626 73.4111645,11.4513234 72.5313624,12.3372548 L72.5313624,12.3372548 Z" id="Fill-29"></path>
                        <path d="M54.2192245,4.80764714 C54.4729198,5.01416674 54.7656451,5.66230399 54.6171141,5.95132359 C54.4333477,6.30720593 53.8739171,6.28995103 53.3703212,6.06725496 C52.8694357,5.84401967 52.4753408,5.22392164 52.9892363,4.79524518 C53.5004213,4.3692648 54.0370844,4.65666675 54.2192245,4.80764714" id="Fill-30"></path>
                        <path d="M58.0257387,2.27279409 C57.9937558,2.36122546 57.9688199,2.44911762 57.9650254,2.54833331 C57.9525574,2.76833331 58.0062237,3.06220587 58.0008029,3.17274509 C57.9932137,3.33235294 58.0029712,3.77666667 58.2680502,3.94274511 C58.5233717,4.10343139 58.8036291,4.0764706 58.9749276,4.01553923 C59.1689936,3.94759805 59.2833733,3.73892157 59.3256559,3.54696079 C59.3668542,3.35607843 59.4454564,2.55210782 59.3820326,2.38117644 C59.2990938,2.15794114 59.0844285,1.85112741 58.6659398,1.88078427 C58.246909,1.91367643 58.1059672,2.05980388 58.0257387,2.27279409" id="Fill-31"></path>
                        <path d="M63.0394747,2.52730397 C63.4931989,2.5521079 63.6720866,3.04980398 63.7089483,3.29676477 C63.7452679,3.54696086 63.6872649,3.84784322 63.4411589,4.04250008 C63.1955949,4.23446087 62.7261503,4.48789225 62.2507428,4.40593146 C61.793224,4.32774519 61.7330527,4.11205891 61.7205848,3.99990204 C61.689686,3.69416674 62.2957357,2.91122555 62.1602148,3.12098046 C62.1152218,3.18838242 62.4800442,2.4938726 63.0394747,2.52730397" id="Fill-32"></path>
                        <path d="M66.4025592,8.25215714 C66.1195914,8.25215714 65.9434142,8.00627478 65.806809,7.88171595 C65.6935135,7.77818653 65.6035276,7.79220614 65.5363092,7.78303947 C65.4007882,7.76901987 65.367179,7.64230417 65.3720578,7.45142181 C65.3758523,7.34843161 65.4669224,7.06426493 65.6393051,6.82593159 C65.7905465,6.61833354 65.9851546,6.42205902 66.3830442,6.44093157 C67.0357132,6.47166686 67.177197,6.81083355 67.3295226,6.99362767 C67.480764,7.17534337 67.4851007,7.44171593 67.4276398,7.5231375 C67.3560847,7.62558849 67.1945437,7.66117672 67.1376249,7.76901987 C67.0622753,7.90274536 66.8221321,8.25215714 66.4025592,8.25215714" id="Fill-33"></path>
                        <path d="M66.2404786,8.35622563 C66.4426759,8.35946092 66.6616778,8.33950994 66.8812217,8.42848053 C67.1034761,8.51906877 67.302963,8.70401976 67.4916082,9.034559 C67.6770008,9.35539235 67.7209096,9.60720609 67.6770008,9.76573551 C67.6498966,9.86872571 67.5208807,10.0002943 67.3273567,10.1102943 C67.3235622,10.1491179 67.3110942,10.1949512 67.3110942,10.2326963 C67.3110942,10.3270591 67.3316934,10.4230395 67.3663868,10.5314218 C67.3793968,10.5745591 67.4764298,10.8252944 67.5750891,11.1110787 C67.742593,11.5947552 67.9312382,12.1808827 67.9979145,12.3636768 C68.0998263,12.6543141 68.1502401,12.77402 68.1502401,12.77402 L66.9262147,12.848971 C66.9262147,12.848971 66.8861005,14.8553926 66.863333,15.2301476 C66.6801086,15.2004907 66.3868412,14.6860789 66.2838453,14.598726 C66.1575398,14.7761279 66.0409917,15.121226 65.9943725,15.1940201 C65.9634737,15.2425495 65.8317473,15.3315201 65.7786231,15.3369123 C65.7688656,15.2716672 65.7504348,15.0570593 65.726041,14.7809809 C65.7027314,14.5070593 65.6723747,14.1080397 65.6246713,13.79152 C65.5666683,13.4210788 65.4598778,13.0231376 65.3476665,12.8861768 L64.4673223,12.781569 C64.4673223,12.781569 64.9508611,12.0983827 65.1004762,11.4680395 C65.1340854,11.3273042 65.1980513,11.1002944 65.2462968,10.8457846 C65.3373669,10.3777453 65.4072957,9.82235316 65.3276094,9.54465706 C64.7454113,9.77328453 64.594712,9.78730413 64.4727431,9.70803942 C64.28464,9.5872551 64.1951961,9.31656882 64.0786481,9.01029429 C63.9772784,8.75308839 63.877535,8.49156877 63.8135691,8.33950994 C63.7620711,8.21710797 63.6970211,8.1286766 63.6411864,8.05642169 C63.547948,7.9367158 63.4742246,7.87794129 63.4590463,7.90274521 C63.4032116,7.98578443 63.5474059,8.59024525 63.625466,9.25617666 C63.7262936,10.124314 63.8330841,11.0420591 63.87103,11.2647552 C63.9176492,11.5402944 64.0488335,12.2714709 63.9658947,12.4019611 C63.8200741,12.6375984 63.1262068,12.7475984 63.1262068,12.7475984 C63.1262068,12.7475984 62.9088311,13.7435298 62.882269,14.1220593 C62.8557069,14.5011279 62.7277751,15.7413241 62.830229,16.1451966 C62.5364195,15.9899025 62.2859768,15.6496574 62.2393576,15.6075986 C62.1851492,15.6679907 61.7400983,16.138726 61.6614961,16.1856378 C61.699442,15.9063241 61.8756193,15.2096574 61.7758758,14.3517652 C61.6755903,13.493873 61.5628369,12.9773043 61.479356,12.6278925 C61.2701116,12.4618141 60.8516228,12.4774513 60.7432061,12.2854905 C60.633163,12.0946082 60.9416088,10.9687258 60.9611238,10.5982846 C60.9730496,10.419265 61.0830927,9.88544139 61.1871728,9.34460803 C61.2945054,8.78544134 61.4311105,8.22897072 61.3416667,8.07259816 C61.2316236,7.87955894 61.1904253,7.9264707 60.994733,8.01813738 C60.8451178,8.08661777 60.3669999,8.36647073 60.1761863,8.63769623 C59.9880832,8.9078433 59.7961856,16.3177456 59.7961856,16.3177456 L59.7690814,16.391079 C59.7690814,16.391079 59.6487387,16.2659809 59.534359,16.1770103 C59.4199794,16.0880398 58.8594646,15.6367162 58.7602633,15.4652456 C58.661604,15.2926966 58.7385799,14.9174024 58.7179807,14.6035789 C58.7125599,14.5173044 58.7049707,14.298922 58.6800349,14.0282357 C58.6247423,13.3321082 58.5249989,12.2364219 58.5184939,11.744118 C58.5141572,11.2750003 58.3455691,10.8948532 58.3455691,10.8948532 C58.2263107,11.3219121 58.0907897,12.046618 58.0485072,12.4235298 C58.0251976,12.6332847 58.047423,13.3132357 58.0517597,13.9187749 C58.053928,14.4234808 58.0528438,14.8834318 58.0398338,15.0252456 C58.014898,15.3315201 58.0257396,15.7170593 58.0224871,15.7844613 C58.0165242,15.8540201 57.7807177,16.2325496 57.5010025,16.3500986 C57.3139835,16.4277457 57.1752101,16.4482359 57.1752101,16.4482359 C57.1752101,16.4482359 57.2483914,16.0583829 57.2532701,15.7046574 C57.2548964,15.6372554 57.2478493,15.5720103 57.2440547,15.5110789 C57.2370076,15.4188731 57.2288764,15.2452456 57.1844255,15.0203926 C57.0331841,14.2617161 56.8060509,13.0042651 56.767563,12.2962749 C56.7556371,12.1129415 56.7594317,11.9279905 56.7556371,11.711765 C56.7393746,10.8376963 56.7464217,9.79053943 56.6938396,9.62122569 C56.6260791,9.40769627 56.5778336,9.47941196 56.5458507,9.54142177 C56.5165781,9.60666687 56.1121836,10.2666669 55.9820835,10.2860787 C55.7842228,10.3157355 55.4297,9.88166688 55.3315828,9.89352963 C55.3256199,10.2375493 55.2968894,12.1134807 55.2757482,12.561569 C55.2546069,13.0080396 55.0453625,15.1007358 55.2643644,15.486275 C54.8420811,15.4700985 54.7428797,15.4722554 54.6013958,15.4210299 C54.4479861,15.2603436 54.2707247,15.0074515 54.207843,14.4558338 C54.1769442,14.1743632 54.1509241,13.7516181 54.1341195,13.4830886 C54.1140624,13.1131867 54.1140624,12.981618 54.1140624,12.981618 C54.1140624,12.981618 54.0105244,12.9562749 53.9845044,12.9929416 C53.9254173,13.2361278 53.6516649,14.5647554 53.6175136,14.7723534 C53.5795677,14.9810299 53.5605948,15.3509319 53.5605948,15.3509319 C53.5605948,15.3509319 53.3025629,15.1573534 53.0949448,14.9686279 C52.8862425,14.7831377 52.8434179,14.5485789 52.8629329,14.058971 C52.8759429,13.76402 52.9008787,13.4604416 52.9084679,13.2285788 C52.92202,12.8252455 52.9209358,12.419216 52.9209358,12.2488239 C52.9209358,11.9457846 52.8943737,11.0636277 52.8943737,11.0636277 C52.8943737,11.0636277 52.5501505,10.1146081 52.4601646,9.76034335 C52.3712628,9.40769627 52.3300644,8.9488237 52.4395654,8.65818643 C52.5501505,8.36647073 52.9344879,7.18882361 53.3350879,6.61779417 C53.4332051,6.47867651 54.1574292,6.40426474 54.3574581,6.38808827 C54.556945,6.3719118 54.8800269,6.41936278 55.0502413,6.58705887 C55.307189,6.83833339 55.2546069,6.9963236 55.345677,7.30906871 C55.4334946,7.62289226 55.8189162,8.6263727 55.8189162,8.6263727 C55.8189162,8.6263727 56.1192307,8.30284327 56.4450231,7.63691187 C56.5388036,7.44818637 56.7729838,6.79465692 56.8239397,6.25598042 C56.9106731,5.31289214 56.9789757,4.83676466 57.0386049,4.72460779 C57.0976921,4.61406857 57.2939264,4.47387249 57.6506176,4.39514699 C57.9905042,4.32181365 58.474043,4.30024503 58.7960408,4.27598032 C59.4557569,4.22421561 59.8476835,4.23446071 60.0498808,4.30941169 C60.3279698,4.41455876 60.7367011,5.11985291 61.0278001,5.90656864 C61.4229792,5.28485292 61.2435495,4.95539212 61.6533649,4.73970583 C61.8940501,4.61245092 63.063325,4.80495093 63.3300303,5.0028431 C63.5430693,5.15867644 63.6536544,5.40240195 63.6672065,5.43637254 C63.8200741,5.80196079 63.9588476,6.36274513 64.1339407,6.82970594 C64.2325999,7.10093145 64.7204754,8.5713727 64.8543701,8.77303938 C64.9524873,8.91647076 65.18992,8.72073545 65.3140573,8.61990211 C65.4409049,8.52176485 65.6609909,8.34544131 66.2404786,8.35622563" id="Fill-34"></path>
                    </g>
                </g>
                <text id="Canadian-Imperial-Ba" font-family="Roboto-Regular, Roboto" font-size="10" font-weight="normal" fill="#6F7886">
                    <tspan x="36.7924805" y="87">Credit Union Central of Ontario</tspan>
                </text>
            </g>
        </g>
    </g>
</svg>