<svg xmlns="http://www.w3.org/2000/svg" viewBox="0 0 209 96"><defs><style>.cls-1{fill:#fff;stroke:#dedede;stroke-linecap:square;}.cls-2{fill:none;}.cls-3{fill:#cc2229;}.cls-4{isolation:isolate;}.cls-5{fill:#6f7886;}</style></defs><title>Soctiabank</title><g id="Layer_2" data-name="Layer 2"><g id="Layer_1-2" data-name="Layer 1"><rect id="BG" class="cls-1" x="0.5" y="0.5" width="208" height="95" rx="6"/><g id="bank-logo-image"><rect id="Back-logo" class="cls-2" x="10" y="12.5" width="188" height="77"/><g id="scotiabank-3"><path id="Shape" class="cls-3" d="M42.7,39.83a8.19,8.19,0,0,1,6.72-12H61.64l-4.75,4.86H49.34A7.24,7.24,0,0,0,42.7,39.83Zm4.66-3.49a7,7,0,0,1,2.22-3,6.47,6.47,0,0,0-5.27,3Zm2.45-2.41A7.85,7.85,0,0,0,48,36.34h3.66a8.46,8.46,0,0,0-1.82-2.41ZM44,37a6.75,6.75,0,0,0-.76,2.71h3.43A7.84,7.84,0,0,1,47.14,37Zm3.73,0a10.76,10.76,0,0,0-.52,2.71h5.18A10.34,10.34,0,0,0,51.86,37Zm7.5-.64a6.3,6.3,0,0,0-5.19-3,7.81,7.81,0,0,1,2.21,3ZM52.47,37a7.6,7.6,0,0,1,.46,2.71h3.43A6.3,6.3,0,0,0,55.6,37Zm-8.16,6.51a6.26,6.26,0,0,0,5.27,3,7.36,7.36,0,0,1-2.22-3ZM49.81,46a8.79,8.79,0,0,0,1.82-2.48H48A8.34,8.34,0,0,0,49.81,46Zm-2.67-3a8.79,8.79,0,0,1-.47-2.72H43.24A7.21,7.21,0,0,0,44,43Zm4.72,0a10.83,10.83,0,0,0,.53-2.72H47.2A11.8,11.8,0,0,0,47.73,43Zm.39.54a8.23,8.23,0,0,1-2.21,3,6.1,6.1,0,0,0,5.19-3ZM55.6,43a6.54,6.54,0,0,0,.76-2.72H52.93A8.68,8.68,0,0,1,52.47,43Zm1.29-3a7.22,7.22,0,0,1-6.63,7.23H42.7L38,51.94H50.18a8,8,0,0,0,7.64-7.82A7.91,7.91,0,0,0,56.89,40v-.09ZM92.61,46.5c-3.17,0-5.45-1.94-5.45-5s2.36-5,5.45-5,5.45,2,5.45,5S95.77,46.5,92.61,46.5Zm54.28-9.73V46.3h-3.17l-.05-1h-.06a4,4,0,0,1-3.13,1.17c-2.26,0-4.25-2-4.25-5,0-2.77,1.76-5,4.46-5a3.69,3.69,0,0,1,2.86,1.08h.09l0-.86Zm-24.44,0v9.54h-3.17l0-1h-.07A3.86,3.86,0,0,1,116,46.51c-2.27,0-4.25-2-4.25-5,0-2.77,1.76-5,4.45-5a3.69,3.69,0,0,1,2.87,1.09h.09l0-.87Zm-15.39,0h3.27v9.54h-3.27V36.78Zm17.49,9.52V32.86h3.25v4.6h0a5.09,5.09,0,0,1,2.83-.91,4.5,4.5,0,0,1,4.39,4.81c0,3.43-2.06,5.15-4.41,5.15a3.85,3.85,0,0,1-2.91-1.09h0l0,.88ZM92.61,44.12c1.32,0,2.1-1.18,2.1-2.59s-.74-2.61-2.1-2.61-2.1,1.18-2.1,2.61S91.29,44.12,92.61,44.12Zm12.87-.41a4.32,4.32,0,0,1-.9.16,1.3,1.3,0,0,1-1.39-1.48V39.17h2v-2.4h-2V33.7H99.93v3.07H98.51v2.4h1.42v3.77c0,2.07.95,3.56,3.36,3.56a10.23,10.23,0,0,0,1.79-.18l.4-2.61ZM68.4,46a13.49,13.49,0,0,0,3.77.54c2.78,0,5.56-1,5.56-4.11C77.73,38.12,72,38.71,72,37c0-.87.88-1.06,1.76-1.06a9.61,9.61,0,0,1,3.07.73L77,33.75a10.82,10.82,0,0,0-3.32-.46c-2.75,0-5.46,1.09-5.46,3.86,0,4.18,5.77,3.31,5.77,5.51,0,.84-.84,1.17-1.89,1.17a8.27,8.27,0,0,1-3.42-1L68.4,46Zm71.28-4.51c0,1.58.87,2.56,2,2.56a2.24,2.24,0,0,0,2-2.43c0-1.48-.87-2.49-2-2.49a2.15,2.15,0,0,0-2,2.36Zm-24.44,0c0,1.58.86,2.56,2,2.56a2.23,2.23,0,0,0,2-2.43,2.21,2.21,0,0,0-2-2.48A2.15,2.15,0,0,0,115.24,41.44ZM86.33,36.92A7.67,7.67,0,0,0,84,36.54a5,5,0,1,0-.13,10,7.84,7.84,0,0,0,2.45-.41l-.16-2.78a3.88,3.88,0,0,1-1.65.49,2.19,2.19,0,0,1-2.27-2.28,2.22,2.22,0,0,1,2.31-2.3,3.69,3.69,0,0,1,1.61.46Zm74.45,9.39H164V41.9h0L167,46.31h3.62l-3.48-5.06,3.39-4.46h-3.61l-2.8,3.93h0V32.87h-3.25V46.31Zm-11.78,0h3.17V41.38a1.78,1.78,0,0,1,1.71-1.94c1.1,0,1.72.72,1.72,1.94v4.93h3.18V40.57a3.76,3.76,0,0,0-3.88-4,4,4,0,0,0-3,1.29h-.06l0-1.06H149v9.52ZM108.69,32a1.87,1.87,0,1,0,1.84,1.87A1.87,1.87,0,0,0,108.69,32Zm23,9.58a2,2,0,1,0-3.94,0c0,1.41.72,2.42,2,2.42S131.69,43,131.69,41.53Z"/></g></g><g id="Canadian-Imperial-Ba" class="cls-4"><g class="cls-4"><path class="cls-5" d="M82.6,84.33a4.31,4.31,0,0,1-1.75-.85,1.62,1.62,0,0,1-.55-1.25A1.72,1.72,0,0,1,81,80.84a2.7,2.7,0,0,1,1.74-.55,2.9,2.9,0,0,1,1.31.29,2.12,2.12,0,0,1,.89.78,2,2,0,0,1,.31,1.09h-.94a1.31,1.31,0,0,0-.41-1,1.65,1.65,0,0,0-1.16-.37,1.67,1.67,0,0,0-1.08.31,1,1,0,0,0-.39.84.94.94,0,0,0,.37.74,3.78,3.78,0,0,0,1.26.55,5.87,5.87,0,0,1,1.38.55,2.12,2.12,0,0,1,.75.7,1.8,1.8,0,0,1,.24.94,1.67,1.67,0,0,1-.68,1.39,2.92,2.92,0,0,1-1.8.52,3.49,3.49,0,0,1-1.37-.28,2.36,2.36,0,0,1-1-.77,1.9,1.9,0,0,1-.35-1.11H81a1.23,1.23,0,0,0,.48,1,2,2,0,0,0,1.27.37,1.84,1.84,0,0,0,1.14-.3,1.08,1.08,0,0,0,0-1.64A4.74,4.74,0,0,0,82.6,84.33Z"/><path class="cls-5" d="M88.42,86.86a1.32,1.32,0,0,0,.84-.29,1,1,0,0,0,.4-.74h.86a1.6,1.6,0,0,1-.32.87,2,2,0,0,1-.77.65,2.13,2.13,0,0,1-1,.25,2.18,2.18,0,0,1-1.72-.72,2.85,2.85,0,0,1-.64-2v-.15a3.18,3.18,0,0,1,.29-1.38,2.1,2.1,0,0,1,.81-.93,2.31,2.31,0,0,1,1.25-.33,2.15,2.15,0,0,1,1.48.53A2,2,0,0,1,90.52,84h-.86a1.23,1.23,0,0,0-1.25-1.17,1.28,1.28,0,0,0-1.07.5A2.34,2.34,0,0,0,87,84.79V85a2.3,2.3,0,0,0,.37,1.41A1.27,1.27,0,0,0,88.42,86.86Z"/><path class="cls-5" d="M91.29,84.81a3.06,3.06,0,0,1,.31-1.4,2.18,2.18,0,0,1,.85-1,2.42,2.42,0,0,1,3,.41,2.87,2.87,0,0,1,.66,2v.07a3.25,3.25,0,0,1-.29,1.38,2.27,2.27,0,0,1-.85,1,2.4,2.4,0,0,1-1.26.34A2.21,2.21,0,0,1,92,86.85a2.84,2.84,0,0,1-.67-2Zm.91.11a2.29,2.29,0,0,0,.41,1.41,1.31,1.31,0,0,0,1.09.53,1.29,1.29,0,0,0,1.09-.54,2.46,2.46,0,0,0,.41-1.51,2.29,2.29,0,0,0-.41-1.41,1.32,1.32,0,0,0-1.1-.54,1.3,1.3,0,0,0-1.08.53A2.51,2.51,0,0,0,92.2,84.92Z"/><path class="cls-5" d="M98.46,80.94v1.28h1v.7h-1V86.2a.69.69,0,0,0,.13.47.55.55,0,0,0,.45.16,2.07,2.07,0,0,0,.43-.06v.73a2.45,2.45,0,0,1-.69.1,1.12,1.12,0,0,1-.92-.37,1.59,1.59,0,0,1-.3-1V82.92h-1v-.7h1V80.94Z"/><path class="cls-5" d="M100.51,80.82a.55.55,0,0,1,.13-.38.51.51,0,0,1,.4-.15.52.52,0,0,1,.4.15.56.56,0,0,1,.14.38.5.5,0,0,1-.54.51.51.51,0,0,1-.4-.15A.52.52,0,0,1,100.51,80.82Zm1,6.68h-.9V82.22h.9Z"/><path class="cls-5" d="M106.19,87.5a2.19,2.19,0,0,1-.13-.56,2,2,0,0,1-1.5.66,1.88,1.88,0,0,1-1.28-.44,1.42,1.42,0,0,1-.5-1.12,1.53,1.53,0,0,1,.62-1.29,3,3,0,0,1,1.77-.45h.88v-.42a1,1,0,0,0-.29-.75,1.1,1.1,0,0,0-.83-.28,1.34,1.34,0,0,0-.81.24.71.71,0,0,0-.33.59h-.91a1.27,1.27,0,0,1,.28-.76,2,2,0,0,1,.77-.59,2.59,2.59,0,0,1,1-.21,2,2,0,0,1,1.43.46,1.61,1.61,0,0,1,.54,1.25v2.43a2.83,2.83,0,0,0,.19,1.16v.08Zm-1.5-.69a1.59,1.59,0,0,0,.81-.22,1.37,1.37,0,0,0,.55-.57V84.94h-.71c-1.11,0-1.66.32-1.66,1a.81.81,0,0,0,.28.66A1.09,1.09,0,0,0,104.69,86.81Z"/><path class="cls-5" d="M112.84,84.92a3.15,3.15,0,0,1-.56,1.94,1.78,1.78,0,0,1-1.49.74,1.86,1.86,0,0,1-1.55-.71l0,.61h-.83V80h.9v2.8a1.84,1.84,0,0,1,1.51-.68,1.78,1.78,0,0,1,1.51.73,3.2,3.2,0,0,1,.55,2Zm-.9-.11a2.4,2.4,0,0,0-.36-1.42,1.17,1.17,0,0,0-1-.5,1.32,1.32,0,0,0-1.28.83V86a1.37,1.37,0,0,0,1.29.83,1.2,1.2,0,0,0,1-.5A2.62,2.62,0,0,0,111.94,84.81Z"/><path class="cls-5" d="M117.24,87.5a1.83,1.83,0,0,1-.13-.56,2,2,0,0,1-1.5.66,1.88,1.88,0,0,1-1.28-.44,1.42,1.42,0,0,1-.5-1.12,1.53,1.53,0,0,1,.62-1.29,3,3,0,0,1,1.77-.45h.88v-.42a1,1,0,0,0-.29-.75,1.1,1.1,0,0,0-.83-.28,1.34,1.34,0,0,0-.81.24.71.71,0,0,0-.33.59h-.91a1.27,1.27,0,0,1,.28-.76,2,2,0,0,1,.77-.59,2.59,2.59,0,0,1,1-.21,2,2,0,0,1,1.43.46,1.61,1.61,0,0,1,.54,1.25v2.43a2.83,2.83,0,0,0,.19,1.16v.08Zm-1.5-.69a1.59,1.59,0,0,0,.81-.22,1.37,1.37,0,0,0,.55-.57V84.94h-.71c-1.11,0-1.66.32-1.66,1a.81.81,0,0,0,.28.66A1.09,1.09,0,0,0,115.74,86.81Z"/><path class="cls-5" d="M120.27,82.22l0,.66a1.92,1.92,0,0,1,1.58-.76c1.12,0,1.68.63,1.69,1.89V87.5h-.9V84a1.19,1.19,0,0,0-.26-.84,1.06,1.06,0,0,0-.8-.27,1.27,1.27,0,0,0-.77.23,1.58,1.58,0,0,0-.52.62V87.5h-.9V82.22Z"/><path class="cls-5" d="M126.41,85.05l-.57.59V87.5h-.9V80h.9v4.54l.49-.58L128,82.22h1.1L127,84.42l2.3,3.08h-1.06Z"/></g></g></g></g></svg>