<?xml version="1.0" encoding="UTF-8"?>
<svg width="210px" height="97px" viewBox="0 0 210 97" version="1.1" xmlns="http://www.w3.org/2000/svg" xmlns:xlink="http://www.w3.org/1999/xlink">
    <!-- Generator: sketchtool 54.1 (76490) - https://sketchapp.com -->
    <title>47D2FAF2-F973-46FB-B4FD-A4EAFD723B3F</title>
    <desc>Created with sketchtool.</desc>
    <g id="UI-UX-Screens" stroke="none" stroke-width="1" fill="none" fill-rule="evenodd">
        <g id="Make-a-Payment-See-Online-Banking-and-Interac" transform="translate(-307.000000, -723.000000)">
            <g id="back-card-copy-7" transform="translate(308.000000, 724.000000)">
                <rect id="BG" stroke="#DEDEDE" fill="#FFFFFF" stroke-linecap="square" x="0" y="0" width="208" height="95" rx="6"></rect>
                <g id="bank-logo-image" transform="translate(36.000000, 12.000000)">
                    <rect id="Back-logo" fill-rule="nonzero" x="-26.5" y="0" width="188" height="77"></rect>
                    <g id="National_Bank_Of_Canada" transform="translate(7.898936, 7.142857)">
                        <path d="M0.0350167033,27.397619 L12.9026949,23.9842857 C13.4922226,23.855238 13.9184191,23.7571428 14.3431764,23.9197618 C14.6712781,24.050238 14.9331839,24.4066666 15.1622315,24.7319047 L19.1239155,30.1278571 C19.352963,30.4530952 19.6153485,30.8095237 19.942251,30.9399999 C20.3679677,31.102619 20.7936844,31.0045237 21.3829723,30.8740475 L34.2177924,27.4621428 L34.2177924,3.73523808 L21.3501142,7.14833331 C20.7610661,7.27833331 20.3355892,7.37571427 19.9096327,7.21333331 C19.5822505,7.08285712 19.3203448,6.72547617 19.0910573,6.40023808 L15.128414,1.00428571 C14.9000859,0.679523807 14.6377005,0.322142856 14.3105581,0.192142856 C13.8848414,0.0290476184 13.4591247,0.127380951 12.8698368,0.256666665 L0.0350167033,3.66999999 L0.0350167033,27.397619 L0.0350167033,27.397619 Z" id="Path" fill="#E33131"></path>
                        <polygon id="Path" fill="#000000" fill-rule="nonzero" points="48.7883379 10.526905 48.7883379 4.68285719 50.8567216 3.68404763 50.8567216 13.6747622 48.7883379 13.6747622 44.7357543 6.72238107 44.7357543 13.6747622 42.6676104 13.6747622 42.6676104 4.68285719 44.7218436 3.68404763"></polygon>
                        <polygon id="Path" fill="#000000" fill-rule="nonzero" points="64.3777265 13.6747622 62.3100623 13.6747622 62.3100623 5.28523827 59.248979 5.28523827 60.2421582 3.58833347 67.3280035 3.58833347 66.3211534 5.28523827 64.3777265 5.28523827"></polygon>
                        <polygon id="Path" fill="#000000" fill-rule="nonzero" points="69.9118053 13.6747622 67.8441409 13.6747622 67.8441409 4.68285719 69.9118053 3.68404763"></polygon>
                        <polygon id="Path" fill="#000000" fill-rule="nonzero" points="87.5830089 10.526905 87.5830089 4.68285719 89.6511528 3.68404763 89.6511528 13.6747622 87.5830089 13.6747622 83.5304253 6.72238107 83.5304253 13.6747622 81.4620416 13.6747622 81.4620416 4.68285719 83.5167544 3.68404763"></polygon>
                        <polygon id="Path" fill="#000000" fill-rule="nonzero" points="100.376576 13.6747622 100.376576 4.68285719 102.44496 3.68404763 102.44496 11.9776193 107.255679 11.9776193 106.249788 13.6747622"></polygon>
                        <path d="M47.1900416,17.3185716 C48.7336546,17.3185716 50.4022245,18.1940478 50.4298062,20.0007145 C50.4298062,20.8492859 50.1261682,21.4792859 49.4920301,22.011905 C50.1398391,22.4640479 50.7324848,23.4080955 50.7190537,24.4626193 C50.6909924,26.0638098 49.2989585,27.3504765 47.6860316,27.309286 L42.6676104,27.309286 L42.6676104,18.3171431 L44.7357544,17.3185716 L47.1900416,17.3185716 L47.1900416,17.3185716 Z M47.3823933,21.3273811 C48.0026206,21.3009526 48.4856592,20.794524 48.4856592,20.1783335 C48.4856592,19.5626192 48.0026206,19.0430954 47.3823933,19.0152383 L44.7357543,19.0152383 L44.7357543,21.3273811 L47.3823933,21.3273811 L47.3823933,21.3273811 Z M47.6860315,25.611429 C48.3748532,25.5704767 48.8993842,24.9966671 48.8993842,24.3123814 C48.8993842,23.6416671 48.3609425,23.0800004 47.6860315,23.0390481 L44.7357543,23.0390481 L44.7357543,25.611429 L47.6860315,25.611429 L47.6860315,25.611429 Z" id="Shape" fill="#000000" fill-rule="nonzero"></path>
                        <path d="M50.6830782,27.3092863 L53.660697,18.7007148 L56.5145582,17.3047624 L59.9610651,27.3092863 L57.8516686,27.3092863 L57.1901887,25.3245243 L53.5091179,25.3245243 L52.791995,27.3092863 L50.6830782,27.3092863 L50.6830782,27.3092863 Z M55.3287873,19.8914291 L54.0744219,23.6554767 L56.5973033,23.6554767 L55.3287873,19.8914291 L55.3287873,19.8914291 Z" id="Shape" fill="#000000" fill-rule="nonzero"></path>
                        <polygon id="Path" fill="#000000" fill-rule="nonzero" points="66.875666 24.1609528 66.875666 18.3171431 68.9438101 17.3185716 68.9438101 27.3092863 66.875666 27.3092863 62.8226025 20.3561908 62.8226025 27.3092863 60.7544584 27.3092863 60.7544584 18.3171431 62.8094113 17.3185716"></polygon>
                        <polygon id="Path" fill="#000000" fill-rule="nonzero" points="72.1900487 24.1745239 72.1900487 27.3092857 70.1219047 27.3092857 70.1219047 18.317143 72.1900487 17.3185716 72.1900487 21.7388096 75.6643771 17.8380954 78.6005036 17.3321431 74.6167541 21.6840477 79.04181 27.3219047 76.491107 27.3219047 73.2659729 22.9845239"></polygon>
                        <path d="M47.5234199,41.3216652 C44.2697448,41.3216652 42.7803358,38.8449986 42.670249,36.0949987 C42.6155654,34.5621416 43.3178182,33.0978559 43.9521961,32.3302369 L46.9856977,30.8669036 C47.1924401,30.8669036 47.3164376,30.8669036 47.5231801,30.8669036 C50.7763755,30.8669036 52.3758713,33.3435702 52.3758713,36.0949987 C52.376351,38.8447605 50.7768552,41.3216652 47.5234199,41.3216652 L47.5234199,41.3216652 Z M50.4187737,36.0949987 C50.4187737,34.3559511 49.5776533,32.6459512 47.5236599,32.6459512 C45.4833374,32.6459512 44.6424569,34.3697606 44.6424569,36.0949987 C44.6424569,37.8190462 45.4833374,39.5428557 47.5236599,39.5428557 C49.5776533,39.5428557 50.4187737,37.8326177 50.4187737,36.0949987 L50.4187737,36.0949987 Z" id="Shape" fill="#000000" fill-rule="nonzero"></path>
                        <polygon id="Path" fill="#000000" fill-rule="nonzero" points="53.0426314 40.9938083 53.0426314 32.002142 55.1105355 31.0035706 60.0735536 31.0035706 59.0815735 32.6866657 55.1105355 32.6866657 55.1105355 35.0133323 59.4533262 35.0133323 58.4608665 36.6961894 55.1105355 36.6961894 55.1105355 40.9938083"></polygon>
                        <path d="M71.9885843,37.6004752 L73.9737435,37.6004752 L73.9737435,37.6549991 C73.9737435,40.3364277 71.2992829,41.3214277 69.6028916,41.3090468 C66.5840202,41.2942849 65.1363434,38.7490467 65.1363434,36.1221419 C65.1363434,34.5892847 65.3845782,33.5211894 66.3082037,32.317618 L69.3138839,30.8519036 C69.4932845,30.8519036 69.6170422,30.8519036 69.7959631,30.8519036 C73.5319574,30.8669036 73.9739833,33.8230942 73.9739833,34.3011894 L73.9739833,34.3966656 L72.0164058,34.3966656 L72.0164058,34.3830942 C72.0164058,33.7669037 71.3678773,32.522618 69.7280883,32.5361894 C67.9767735,32.5497608 67.135893,34.259999 67.1634746,36.1219038 C67.1769057,37.7776181 67.8942684,39.5699991 69.713458,39.5699991 C71.3273442,39.5699991 71.9888241,38.4892848 71.9888241,37.62738 L71.9888241,37.6004752 L71.9885843,37.6004752 Z" id="Path" fill="#000000" fill-rule="nonzero"></path>
                        <path d="M73.9106649,40.9938107 L76.8882838,32.3861916 L79.742145,30.9900011 L83.1886519,40.9940488 L81.0792553,40.9940488 L80.4177755,39.0102393 L76.7369445,39.0102393 L76.0203013,40.9940488 L73.9106649,40.9940488 L73.9106649,40.9938107 Z M78.5563741,33.5759536 L77.3020087,37.3397631 L79.8251299,37.3397631 L78.5563741,33.5759536 L78.5563741,33.5759536 Z" id="Shape" fill="#000000" fill-rule="nonzero"></path>
                        <polygon id="Path" fill="#000000" fill-rule="nonzero" points="89.9089799 37.8464275 89.9089799 32.002142 91.9771238 31.0035706 91.9771238 40.9938083 89.9089799 40.9938083 85.8571158 34.0416657 85.8571158 40.9938083 83.7882523 40.9938083 83.7882523 32.002142 85.8427253 31.0035706"></polygon>
                        <path d="M92.6457985,40.9938107 L95.6238972,32.3861916 L98.4772789,30.9900011 L101.924266,40.9940488 L99.8143893,40.9940488 L99.1526695,39.0102393 L95.4715985,39.0102393 L94.7547155,40.9940488 L92.6457985,40.9940488 L92.6457985,40.9938107 Z M97.2917474,33.5759536 L96.037382,37.3397631 L98.5605033,37.3397631 L97.2917474,33.5759536 L97.2917474,33.5759536 Z" id="Shape" fill="#000000" fill-rule="nonzero"></path>
                        <path d="M102.481656,40.9938083 L102.481656,32.002142 L104.56371,31.0035706 L107.376559,31.0035706 C108.424422,31.0035706 110.877989,32.0433324 110.877989,35.8340466 C110.877989,39.7616655 108.355108,40.9938083 107.39023,40.9938083 L102.481656,40.9938083 L102.481656,40.9938083 Z M106.245951,39.3107135 C107.417572,39.3107135 108.782024,38.7764278 108.769072,35.8338087 C108.755162,33.5073801 107.817386,32.6864277 106.245951,32.6864277 L104.550279,32.6864277 L104.550279,39.3104754 L106.245951,39.3104754 L106.245951,39.3107135 Z" id="Shape" fill="#000000" fill-rule="nonzero"></path>
                        <path d="M110.607689,40.9938107 L113.584828,32.3861916 L116.43869,30.9900011 L119.885197,40.9940488 L117.7758,40.9940488 L117.113601,39.0102393 L113.433249,39.0102393 L112.717086,40.9940488 L110.607689,40.9940488 L110.607689,40.9938107 Z M115.253398,33.5759536 L113.998313,37.3397631 L116.521914,37.3397631 L115.253398,33.5759536 L115.253398,33.5759536 Z" id="Shape" fill="#000000" fill-rule="nonzero"></path>
                        <path d="M75.7073078,14.0030949 C72.4541122,14.0030949 70.9651829,11.5259522 70.8546164,8.77547605 C70.7994531,7.24261895 71.5026653,5.77833328 72.1370432,5.01190473 L75.1700652,3.54785715 C75.3768077,3.54785715 75.501045,3.54785715 75.7075476,3.54785715 C78.960983,3.54785715 80.5607187,6.02499993 80.5607187,8.77571414 C80.5607187,11.5259522 78.960983,14.0030949 75.7073078,14.0030949 L75.7073078,14.0030949 Z M78.6026614,8.77523796 C78.6026614,7.03714279 77.7610613,5.32666666 75.7075476,5.32666666 C73.667465,5.32666666 72.8263446,7.05095231 72.8263446,8.77523796 C72.8263446,10.4995236 73.667465,12.2240474 75.7075476,12.2240474 C77.7610613,12.2242854 78.6026614,10.5135712 78.6026614,8.77523796 L78.6026614,8.77523796 Z" id="Shape" fill="#000000" fill-rule="nonzero"></path>
                        <path d="M51.7182291,13.6747619 L54.6965675,5.06642856 L57.549949,3.67023809 L60.9962161,13.6747619 L58.8870594,13.6747619 L58.2253397,11.6902381 L54.5445087,11.6902381 L53.8276257,13.6747619 L51.7182291,13.6747619 L51.7182291,13.6747619 Z M56.3639381,6.25690477 L55.1098126,10.0204762 L57.632694,10.0204762 L56.3639381,6.25690477 L56.3639381,6.25690477 Z" id="Shape" fill="#000000" fill-rule="nonzero"></path>
                        <path d="M90.3195878,13.6747619 L93.2972067,5.06642856 L96.1513078,3.67023809 L99.5973351,13.6747619 L97.4879385,13.6747619 L96.8262188,11.6902381 L93.1449081,11.6902381 L92.428025,13.6747619 L90.3195878,13.6747619 L90.3195878,13.6747619 Z M94.9650572,6.25690477 L93.7109316,10.0204762 L96.2340529,10.0204762 L94.9650572,6.25690477 L94.9650572,6.25690477 Z" id="Shape" fill="#000000" fill-rule="nonzero"></path>
                    </g>
                </g>
                <text id="Canadian-Imperial-Ba" font-family="Roboto-Regular, Roboto" font-size="10" font-weight="normal" fill="#6F7886">
                    <tspan x="73.4624023" y="87">National Bank</tspan>
                </text>
            </g>
        </g>
    </g>
</svg>