<?xml version="1.0" encoding="UTF-8"?>
<svg width="210px" height="97px" viewBox="0 0 210 97" version="1.1" xmlns="http://www.w3.org/2000/svg" xmlns:xlink="http://www.w3.org/1999/xlink">
    <!-- Generator: sketchtool 54.1 (76490) - https://sketchapp.com -->
    <title>981B9B3D-03FB-4990-9CB0-B52C4F6C7DF2</title>
    <desc>Created with sketchtool.</desc>
    <g id="UI-UX-Screens" stroke="none" stroke-width="1" fill="none" fill-rule="evenodd">
        <g id="Make-a-Payment-See-Online-Banking-and-Interac" transform="translate(-1003.000000, -608.000000)">
            <g id="back-card-copy-2" transform="translate(1004.000000, 609.000000)">
                <rect id="BG" stroke="#DEDEDE" fill="#FFFFFF" stroke-linecap="square" x="0" y="0" width="208" height="95" rx="6"></rect>
                <g id="bank-logo-image" transform="translate(36.000000, 12.000000)" fill-rule="nonzero">
                    <rect id="Back-logo" x="-26.5" y="0" width="188" height="77"></rect>
                    <g id="hsbc-1" transform="translate(1.359043, 15.857143)">
                        <path d="M17.695503,12.7582527 C17.6783138,12.7582527 17.695503,20.6356381 17.695503,20.6356381 C17.695503,21.6262957 16.8308137,22.4910036 15.7000662,22.4910036 L14.6178967,22.4910036 L14.6178967,22.8953687 L23.7871903,22.8953687 L23.7871903,22.4910036 L22.7035261,22.4910036 C21.5892204,22.4910036 20.709584,21.6108282 20.709584,20.6356381 L20.709584,12.6352491 L20.709584,3.08810841 C20.709584,2.12912236 21.5712839,1.23200638 22.7035261,1.23200638 L23.7871903,1.23200638 L23.7871903,0.831324033 L14.6178967,0.831324033 L14.6178967,1.23200638 L15.7000662,1.23200638 C16.8465081,1.23200638 17.695503,2.12912236 17.695503,3.08810841 L17.695503,11.6438549 L6.82971452,11.6438549 L6.82971452,3.08810841 C6.82971452,2.12912236 7.70785616,1.23200638 8.82290922,1.23200638 L9.90507867,1.23200638 L9.90507867,0.831324033 L0.735785157,0.831324033 L0.735785157,1.23200638 L1.82169138,1.23200638 C2.95318624,1.23200638 3.81638079,2.12912236 3.81638079,3.08810841 L3.81638079,20.6363747 C3.81638079,21.6108282 2.95318624,22.4917401 1.82169138,22.4917401 L0.735785157,22.4917401 L0.735785157,22.8961052 L9.90507867,22.8961052 L9.90507867,22.4917401 L8.82290922,22.4917401 C7.70785616,22.4917401 6.82971452,21.6115648 6.82971452,20.6363747 C6.82971452,20.6363747 6.84540896,12.7589892 6.82971452,12.7589892 L17.695503,12.7589892 L17.695503,12.7582527 L17.695503,12.7582527 Z M39.5003206,17.1215656 C39.5810349,18.4178908 38.765671,20.3837385 37.6311867,21.3928099 C36.5430385,22.3591614 34.9945197,23.2025094 32.9221055,23.2025094 C30.5686858,23.2025094 28.5426075,21.9636349 27.8027265,21.6837465 C27.3565558,21.5150769 26.7713771,21.5371734 26.4216152,21.7485628 C26.0143069,21.996043 25.7631958,22.3974619 25.6675344,23.1413758 L25.3230039,23.1413758 L25.3230039,15.4945301 L25.6675344,15.4945301 C25.9821707,17.8478023 27.095729,19.2280941 27.7877794,20.0162009 C28.9185269,21.2985317 31.053719,22.0262415 33.1111862,21.7028968 C34.7449033,21.4414221 36.5340702,19.6943292 36.3360212,17.5296134 C36.2672646,16.7488721 36.0908889,15.615324 34.4452141,14.5517481 C33.4108754,13.8859083 31.9430709,12.9416532 30.5507493,12.0312794 C28.7929713,10.8815273 27.198864,9.63897011 26.7489565,9.13517098 C26.1645252,8.47743324 25.4328651,7.52654922 25.4328651,6.00999601 C25.4328651,4.71146114 25.9335926,3.22510642 27.0030571,2.23518533 C28.0702794,1.24526425 29.5156632,0.502086887 31.5873301,0.502086887 C33.6597444,0.502086887 35.2299364,1.58628617 35.764295,1.83302989 C36.2986535,2.07977361 36.8883163,2.02158629 37.2231311,1.83302989 C37.5542092,1.64594659 37.7739315,1.36532164 37.8688455,0.62730012 L38.2111339,0.62730012 L38.2111339,7.86609805 L37.8688455,7.86609805 C37.5542092,5.51503547 36.5176284,3.75100199 35.7949365,3.09989318 C35.0722446,2.45099402 33.6597444,1.55387804 31.5566886,1.95750658 C29.5373365,2.33977521 28.5553126,3.24057393 28.3684739,4.83299163 C28.2279712,6.04535034 28.8953589,6.79442009 29.2802465,7.24739737 C30.0657162,8.17765803 35.0475819,10.9581283 37.3023507,12.8797832 C38.4659818,13.8711774 39.3770071,15.0481817 39.5003206,17.1215656 L39.5003206,17.1215656 Z M54.0236624,11.6276509 C58.0130412,12.9777441 59.1505149,15.7552682 58.4098865,18.6130761 C57.5407131,21.9783659 53.6925843,22.6633559 52.4437548,22.8268697 C51.8809968,22.8961052 50.4438339,22.8887397 49.0223655,22.8902128 C46.4843493,22.8946321 43.2767033,22.8857935 40.6990774,22.8857935 L40.6990774,22.4814285 L42.0181582,22.4814285 C42.8574374,22.4814285 43.8170407,21.7853902 43.8170407,20.7321259 L43.8170407,3.11757035 C43.8170407,2.0643061 42.8574374,1.35206377 42.0271265,1.35206377 L40.7080456,1.35206377 L40.7080456,0.947698685 L48.667372,0.947698685 C50.5828419,0.947698685 51.6231595,1.13109924 52.2942839,1.26146831 C53.4250314,1.47580391 56.7231072,2.43626305 57.5063348,5.46936947 C58.1139341,7.8182224 56.927135,10.7791471 54.0236624,11.6276509 L54.0236624,11.6276509 Z M46.7989856,11.0104233 C47.8983442,11.2873655 51.1343895,11.3610203 52.3899453,10.5765963 C54.3569826,9.34361419 55.0385699,7.37040096 54.6768503,5.62183499 C54.4586228,4.57372658 53.8943701,3.60442886 52.9235564,2.93343324 C51.0073393,1.60322678 48.245864,1.81682583 46.7997329,2.25065285 L46.7997329,11.0104233 L46.7989856,11.0104233 L46.7989856,11.0104233 Z M46.7989856,21.6461825 C48.3504937,22.1212563 51.3025443,22.482165 53.3607589,21.0311646 C55.8300185,19.2892276 56.3501773,15.0341873 52.8645154,12.81644 C51.4617309,11.9222702 47.9611219,11.9856134 46.7989856,12.2529805 L46.7989856,21.6461825 Z M79.3963509,1.21432921 L79.7207028,8.68955919 L79.2655638,8.7050267 C79.0450942,6.81651654 78.3253917,5.48410044 77.4128718,4.62086568 C77.1483083,4.36896612 76.6520648,3.86443045 75.933857,3.42029175 C74.7395844,2.67711439 72.9601331,2.01937664 70.848109,2.3913336 C67.6778308,2.94816421 66.0433663,5.01491909 65.2302445,7.00286329 C64.2213158,9.44820407 63.5860644,13.6251702 65.2885382,17.1547102 C66.6741336,20.0169374 69.3332213,21.2079362 71.3809729,21.5143404 C73.1297826,21.7802344 77.0018268,21.6999506 79.9568668,17.7712013 L80.4284476,18.0805516 C78.1355637,21.2698063 75.0878516,23.3122551 71.6006951,23.2820566 C67.1442197,23.2400733 64.343882,20.8227214 63.0621689,19.3827692 C61.7102044,17.8669526 60.6758656,14.9885213 60.6624133,12.4791008 C60.6526977,10.2510418 61.1504358,7.7696102 61.9620629,6.31934635 C63.3603634,3.83128577 66.2810251,1.35280032 70.1284066,0.984526106 C73.0072164,0.703901156 74.8987709,1.26220486 76.517541,2.17331527 C77.3291681,2.63071184 77.7813176,2.68300678 78.2222568,2.50034277 C78.6602066,2.31399601 79.0137053,1.9442487 79.0137053,1.21432921 L79.3963509,1.21432921 L79.3963509,1.21432921 Z" id="Shape" fill="#000000"></path>
                        <path d="M87.1015767,11.8729215 L98.2887277,22.8953687 L98.2887277,0.846055002 L87.1015767,11.8729215 Z M98.2887277,22.8953687 L120.66004,22.8953687 L109.475879,11.8729215 L98.2887277,22.8953687 Z M109.475879,11.8729215 L120.66004,0.846055002 L98.2887277,0.846055002 L109.475879,11.8729215 Z M120.663029,0.846055002 L120.663029,22.8953687 L131.847191,11.8729215 L120.663029,0.846055002 Z" id="Shape" fill="#CE3729"></path>
                    </g>
                </g>
                <text id="Canadian-Imperial-Ba" font-family="Roboto-Regular, Roboto" font-size="10" font-weight="normal" fill="#6F7886">
                    <tspan x="91.6020508" y="87">HSBC</tspan>
                </text>
            </g>
        </g>
    </g>
</svg>