<?xml version="1.0" encoding="UTF-8"?>
<svg width="210px" height="97px" viewBox="0 0 210 97" version="1.1" xmlns="http://www.w3.org/2000/svg" xmlns:xlink="http://www.w3.org/1999/xlink">
    <!-- Generator: sketchtool 54.1 (76490) - https://sketchapp.com -->
    <title>52564DF3-CE2E-42F0-A032-81BFF64C1415</title>
    <desc>Created with sketchtool.</desc>
    <g id="UI-UX-Screens" stroke="none" stroke-width="1" fill="none" fill-rule="evenodd">
        <g id="Make-a-Payment-See-Online-Banking-and-Interac" transform="translate(-1003.000000, -493.000000)">
            <g id="back-card-copy-3" transform="translate(1004.000000, 494.000000)">
                <rect id="BG" stroke="#DEDEDE" fill="#FFFFFF" stroke-linecap="square" x="0" y="0" width="208" height="95" rx="6"></rect>
                <g id="bank-logo-image" transform="translate(36.000000, 12.000000)">
                    <rect id="Back-logo" fill-rule="nonzero" x="-26.5" y="0" width="188" height="77"></rect>
                    <g id="desjardins-1" transform="translate(0.000000, 13.571429)" fill="#008C53">
                        <path d="M5.26973674,8.48120281 L5.26973674,18.729323 L14.1513154,23.8533831 L23.032894,18.729323 L23.032894,8.48120281 L14.1513154,3.35714272 L5.26973674,8.48120281 L5.26973674,8.48120281 Z M12.0197365,8.83458636 L13.2631575,8.12781947 L13.9144733,8.42230568 L13.9144733,8.83458636 L13.6184207,9.12907257 L13.6184207,10.6604008 L13.9144733,10.8370926 L12.9078944,11.426065 L12.078947,10.7192981 L12.078947,8.83458636 L12.0197365,8.83458636 Z M17.348684,15.3132828 L16.7565788,15.9022553 L16.5197367,15.9022553 L13.5592103,14.1942352 L13.5592103,12.0739344 L15.0394735,11.0726813 L15.8684209,11.9561399 L15.8684209,12.0739344 L15.2171051,12.3684206 L15.2171051,13.7230573 L17.348684,15.3132828 Z M13.7960527,15.4310777 L11.7828948,16.491228 L11.6052633,16.491228 L11.6052633,15.6077694 L13.0263158,14.9010025 L13.2039474,14.9010025 L13.7960527,15.4310777 L13.7960527,15.4310777 Z M8.11184205,15.4310772 L8.11184205,13.1340848 L11.1907894,11.0726813 L12.0789473,11.9561399 L9.76973678,13.3696738 L9.71052626,15.0187965 L10.1842105,15.5488717 L9.41447363,16.1378442 L8.11184205,15.4310772 L8.11184205,15.4310772 Z M10.7763156,16.9624063 L9.59210504,16.9624063 L9.59210504,16.7268173 L10.7763156,15.9611532 L10.7763156,16.9624063 Z M11.6052633,18.3170426 L11.6052633,17.2568922 L14.6842106,15.6666667 L14.6842106,16.6679198 L11.7828948,18.3170426 L11.6052633,18.3170426 Z M12.9078946,19.3771924 L12.3157893,18.8471172 L14.6842104,17.315789 L14.6842104,18.4348366 L13.2039472,19.3771924 L12.9078946,19.3771924 L12.9078946,19.3771924 Z M17.1710526,8.36340832 L17.1710526,10.5426062 L20.7828948,12.7218041 L20.7828948,15.4310771 L18.5921052,16.7268164 L17.1710526,16.7268164 L17.1710526,18.6115281 L14.9802631,20.0250619 L13.3223683,20.0250619 L13.3223683,19.9072674 L15.4539473,18.3759392 L15.4539473,15.9611523 L16.6973684,16.6679192 L19.0065789,15.1954882 L19.0065789,13.1340848 L15.5131578,10.6604007 L15.5131578,8.59899728 L13.6776314,7.36215523 L15.2763157,7.36215523 L17.1710526,8.36340832 L17.1710526,8.36340832 Z" id="Shape" fill-rule="nonzero"></path>
                        <path d="M0,0 L0,27.622806 L27.828948,27.622806 L27.828948,0 L0,0 Z M24.0394729,19.2593981 L14.1513153,24.9135332 L4.3223683,19.2593981 L4.3223683,7.89223049 L14.2105259,2.23809532 L24.0986834,7.89223049 L24.0986834,19.2593981 L24.0394729,19.2593981 Z" id="Shape_1_" fill-rule="nonzero"></path>
                        <g id="Group" transform="translate(34.934211, 4.711780)">
                            <path d="M5.50657889,16.4323311 C4.26315786,16.4323311 3.01973682,16.3734339 1.77631578,16.3734339 C1.24342104,16.3734339 0.710526313,16.3734339 0.177631582,16.4323311 C0.236842108,15.7255642 0.296052633,15.0187973 0.355263159,14.3120303 C0.592105262,10.9548874 0.592105262,7.36215548 0.414473685,4.06390979 C0.355263159,3.23934837 0.296052633,2.41478695 0.236842108,1.59022553 C0.769736839,1.64912277 1.3618421,1.64912277 1.95394735,1.64912277 C3.4342105,1.64912277 4.91447364,1.59022553 6.39473678,1.59022553 C11.1907894,1.59022553 14.5065788,3.35714286 14.5065788,8.65789486 C14.5065788,14.3120303 10.7763157,16.4323311 5.50657889,16.4323311 Z M5.26973696,2.88596485 C4.79605276,2.88596485 4.26315803,2.88596485 3.78947383,2.9448621 C3.7302633,5.24185467 3.7302633,7.47995 3.7302633,9.77694258 C3.7302633,11.5438599 3.7302633,13.3696746 3.78947383,15.1365919 C4.26315803,15.1954892 4.79605276,15.2543864 5.26973696,15.2543864 C9.35526322,15.2543864 11.0131579,12.7218049 11.0131579,8.89348389 C11.0131579,4.82957395 9.41447374,2.88596485 5.26973696,2.88596485 L5.26973696,2.88596485 Z" id="Combined-Shape" fill-rule="nonzero"></path>
                            <path d="M25.8157898,11.2493736 L19.1250003,11.2493736 C19.1250003,13.3107772 20.1315793,15.3132835 22.4407898,15.3132835 C23.5065793,15.3132835 24.3947372,14.9599001 25.2236845,14.3120304 L25.4605266,14.4887221 L24.9868424,15.7255642 C23.921053,16.4323312 22.6184214,16.7268174 21.3750003,16.7268174 C17.8815793,16.7268174 15.9276319,14.4887221 15.9276319,11.0726819 C15.9276319,7.95112793 18.0000003,5.77192988 21.1973687,5.77192988 C24.2171056,5.77192988 25.8750003,7.59774446 25.8750003,10.6015039 C25.8750003,10.7781957 25.8750003,10.8959902 25.8750003,11.0137847 C25.8750003,11.0726819 25.8750003,11.1904764 25.8157898,11.2493736 Z M21.1973687,6.71428578 C19.4802634,6.71428578 19.1842108,8.71679214 19.1842108,10.0125316 L19.1842108,10.1892233 L22.914474,10.1892233 C22.914474,10.0125316 22.914474,9.83583981 22.914474,9.65914808 C22.8552635,8.5401004 22.6776319,6.71428578 21.1973687,6.71428578 L21.1973687,6.71428578 Z" id="Combined-Shape_1_" fill-rule="nonzero"></path>
                            <path d="M27.4144728,15.8433587 C27.5328939,15.0187973 27.5921044,14.2531331 27.7105255,13.4285717 L28.0065781,13.4285717 C28.4210518,14.7243111 29.3684202,15.666667 30.8486834,15.666667 C31.7960519,15.666667 32.5065782,15.195489 32.5065782,14.1942359 C32.5065782,13.25188 30.7302624,12.6040103 29.9605255,12.2506268 C28.5394729,11.6616544 27.2960518,10.9548874 27.2960518,9.24686733 C27.2960518,6.94987479 29.1315781,5.71303265 31.3223677,5.71303265 C32.4473677,5.71303265 33.5131572,6.06641612 34.4605256,6.59649132 C34.164473,7.24436101 33.9276309,7.95112795 33.8092098,8.65789488 L33.5723677,8.65789488 C33.039473,7.59774448 32.2697361,6.65538857 30.9671045,6.65538857 C30.1381571,6.65538857 29.3684202,7.12656652 29.3684202,8.01002519 C29.3684202,9.01127835 30.4342097,9.30576457 31.2039466,9.60025079 C32.8618414,10.2481205 34.7565783,10.8370929 34.7565783,12.8984965 C34.7565783,15.2543863 32.8618414,16.6090229 30.6118413,16.6090229 C29.4868413,16.7268174 28.3618413,16.4912284 27.4144728,15.8433587 Z" id="Path"></path>
                            <path d="M39.1381567,21.0852132 C38.3684199,21.8508773 37.0657883,22.263158 35.2894725,22.3220553 L35.0526304,21.6152884 C35.9999988,21.5563911 36.5921041,21.2030077 36.9473672,20.555138 C37.3026304,19.9072683 37.480262,18.37594 37.480262,16.0200503 C37.480262,13.4285716 37.480262,11.2493737 37.4210514,9.54135364 C37.3618409,7.83333361 37.3026304,6.714286 37.2434199,6.06641633 C38.2499988,6.18421082 39.3157883,6.12531357 40.3223672,6.06641633 C40.3223672,6.53759427 40.2631567,7.00877221 40.2631567,7.47995015 C40.1447356,10.837093 40.3223672,14.1942358 40.3223672,17.5513786 C40.3223672,19.1416042 39.9078935,20.319549 39.1381567,21.0852132 Z" id="Path_1_"></path>
                            <path d="M37.18421,2.1203007 C37.18421,1.23684209 37.8947363,0.471177953 38.8421047,0.471177953 C39.7894731,0.471177953 40.4999994,1.17794485 40.4999994,2.1203007 C40.4999994,2.53258139 40.3223678,2.94486208 40.0263152,3.29824552 C39.7302626,3.65162897 39.3157889,3.76942345 38.8421047,3.76942345 C37.9539468,3.76942345 37.18421,3.06265656 37.18421,2.1203007 Z" id="Path_2_"></path>
                            <path d="M50.210525,16.6090226 C49.1447355,16.6090226 48.4934197,16.0789474 48.2565776,15.0776943 C47.6052619,16.1378446 46.5394724,16.7268171 45.2960514,16.7268171 C43.4605251,16.7268171 42.3355251,15.5488722 42.3355251,13.7230577 C42.3355251,12.1917294 43.2828935,11.4260652 44.6447356,10.9548873 C45.7697356,10.6015038 47.1315777,10.3070176 48.0789461,9.65914792 C48.0789461,9.54135344 48.0789461,9.42355895 48.0789461,9.30576447 C48.0789461,8.06892237 47.3092092,7.12656648 46.0065777,7.12656648 C44.8815777,7.12656648 44.1118408,7.89223064 43.5789461,8.77568928 C43.4605251,8.30451134 43.2828935,7.8333334 43.1052619,7.36215545 C44.2302619,6.41979957 45.4736829,5.71303265 47.0131566,5.71303265 C49.3815776,5.71303265 51.0986829,6.77318303 51.0986829,9.30576447 L51.0394724,13.546366 C51.0394724,14.4298246 51.1578934,15.018797 51.335525,15.254386 C51.5131566,15.489975 51.9276302,15.6077694 52.460525,15.6077694 L52.5197355,15.6077694 L52.5197355,16.1378446 C51.8092092,16.4323308 51.0394724,16.6090226 50.210525,16.6090226 Z M45.2960514,13.3696743 C45.2960514,14.253133 45.5328935,15.2543862 46.6578935,15.2543862 C47.1315777,15.2543862 47.4868409,15.0776944 47.7828935,14.7243109 C48.0197356,14.3709275 48.1973672,13.8997495 48.1973672,13.2518798 L48.1973672,10.7192983 C46.598683,11.0137845 45.2960514,11.602757 45.2960514,13.3696743 Z" id="Combined-Shape_2_" fill-rule="nonzero"></path>
                            <path d="M58.9144754,8.65789483 C58.203949,8.65789483 57.6710543,8.8934838 57.3750017,9.36466175 C57.0197385,9.8358397 56.9013174,10.6604011 56.9013174,11.7205515 C56.9013174,12.5451129 56.9013174,13.3696743 56.960528,14.1353385 C57.0197385,14.9010026 57.0197385,15.6666668 57.1381596,16.3734337 C56.8421069,16.3145365 56.6052648,16.3145365 56.3092122,16.3145365 C55.4802648,16.2556392 54.7105279,16.3145365 53.9407911,16.3734337 C54.0000016,15.6666668 54.0000016,14.9010026 54.0592121,14.017544 C54.1184227,12.0150377 54.1184227,10.0125314 54.0592121,8.06892239 C54.0592121,7.36215547 54.0000016,6.71428579 53.9407911,6.00751887 C54.8881595,6.12531336 56.0131595,6.12531336 56.960528,6.00751887 C56.9013174,6.53759406 56.9013174,7.1265665 56.9013174,7.65664169 C56.9013174,8.06892239 56.9013174,8.4812031 56.9013174,8.77568932 L57.0197385,8.77568932 C57.2565806,7.77443618 57.6710543,7.00877201 58.2631596,6.47869682 C58.8552649,5.94862163 59.5657912,5.71303265 60.3947386,5.71303265 L60.5131596,5.71303265 C60.335528,6.77318304 60.335528,7.83333342 60.5131596,8.8934838 C59.9210543,8.77568932 59.4473701,8.65789483 58.9144754,8.65789483 Z" id="Path_3_"></path>
                            <path d="M72.0592096,16.4323309 C71.0526307,16.2556392 69.9868412,16.2556392 68.9802622,16.4323309 C68.9802622,16.2556392 68.9802622,16.0789474 68.9802622,15.9022557 C68.9802622,15.6666667 68.9802622,15.3721805 68.9802622,14.9598998 C68.3289464,16.1967419 67.2631569,16.7268171 65.8421043,16.7268171 C62.5263148,16.7268171 61.5197358,14.2531329 61.5197358,11.367168 C61.5197358,8.54010029 62.7631569,5.77192985 66.0197359,5.77192985 C67.2039464,5.77192985 68.1513148,6.2431078 68.9210517,7.1854637 C68.9210517,5.47744364 68.9210517,3.82832082 68.9210517,2.12030076 C68.9210517,1.47243109 68.8618412,0.82456141 68.8618412,0.176691732 C69.9276306,0.294486219 71.0526307,0.294486219 72.1184201,0.176691732 C72.0592096,1.23684211 71.9999991,2.35588974 71.9407886,3.41604012 C71.881578,5.06516293 71.881578,6.71428575 71.881578,8.36340856 C71.881578,10.0125314 71.881578,11.5438597 71.9407886,12.8984963 C71.9999991,14.2531329 71.9999991,15.4310778 72.0592096,16.4323309 Z M66.9671041,7.12656675 C64.8355252,7.12656675 64.7763147,9.95363437 64.7763147,11.4849627 C64.7763147,12.8984965 64.8355252,15.3721807 66.8486831,15.3721807 C67.5592094,15.3721807 68.0921041,15.0187972 68.4473672,14.3120303 C68.8026304,13.6052634 68.980262,12.6040103 68.980262,11.3082709 C68.980262,9.89473713 68.8026304,8.83458677 68.5065778,8.12781986 C68.1513146,7.4799502 67.6776304,7.12656675 66.9671041,7.12656675 L66.9671041,7.12656675 Z" id="Combined-Shape_3_" fill-rule="nonzero"></path>
                            <path d="M77.9210545,16.4323309 C76.8552651,16.3145365 75.7894756,16.3145365 74.6644757,16.4323309 C74.7236862,15.3132833 74.7828967,14.3709274 74.7828967,13.546366 C74.8421072,11.9561404 74.8421072,10.3659148 74.7828967,8.71679199 C74.7828967,7.83333333 74.7236862,6.94987467 74.6644757,6.00751877 C75.7302651,6.12531326 76.8552651,6.12531326 77.9210545,6.00751877 C77.861844,6.89097743 77.861844,7.77443609 77.8026335,8.71679199 C77.7434229,10.3070176 77.7434229,11.8972432 77.8026335,13.546366 C77.8026335,14.3709274 77.861844,15.3132833 77.9210545,16.4323309 Z" id="Path_4_"></path>
                            <path d="M76.3223703,3.76942345 C75.9078967,3.76942345 75.4342125,3.59273173 75.1381599,3.29824552 C74.8421072,3.00375932 74.6644757,2.59147863 74.6644757,2.1203007 C74.6644757,1.17794485 75.375002,0.471177953 76.3223703,0.471177953 C77.2105282,0.471177953 77.980265,1.17794485 77.980265,2.1203007 C77.980265,3.06265656 77.2105282,3.76942345 76.3223703,3.76942345 Z" id="Path_5_"></path>
                            <path d="M87.1578961,14.2531326 C87.2171066,13.3107767 87.2171066,12.3684208 87.2171066,11.4260649 C87.2171066,9.83583932 87.0986856,8.83458618 86.8618435,8.36340823 C86.6250014,7.89223028 86.1513171,7.65664131 85.5000013,7.65664131 C84.8486856,7.65664131 84.3750013,7.95112753 84.0789487,8.48120272 C83.4276329,9.71804483 83.664475,12.0150373 83.664475,13.4285712 C83.664475,14.3120298 83.7236855,15.313283 83.7236855,16.4323306 C82.6578961,16.3145361 81.5921066,16.3145361 80.5855276,16.4323306 C80.6447381,15.4899747 80.7039487,14.5476188 80.7039487,13.7230574 C80.7631592,12.0150373 80.7631592,10.3070173 80.7039487,8.65789445 C80.7039487,7.77443579 80.6447381,6.94987439 80.5855276,6.06641573 C81.5921066,6.18421022 82.539475,6.18421022 83.546054,6.06641573 L83.546054,7.53884682 C84.3750013,6.41979919 85.5000013,5.83082676 86.921054,5.83082676 C88.3421066,5.83082676 89.6447382,6.47869644 90.0000014,7.95112753 C90.1184224,8.36340823 90.177633,9.07017515 90.177633,10.0714283 C90.177633,11.6027566 90.1184224,13.134085 90.177633,14.7243105 C90.177633,15.313283 90.2368435,15.9022554 90.296054,16.4912278 C89.2302645,16.3734333 88.1052645,16.3734333 87.039475,16.4912278 C87.0986856,15.8433582 87.0986856,15.077694 87.1578961,14.2531326 Z" id="Path_6_"></path>
                            <path d="M92.6052648,15.8433587 C92.7236859,15.0187973 92.7828964,14.2531331 92.9013175,13.4285717 L93.1973701,13.4285717 C93.6118438,14.7243111 94.5592122,15.666667 96.0394754,15.666667 C96.9868439,15.666667 97.6973702,15.195489 97.6973702,14.1942359 C97.6973702,13.6052634 96.9868439,13.016291 95.5657912,12.4273185 C94.0263175,11.7794488 92.4868438,11.1904764 92.4868438,9.24686733 C92.4868438,6.94987479 94.3223701,5.71303265 96.5131596,5.71303265 C97.6381597,5.71303265 98.7039492,6.06641612 99.6513176,6.59649132 C99.355265,7.24436101 99.1184229,7.95112795 99.0000018,8.65789488 L98.7631597,8.65789488 C98.2302649,7.59774448 97.4605281,6.65538857 96.1578965,6.65538857 C95.3289491,6.65538857 94.5592122,7.12656652 94.5592122,8.01002519 C94.5592122,9.01127835 95.6250017,9.30576457 96.3947386,9.60025079 C98.0526334,10.2481205 99.9473702,10.8370929 99.9473702,12.8984965 C99.9473702,15.2543863 98.0526334,16.6090229 95.8026333,16.6090229 C94.6776333,16.7268174 93.5526333,16.4912284 92.6052648,15.8433587 Z" id="Path_7_"></path>
                        </g>
                    </g>
                </g>
                <text id="Canadian-Imperial-Ba" font-family="Roboto-Regular, Roboto" font-size="10" font-weight="normal" fill="#6F7886">
                    <tspan x="42.6201172" y="87">Caisse Populaire Desjardins</tspan>
                </text>
            </g>
        </g>
    </g>
</svg>