<?xml version="1.0" encoding="UTF-8"?>
<svg width="210px" height="97px" viewBox="0 0 210 97" version="1.1" xmlns="http://www.w3.org/2000/svg" xmlns:xlink="http://www.w3.org/1999/xlink">
    <!-- Generator: sketchtool 54.1 (76490) - https://sketchapp.com -->
    <title>9C79668D-D42E-494A-AA1E-B0EFD48E448F</title>
    <desc>Created with sketchtool.</desc>
    <defs>
        <polygon id="path-1" points="0 0.147465436 47.2152791 0.147465436 47.2152791 28.5161292 0 28.5161292"></polygon>
    </defs>
    <g id="UI-UX-Screens" stroke="none" stroke-width="1" fill="none" fill-rule="evenodd">
        <g id="Make-a-Payment-See-Online-Banking-and-Interac" transform="translate(-771.000000, -608.000000)">
            <g id="back-card-copy-11" transform="translate(772.000000, 609.000000)">
                <rect id="BG" stroke="#DEDEDE" fill="#FFFFFF" stroke-linecap="square" x="0" y="0" width="208" height="95" rx="6"></rect>
                <g id="bank-logo-image" transform="translate(36.000000, 12.000000)">
                    <rect id="Back-logo" fill-rule="nonzero" x="-26.5" y="0" width="188" height="77"></rect>
                    <g id="Desjardins_Logo_RGB" transform="translate(0.718085, 12.857143)">
                        <g id="Group-4">
                            <mask id="mask-2" fill="white">
                                <use xlink:href="#path-1"></use>
                            </mask>
                            <g id="Clip-2"></g>
                            <path d="M38.7568606,19.5723505 L36.6506618,19.5723505 L36.6506618,9.1649769 L38.9025666,9.1649769 C41.8447067,9.1649769 43.9807939,11.362212 43.9807939,14.3907835 C43.9807939,17.4414748 41.8325646,19.5723505 38.7568606,19.5723505 Z M38.9109728,6.46635941 L33.3881552,6.46451609 L33.3881552,22.2534568 L38.9782217,22.2534568 C43.9826622,22.2534568 47.2152805,19.1649774 47.2152805,14.3861754 C47.2152805,9.64792636 43.8780528,6.46635941 38.9109728,6.46635941 L38.9109728,6.46635941 Z" id="Fill-1" fill="#188353" mask="url(#mask-2)"></path>
                            <path d="M21.568224,9.17695877 L21.568224,19.5410144 L12.4728071,24.723503 L3.37739022,19.5410144 L3.37739022,9.17695877 L12.4728071,3.99539178 L21.568224,9.17695877 Z M0,7.25345625 L0,21.4654379 L12.4728075,28.5714287 L24.946549,21.4654379 L24.946549,7.25345625 L12.4728075,0.147465436 L0,7.25345625 L0,7.25345625 Z" id="Fill-3" fill="#188353" mask="url(#mask-2)"></path>
                        </g>
                        <path d="M107.956004,22.2534565 L110.815951,22.2534565 L110.815951,11.4331801 L107.956004,11.4331801 L107.956004,22.2534565 Z M111.055059,7.87741951 C111.055059,8.78617525 110.30598,9.52442408 109.385978,9.52442408 C108.465975,9.52442408 107.716897,8.78617525 107.716897,7.87741951 C107.716897,6.96958543 108.465975,6.23041494 109.385978,6.23041494 C110.30598,6.23041494 111.055059,6.96958543 111.055059,7.87741951 L111.055059,7.87741951 Z" id="Fill-5" fill="#188353"></path>
                        <path d="M65.6181368,15.5612906 C64.3936461,15.0949311 64.0135029,14.8691247 64.0135029,14.3585256 C64.0135029,13.8737329 64.4076563,13.5852537 65.0680033,13.5852537 C66.1570622,13.5852537 66.9724553,14.1668205 67.6897771,14.8055302 L69.3504518,13.0552997 C68.2838093,11.9216592 66.6997236,11.2470048 65.1016277,11.2470048 C62.7852761,11.2470048 61.1675659,12.5732721 61.1675659,14.4728113 C61.1675659,16.6350233 62.8599971,17.479263 64.5169357,18.0193551 C64.7158805,18.0838713 64.898947,18.1410141 65.0689373,18.1935487 C66.0113562,18.4866363 66.5306673,18.6488482 66.5306673,19.2101386 C66.5306673,19.5244243 66.3578749,20.0516133 65.194095,20.0516133 C64.1162443,20.0516133 63.0533377,19.5364059 62.4686457,18.7336409 L60.7855547,20.4995395 C61.9521367,21.8046087 63.3821102,22.4387101 65.1567345,22.4387101 C67.7738383,22.4387101 69.3999545,21.1861755 69.3999545,19.1695856 C69.3999545,17.1447008 67.971849,16.4552998 65.6181368,15.5612906" id="Fill-6" fill="#188353"></path>
                        <path d="M129.779207,15.5612906 C128.554716,15.0949311 128.173639,14.8691247 128.173639,14.3585256 C128.173639,13.8737329 128.567792,13.5852537 129.228139,13.5852537 C130.317198,13.5852537 131.133526,14.1668205 131.850847,14.8055302 L133.510588,13.0552997 C132.443945,11.9216592 130.85986,11.2470048 129.261764,11.2470048 C126.946346,11.2470048 125.327702,12.5732721 125.327702,14.4728113 C125.327702,16.6350233 127.021067,17.479263 128.677072,18.0193551 C128.876017,18.0838713 129.059083,18.1410141 129.229073,18.1935487 C130.172426,18.4866363 130.690803,18.6488482 130.690803,19.2101386 C130.690803,19.5244243 130.518011,20.0516133 129.355165,20.0516133 C128.277314,20.0516133 127.214408,19.5364059 126.628782,18.7336409 L124.945691,20.4995395 C126.112273,21.8046087 127.542246,22.4387101 129.317805,22.4387101 C131.935843,22.4387101 133.561025,21.1861755 133.561025,19.1695856 C133.561025,17.1447008 132.131985,16.4552998 129.779207,15.5612906" id="Fill-7" fill="#188353"></path>
                        <path d="M71.1073305,26.4543789 C72.9912343,26.4543789 74.2652277,25.1769595 74.2652277,22.6313372 L74.2652277,11.4331801 L71.3959405,11.4331801 L71.3959405,22.5152082 C71.3959405,23.4967751 70.9896449,23.983411 70.3040796,23.983411 C69.972505,23.983411 69.6512046,23.8875585 69.3513865,23.7188949 L68.8694359,26.0746554 C69.5764836,26.3493097 70.1546375,26.4543789 71.1073305,26.4543789 Z M74.501533,7.87741951 C74.501533,8.78617525 73.7533888,9.52442408 72.8324521,9.52442408 C71.9124495,9.52442408 71.1633713,8.78617525 71.1633713,7.87741951 C71.1633713,6.96958543 71.9124495,6.23041494 72.8324521,6.23041494 C73.7533888,6.23041494 74.501533,6.96958543 74.501533,7.87741951 L74.501533,7.87741951 Z" id="Fill-8" fill="#188353"></path>
                        <path d="M82.4284961,18.7216592 C82.4284961,19.2718896 81.2628481,20.146544 79.8814431,20.146544 C79.0286894,20.146544 78.4673477,19.5917053 78.4673477,18.8995394 C78.4673477,18.4479265 78.7223332,17.6119818 80.2036776,17.6119818 C81.2983406,17.6119818 82.4284961,17.949309 82.4284961,17.949309 L82.4284961,18.7216592 Z M83.5605197,12.0341016 C82.7918271,11.5336407 81.7251845,11.2470048 80.6314555,11.2470048 C78.8278767,11.2470048 77.3474664,11.8875578 76.4582862,13.0516131 C76.6525608,13.259908 77.8863918,14.5511523 78.1264331,14.7981569 C78.5766272,14.1788021 79.0053391,13.8580647 79.6385998,13.662673 C79.8749051,13.5889403 80.1336266,13.552074 80.4044903,13.552074 C80.7528771,13.552074 81.1021979,13.6147468 81.3618535,13.7235025 C82.0399468,14.0082952 82.4284961,14.5631339 82.4284961,15.2479265 L82.4284961,15.9529957 C82.349105,15.914286 81.4543208,15.5382491 80.0037988,15.5382491 C77.6949191,15.5382491 75.9539192,17.0433183 75.9539192,19.0377883 C75.9539192,21.0082953 77.4520758,22.4387101 79.5134421,22.4387101 C80.7986438,22.4387101 81.5990927,21.8801847 82.3052064,21.3032262 L82.4284961,21.3032262 L82.4284961,22.2534566 L85.1446054,22.2534566 L85.1446054,15.1778804 C85.1446054,13.7769587 84.6112841,12.7188942 83.5605197,12.0341016 L83.5605197,12.0341016 Z" id="Fill-9" fill="#188353"></path>
                        <path d="M90.4638074,12.6995393 L90.3928225,12.6995393 L90.3928225,11.4322582 L87.4777684,11.4322582 L87.4777684,22.2525345 L90.3928225,22.2525345 L90.3881524,17.3815668 C90.3881524,15.4294932 91.3688659,14.0995393 93.8402638,14.0995393 L93.8402638,11.2470048 C92.3673256,11.2691246 91.1745912,11.7105992 90.4638074,12.6995393" id="Fill-10" fill="#188353"></path>
                        <path d="M99.9767258,19.8857144 C98.4038482,19.8857144 97.1718854,18.5483871 97.1718854,16.8423963 C97.1718854,15.1290321 98.3973102,13.7880182 99.9627156,13.7880182 C101.699979,13.7880182 102.775962,15.3732718 102.775962,16.8423963 C102.775962,18.5207374 101.520649,19.8857144 99.9767258,19.8857144 Z M102.758216,21.3032255 L102.89178,21.3032255 L102.89178,22.2525343 L105.612559,22.2525343 L105.612559,6.46451609 L102.747008,6.46451609 L102.747008,12.3235022 L102.636794,12.3235022 C102.068915,11.6516128 100.723002,11.2470045 99.8104717,11.2470045 C96.3331419,11.2470045 94.4576442,14.1299538 94.4576442,16.8433178 C94.4576442,18.9087555 95.3599006,20.2138246 96.117385,20.9447002 C97.1018345,21.8940089 98.447747,22.4387094 99.8104717,22.4387094 C100.463347,22.4387094 101.501969,22.2460827 102.758216,21.3032255 L102.758216,21.3032255 Z" id="Fill-11" fill="#188353"></path>
                        <path d="M116.128615,12.3179725 L116.018401,12.3179725 L116.018401,11.4322582 L113.15285,11.4322582 L113.15285,22.2525345 L116.018401,22.2525345 L116.018401,16.6221199 C116.018401,14.1345623 117.582873,13.7631338 118.515951,13.7631338 C120.167286,13.7631338 120.755714,15.1161291 120.755714,16.3815669 L120.755714,22.2525345 L123.620331,22.2525345 L123.620331,16.4156682 C123.620331,13.176037 121.865321,11.2470048 118.925049,11.2470048 C116.893571,11.2470048 116.142625,12.2857144 116.128615,12.3179725" id="Fill-12" fill="#188353"></path>
                        <path d="M51.7648595,15.735484 C52.089896,14.4387099 53.042589,13.7244242 54.3203186,13.7244242 C55.5690937,13.7244242 56.4545379,14.41659 56.7758383,15.735484 L51.7648595,15.735484 Z M59.6040291,16.7235026 C59.5853488,13.4884795 57.3764085,11.2470048 54.2203792,11.2470048 C51.06902,11.2470048 48.7825566,13.5963136 48.7825566,16.8322584 C48.7825566,20.1336409 51.1054465,22.4387101 54.4305321,22.4387101 C56.3779488,22.4387101 58.067578,21.7327193 59.0744438,20.4986179 C58.868961,20.2755764 57.5949675,18.9529957 57.3680024,18.7271893 C56.8402852,19.3207377 55.8679778,19.9391709 54.6565632,19.9391709 C53.2051073,19.9391709 52.1085763,19.1308759 51.7536514,17.7428574 L59.5367802,17.7428574 C59.5834808,17.5373275 59.6040291,17.070968 59.6040291,16.7235026 L59.6040291,16.7235026 Z" id="Fill-13" fill="#188353"></path>
                    </g>
                </g>
                <text id="Canadian-Imperial-Ba" font-family="Roboto-Regular, Roboto" font-size="10" font-weight="normal" fill="#6F7886">
                    <tspan x="81.0649414" y="87">Desjardins</tspan>
                </text>
            </g>
        </g>
    </g>
</svg>