<?xml version="1.0" encoding="UTF-8"?>
<svg width="210px" height="97px" viewBox="0 0 210 97" version="1.1" xmlns="http://www.w3.org/2000/svg" xmlns:xlink="http://www.w3.org/1999/xlink">
    <!-- Generator: sketchtool 54.1 (76490) - https://sketchapp.com -->
    <title>D61A69EB-3A46-4814-9783-9A3DFCE794C7</title>
    <desc>Created with sketchtool.</desc>
    <g id="UI-UX-Screens" stroke="none" stroke-width="1" fill="none" fill-rule="evenodd">
        <g id="Make-a-Payment-See-Online-Banking-and-Interac" transform="translate(-307.000000, -608.000000)">
            <g id="back-card-copy-4" transform="translate(308.000000, 609.000000)">
                <rect id="BG" stroke="#DEDEDE" fill="#FFFFFF" stroke-linecap="square" x="0" y="0" width="208" height="95" rx="6"></rect>
                <g id="bank-logo-image" transform="translate(36.000000, 12.000000)">
                    <rect id="Back-logo" fill-rule="nonzero" x="-26.5" y="0" width="188" height="77"></rect>
                    <g id="cibc-1" transform="translate(-13.500000, -10.142857)">
                        <polygon id="Path" fill="#900D35" points="0.896219514 1.93425907 0.896219514 73.8424663 160.881664 73.8424663 160.881664 1.93425907"></polygon>
                        <path d="M30.210074,10.7880622 C29.1313547,10.7880622 28.0144024,10.7457962 26.7964055,10.6658584 L26.6962712,10.6566701 L26.6962712,11.5773333 L26.7854817,11.5837651 C29.0039111,11.6986183 29.0039111,11.810715 29.0039111,13.6382591 L29.0039111,24.9875924 C29.0039111,26.8169741 29.0039111,26.9244767 26.7854817,27.0411675 L26.6962712,27.0485181 L26.6962712,27.9682625 L26.7964055,27.9590743 C27.9325909,27.8795579 29.0711606,27.8397183 30.210074,27.8396269 C31.2660355,27.8396269 32.374795,27.8754611 33.6929262,27.9590743 L33.7912399,27.9682625 L33.7912399,27.0485181 L33.7074912,27.0411675 C31.4899721,26.9244767 31.4899721,26.8160553 31.4899721,24.9875924 L31.4899721,13.6382591 C31.4899721,11.8097962 31.4899721,11.6986183 33.7074912,11.5837651 L33.7912399,11.5773333 L33.7912399,10.6585078 L33.6929262,10.6658584 C32.3766156,10.7485527 31.2687664,10.7880622 30.210074,10.7880622 L30.210074,10.7880622 Z M44.4318723,18.1496926 C46.2361099,17.6516891 47.9793566,16.2899896 47.9793566,14.1831226 C47.9793566,11.9127047 46.4236341,10.6658584 43.5971165,10.6658584 C42.0495868,10.7485527 40.7432896,10.7880622 39.4715843,10.7880622 C38.0983206,10.7833489 36.7254103,10.7426006 35.3542449,10.6658584 L35.2595725,10.6585078 L35.2595725,11.5800898 L35.3469624,11.5837651 C37.0028192,11.6297064 37.390612,11.7142383 37.390612,13.6943074 L37.390612,25.4194404 C37.390612,26.3446978 37.2349487,26.7958411 36.2964174,27.0448428 L36.2299647,27.065057 L36.2299647,27.9691813 L36.3246371,27.9599931 C37.2012932,27.8821226 38.0808569,27.8422701 38.9608995,27.8405458 C39.7428572,27.8405458 40.5976398,27.87638 41.5753145,27.9599931 C43.5980269,28.1327323 45.5715824,27.4693402 46.9907582,26.153582 C48.161419,25.0629361 48.804099,23.657133 48.804099,22.1888497 C48.8031886,19.0823005 46.09046,18.3242694 44.4318723,18.1496926 Z M46.1241416,22.6004836 C46.1241416,25.1199033 44.4928632,26.7517375 41.9713,26.7517375 C41.1256205,26.727848 40.4601827,26.6626114 39.8794039,26.5431641 L39.8794039,18.9490708 L41.413279,18.9490708 C44.626679,18.9490708 46.1241416,20.1095475 46.1241416,22.6004836 Z M41.5079514,17.8602625 C40.8771055,17.8602625 40.3318288,17.8299413 39.8794039,17.7702176 L39.8794039,13.8165112 C39.8794039,13.0924767 39.9130855,12.5421002 39.987731,12.0771744 C40.6021913,11.8722763 41.3231581,11.8281727 41.8256501,11.8281727 C44.2953255,11.8281727 45.394982,12.7047323 45.394982,14.6746943 C45.394982,17.4082003 42.9598984,17.8428048 41.5079514,17.8602625 L41.5079514,17.8602625 Z M65.6384916,25.3257202 L65.5693079,25.3661485 C64.1109887,26.3492919 62.3732038,26.8950743 60.7009614,26.8950743 C55.9500451,26.8950743 52.7603132,23.6056788 52.7603132,18.711095 C52.7603132,14.4054784 55.4448222,11.5084214 59.4356283,11.5084214 C61.2371349,11.5084214 62.4050647,11.9641589 63.3044526,12.4051952 C64.3831719,12.9427081 64.3795306,13.3690432 64.363145,14.3044076 L64.3686069,15.2581485 L64.4578174,15.2517168 L65.2434163,15.2517168 L65.2543401,15.1552401 C65.397259,13.959848 65.5447295,12.7240276 65.7877827,11.5084214 L65.7977961,11.4275648 L65.7167784,11.405513 C63.8233302,10.8542176 61.5885152,10.2955717 59.391023,10.2955717 C54.7038285,10.2955717 49.9583741,13.369962 49.9583741,19.2476891 C49.9583741,25.5177547 54.9377786,28.3302798 59.8743985,28.3302798 C61.3491033,28.3302798 63.8205993,27.7799033 65.4009002,26.8721036 L65.4272993,26.8601589 L65.9489078,25.6730363 L65.6384916,25.3257202 Z M25.0986743,25.3661485 C23.6358035,26.3492919 21.9062115,26.8950743 20.2248659,26.8950743 C15.4766806,26.8950743 12.2896796,23.6056788 12.2896796,18.711095 C12.2896796,14.4054784 14.9714576,11.5084214 18.9649947,11.5084214 C20.7665014,11.5084214 21.9289693,11.9641589 22.8283571,12.4051952 C23.9125383,12.9427081 23.9034352,13.3690432 23.8843186,14.3044076 L23.8952424,15.2581485 L23.9844529,15.2517168 L24.7691415,15.2517168 L24.7782446,15.1726978 C24.9211635,13.9745492 25.071365,12.7286218 25.3089563,11.5084214 L25.3280728,11.4275648 L25.2470551,11.405513 C23.350876,10.8542176 21.1197023,10.2955717 18.9158378,10.2955717 C14.2322846,10.2955717 9.48683018,13.369962 9.48683018,19.2476891 C9.48683018,25.5177547 14.467145,28.3302798 19.4019442,28.3302798 C20.8766491,28.3302798 23.3463245,27.7799033 24.9293563,26.8721036 L24.9539348,26.8601589 L25.4728124,25.6730363 L25.1660374,25.326639 L25.0986743,25.3661485 L25.0986743,25.3661485 Z" id="Shape" fill="#ECB73A" fill-rule="nonzero"></path>
                        <path d="M158.399245,28.9697824 C126.529235,30.2221416 95.682416,33.3470674 67.8068538,38.1883592 C43.425978,42.4213886 21.6140015,47.907696 3.37681865,54.3367185 L3.37681865,60.2089326 C39.6600188,44.5319309 94.9377811,33.5850432 158.399245,30.8138653 L158.399245,28.9697824 Z" id="Path" fill="#FFFFFF"></path>
                        <path d="M158.400155,24.9986183 C98.992309,26.84362 45.2921168,33.7908601 3.37681865,44.1901278 L3.37681865,52.2289326 C21.592154,45.8623903 43.2848797,40.4312124 67.4736798,36.230342 C95.4548381,31.3706736 126.416357,28.2356408 158.400155,26.9823627 L158.400155,24.9986183 L158.400155,24.9986183 Z" id="Path" fill="#ECB73A"></path>
                    </g>
                </g>
                <text id="Canadian-Imperial-Ba" font-family="Roboto-Regular, Roboto" font-size="10" font-weight="normal" fill="#6F7886">
                    <tspan x="20.359375" y="87">Canadian Imperial Bank of Commerce</tspan>
                </text>
            </g>
        </g>
    </g>
</svg>