<?xml version="1.0" encoding="UTF-8"?>
<svg width="210px" height="97px" viewBox="0 0 210 97" version="1.1" xmlns="http://www.w3.org/2000/svg" xmlns:xlink="http://www.w3.org/1999/xlink">
    <!-- Generator: sketchtool 54.1 (76490) - https://sketchapp.com -->
    <title>FA73C7EB-2DE1-41B7-A86E-D59B81867FCF</title>
    <desc>Created with sketchtool.</desc>
    <g id="UI-UX-Screens" stroke="none" stroke-width="1" fill="none" fill-rule="evenodd">
        <g id="Make-a-Payment-See-Online-Banking-and-Interac" transform="translate(-539.000000, -723.000000)">
            <g id="back-card-copy-9" transform="translate(540.000000, 724.000000)">
                <rect id="BG" stroke="#DEDEDE" fill="#FFFFFF" stroke-linecap="square" x="0" y="0" width="208" height="95" rx="6"></rect>
                <g id="bank-logo-image" transform="translate(36.000000, 12.000000)" fill-rule="nonzero">
                    <rect id="Back-logo" x="-26.5" y="0" width="188" height="77"></rect>
                    <g id="presidents-choice-pc-financial-vector-logo" transform="translate(0.000000, 12.142857)">
                        <g id="Group" transform="translate(1.572379, 0.000000)">
                            <rect id="Rectangle" fill="#ED3025" x="19.6772053" y="0.0223437138" width="113.57071" height="29.1138567"></rect>
                            <polyline id="Path" fill="#FFFFFF" points="31.5598994 13.3168528 34.7720458 13.3168528 34.7720458 15.7746613 31.5598994 15.7746613 31.5598994 20.1987164 28.6173038 20.1987164 28.6173038 8.95982879 35.1089842 8.95982879 35.1089842 11.4399809 31.5598994 11.4399809 31.5598994 13.3168528"></polyline>
                            <rect id="Rectangle" fill="#FFFFFF" x="38.5457568" y="8.95982879" width="2.9425957" height="11.2388877"></rect>
                            <polyline id="Path" fill="#FFFFFF" points="47.8227943 8.95982879 53.2138092 15.8416924 53.2138092 15.8416924 53.2138092 8.95982879 56.1564048 8.95982879 56.1564048 20.1987164 53.2138092 20.1987164 47.8452568 13.3168528 47.8227943 13.3168528 47.8227943 20.1987164 44.8801986 20.1987164 44.8801986 8.95982879 47.8227943 8.95982879"></polyline>
                            <path d="M70.3527477,20.1987164 L67.2304517,20.1987164 L66.4891871,18.2324697 L62.445926,18.2324697 L61.6821989,20.1987164 L58.5599029,20.1987164 L62.9176398,8.95982879 L66.1297862,8.95982879 L70.3527477,20.1987164 L70.3527477,20.1987164 Z M64.4900195,12.4231042 L63.2770411,15.9980982 L65.7029978,15.9980982 L64.4900195,12.4231042 L64.4900195,12.4231042 Z" id="Shape" fill="#FFFFFF"></path>
                            <polyline id="Path" fill="#FFFFFF" points="75.6988355 8.95982879 81.0673878 15.8416924 81.112313 15.8416924 81.112313 8.95982879 84.0549086 8.95982879 84.0549086 20.1987164 81.112313 20.1987164 75.7437606 13.3168528 75.6988355 13.3168528 75.6988355 20.1987164 72.7787024 20.1987164 72.7787024 8.95982879 75.6988355 8.95982879"></polyline>
                            <path d="M95.5332783,9.2279536 L95.5332783,12.7359167 C94.9492517,11.931543 93.9608989,11.5070124 92.9500837,11.5070124 C91.1530787,11.5070124 89.9401004,12.869979 89.9401004,14.6127886 C89.9401004,16.4002858 91.1755413,17.6738774 92.9950088,17.6738774 C93.9608989,17.6738774 94.9043265,17.2046595 95.5108157,16.4896606 L95.5108157,19.9976237 C94.6797009,20.3327794 93.8261236,20.5115291 92.9051586,20.5115291 C89.5357743,20.5115291 86.8627295,17.9196583 86.8627295,14.6127886 C86.8627295,11.305919 89.5582369,8.69170447 92.8153083,8.69170447 C93.803661,8.64701704 94.6572384,8.87045418 95.5332783,9.2279536" id="Path" fill="#FFFFFF"></path>
                            <rect id="Rectangle" fill="#FFFFFF" x="98.8577344" y="8.95982879" width="2.9425957" height="11.2388877"></rect>
                            <path d="M115.682193,20.1987164 L112.559897,20.1987164 L111.818633,18.2324697 L107.775372,18.2324697 L107.011645,20.1987164 L103.889348,20.1987164 L108.247085,8.95982879 L111.459232,8.95982879 L115.682193,20.1987164 L115.682193,20.1987164 Z M109.797002,12.4231042 L108.584024,15.9980982 L111.009981,15.9980982 L109.797002,12.4231042 L109.797002,12.4231042 Z" id="Shape" fill="#FFFFFF"></path>
                            <polyline id="Path" fill="#FFFFFF" points="124.240434 17.7185643 124.240434 20.1987164 117.793679 20.1987164 117.793679 8.95982879 120.736275 8.95982879 120.736275 17.7185643 124.240434 17.7185643"></polyline>
                            <rect id="Rectangle" fill="#ED3025" x="0.134775375" y="0.0223437138" width="17.9251252" height="29.1138567"></rect>
                        </g>
                        <g id="Group" transform="translate(0.000000, 5.139054)">
                            <path d="M127.519972,15.0596624 C127.048258,15.0596624 126.711319,14.702163 126.711319,14.232945 C126.711319,13.7413833 127.093183,13.4062277 127.519972,13.4062277 C127.94676,13.4062277 128.328624,13.7190396 128.328624,14.232945 C128.328624,14.7245067 127.94676,15.0596624 127.519972,15.0596624 L127.519972,15.0596624 Z M127.519972,13.5626337 C127.160571,13.5626337 126.89102,13.8531019 126.89102,14.232945 C126.89102,14.6127881 127.138108,14.9032564 127.519972,14.9032564 C127.879373,14.9032564 128.148923,14.6127881 128.148923,14.232945 C128.148923,13.8307582 127.879373,13.5626337 127.519972,13.5626337 Z M127.362734,14.702163 L127.205496,14.702163 L127.205496,13.7860708 L127.542434,13.7860708 C127.76706,13.7860708 127.879373,13.8531019 127.879373,14.0541953 C127.879373,14.2106013 127.76706,14.2776325 127.654747,14.2999762 L127.901835,14.702163 L127.744597,14.702163 L127.519972,14.2999762 L127.362734,14.2999762 L127.362734,14.702163 Z M127.519972,14.1882576 C127.632285,14.1882576 127.744597,14.1659139 127.744597,14.0541953 C127.744597,13.9424768 127.632285,13.9201331 127.542434,13.9201331 L127.362734,13.9201331 L127.362734,14.1882576 L127.519972,14.1882576 L127.519972,14.1882576 Z" id="Shape" fill="#FFFFFF"></path>
                            <path d="M9.74875199,10.2334208 C9.61397661,10.3451394 9.56905149,10.4121705 9.79367711,10.6132639 C11.6356072,12.4231047 12.0848585,14.2106018 12.2196338,14.7691946 C12.4217969,15.595912 12.5341097,16.221536 12.5565723,16.6237229 C12.6014974,17.8079397 11.905158,17.8749708 11.1189683,17.2716906 C10.8943427,17.0929408 10.1306155,16.3332546 9.65890174,15.2831 C9.27703818,14.4787264 8.73793669,12.9593538 8.51331107,11.8421682 C8.42346082,11.3506065 8.28868544,11.4399813 8.15391007,11.3506065 C7.90682189,11.2165442 7.6597337,10.8590448 7.81697164,10.5238891 C7.92928445,10.3227956 8.10898495,10.3227956 7.70465883,10.0546711 C6.31197997,9.07154768 4.04326119,8.26717399 3.63893507,8.13311171 C3.30199664,7.99904943 1.16805323,7.30639431 0.539101492,6.70311404 C-0.20216306,6.01045892 -0.0673876872,5.49655351 0.853577362,4.91561696 C1.99916803,4.17827441 5.1663893,2.6812456 7.59234602,2.10030905 C8.87271206,1.78749706 10.7146422,1.3629665 12.1747087,2.41312104 C13.0956738,1.38531021 14.0615639,0.893748515 14.6006654,0.73734252 C15.0948418,0.603280239 15.4991679,0.714998807 15.7237935,1.00546708 C16.5324458,2.01093419 15.4991679,2.1896839 15.1173043,1.83218448 C14.982529,1.6981222 14.6680531,1.80984077 14.4434275,1.96624677 C13.9717137,2.27905876 13.4101496,2.65890189 12.8935107,3.28452587 C13.4101496,4.37936783 13.7246255,6.39030205 11.4783693,8.69170455 C11.8826954,11.1942005 13.8369383,10.836701 14.3535772,10.7026388 C15.903494,10.2557645 17.9700497,8.53529855 20.216306,6.23389606 C20.9126454,5.51889722 21.7886853,6.21155234 21.0474208,7.01592603 C18.5765389,9.65248423 15.8810315,11.3952939 14.3086521,11.775137 C12.7362728,12.1549801 11.2986688,11.8198244 10.5798668,9.56310938 C10.5798668,9.56310938 10.2204658,9.87592137 9.74875199,10.2334208 L9.74875199,10.2334208 Z M11.5457568,3.28452572 C10.4900164,2.4131209 8.58069863,2.97171373 7.63727103,3.21749458 C6.31197988,3.55265028 4.58236261,4.22296168 4.02079857,4.46874253 C3.43677196,4.71452337 3.00998328,4.96030422 2.53826948,5.20608507 C2.15640593,5.40717849 1.25790345,5.80936533 2.02163056,6.2562396 C2.40349411,6.47967673 2.83028279,6.63608272 3.57154733,6.94889471 C4.357737,7.28405041 5.43593997,7.70858097 5.93011633,7.9320181 C6.33444244,8.11076781 7.32279517,8.57998579 7.72712128,8.84811035 C8.49084839,8.40123608 8.80532425,8.71404807 8.96256219,9.13857862 C9.07487499,9.38435947 9.1871878,9.25029719 9.27703805,9.16092233 C9.56905136,8.91514149 10.0183026,8.53529836 10.2429282,8.28951751 C9.79367698,5.27311621 11.5457568,3.28452572 11.5457568,3.28452572 Z M12.1971716,4.17827444 C11.5906825,4.93796065 11.2088189,6.47967677 11.3211317,7.12764442 C12.4442598,5.87639655 12.1971716,4.17827444 12.1971716,4.17827444 Z M9.56905134,11.8421678 C9.79367696,12.9816972 10.5798667,14.9256002 10.9617302,15.484193 C11.074043,15.6182553 11.9276204,16.6907535 11.1638933,14.2776325 C10.6921795,12.8476349 9.56905134,11.8421678 9.56905134,11.8421678 Z" id="Shape" fill="#ED3025"></path>
                            <path d="M21.2495838,5.51889697 C21.0474207,5.27311613 20.620632,5.22842871 20.2387685,5.63061553 C17.9925123,7.93201791 15.9259566,9.67482748 14.3760398,10.1217017 C13.8594008,10.255764 11.9051579,10.6132634 11.5008318,8.11076761 C13.747088,5.78702152 13.4101496,3.7760874 12.9159732,2.68124549 C13.4326122,2.03327783 14.0166388,1.67577843 14.46589,1.36296646 C14.6905156,1.20656047 15.0049915,1.0724982 15.1397669,1.22890418 C15.544093,1.6087473 16.5549083,1.40765388 15.7462561,0.402186824 C15.5216304,0.111718562 15.1173043,-5.0945026e-11 14.6231279,0.134062275 C14.106489,0.268124549 13.1405988,0.782029935 12.1971712,1.80984071 C10.7371047,0.782029935 8.8951746,1.18421676 7.61480856,1.49702873 C5.16638929,2.07796526 1.99916803,3.55265028 0.85357736,4.28999279 C-0.067387687,4.87092931 -0.20216306,5.3848347 0.539101491,6.07748978 C1.16805323,6.68077002 3.27953407,7.3734251 3.63893507,7.50748738 C4.04326118,7.64154965 6.31197996,8.46826701 7.70465881,9.42904665 C8.10898493,9.6971712 7.92928443,9.67482748 7.81697162,9.89826461 C7.65973369,10.2110766 7.90682187,10.5909197 8.15391005,10.724982 C8.28868543,10.8143568 8.4234608,10.7026383 8.51331105,11.2165436 C8.73793667,12.3337293 9.27703816,13.830758 9.65890172,14.6574754 C10.1530781,15.6852861 10.8943426,16.4673161 11.1189683,16.6460658 C11.8826954,17.249346 12.6014974,17.2046586 12.5565722,15.9980981 C12.5341097,15.5959113 12.4217969,14.9702873 12.2196338,14.14357 C12.0848584,13.5849772 11.6356072,11.8198239 9.79367709,9.98763946 C9.59151403,9.78654604 9.61397659,9.71951491 9.74875197,9.60779635 C10.2204658,9.25029695 10.5798668,8.95982868 10.5798668,8.95982868 C11.2986688,11.2165436 12.7362727,11.5516993 14.3086521,11.1718562 C15.8810314,10.7920131 18.5765389,9.04920353 21.0474207,6.41264547 C21.137271,6.32327062 21.1821961,6.23389577 21.2271212,6.16686463 L21.2495838,5.51889697 L21.2495838,5.51889697 Z M11.1414312,13.6743523 C11.9051584,16.0874732 11.051581,15.0373187 10.9392682,14.8809128 C10.534942,14.3223199 9.74875233,12.3784169 9.54658926,11.2388876 C9.56905183,11.2388876 10.69218,12.2220109 11.1414312,13.6743523 Z M10.2429284,7.64154997 C10.0183027,7.88733081 9.5690515,8.26717394 9.27703819,8.51295479 C9.18718794,8.60232964 9.05241256,8.73639192 8.96256232,8.49061107 C8.80532438,8.08842423 8.49084851,7.75326854 7.72712139,8.2001428 C7.32279527,7.93201824 6.3569051,7.46280026 5.93011641,7.28405056 C5.43594004,7.06061342 4.33527449,6.63608287 3.57154738,6.30092717 C2.83028282,5.98811519 2.40349414,5.80936548 2.02163058,5.60827206 C1.28036603,5.18374151 2.15640595,4.75921095 2.53826951,4.55811754 C3.03244588,4.31233669 3.45923457,4.06655584 4.02079862,3.820775 C4.55990012,3.57499415 6.28951741,2.90468275 7.63727114,2.56952705 C8.58069876,2.32374621 10.5124791,1.78749709 11.545757,2.65890191 C11.545757,2.65890191 9.79367712,4.64749239 10.2429284,7.64154997 Z M11.2986689,6.50202027 C11.1863561,5.85405262 11.5682197,4.33468021 12.1747089,3.55265029 C12.1971715,3.55265029 12.4442596,5.2507724 11.2986689,6.50202027 Z" id="Shape" fill="#FFFFFF"></path>
                        </g>
                    </g>
                </g>
                <text id="Canadian-Imperial-Ba" font-family="Roboto-Regular, Roboto" font-size="10" font-weight="normal" fill="#6F7886">
                    <tspan x="42.3515625" y="87">President's Choice Financial</tspan>
                </text>
            </g>
        </g>
    </g>
</svg>