<?xml version="1.0" encoding="UTF-8"?>
<svg width="210px" height="97px" viewBox="0 0 210 97" version="1.1" xmlns="http://www.w3.org/2000/svg" xmlns:xlink="http://www.w3.org/1999/xlink">
    <!-- Generator: sketchtool 54.1 (76490) - https://sketchapp.com -->
    <title>DF4DAB33-4D47-4FF3-AE52-560538851D9E</title>
    <desc>Created with sketchtool.</desc>
    <g id="UI-UX-Screens" stroke="none" stroke-width="1" fill="none" fill-rule="evenodd">
        <g id="Make-a-Payment-See-Online-Banking-and-Interac" transform="translate(-771.000000, -723.000000)">
            <g id="back-card-copy-12" transform="translate(772.000000, 724.000000)">
                <rect id="BG" stroke="#DEDEDE" fill="#FFFFFF" stroke-linecap="square" x="0" y="0" width="208" height="95" rx="6"></rect>
                <g id="bank-logo-image" transform="translate(36.000000, 12.000000)">
                    <rect id="Back-logo" fill-rule="nonzero" x="-26.5" y="0" width="188" height="77"></rect>
                    <g id="rbc-royal-bank" transform="translate(0.000000, 5.714286)">
                        <g id="Layer_2_9_">
                            <path d="M32.9711534,38.0906601 C32.9711534,39.5109898 32.322115,40.2857151 31.2836534,40.8021986 C26.870192,42.4807701 21.5480766,43.3846162 16.4855767,43.3846162 C11.4230768,43.3846162 6.10096146,42.4807701 1.68749998,40.8021986 C0.519230763,40.4148359 -2.07281001e-15,39.5109898 -2.07281001e-15,38.0906601 L-2.07281001e-15,0.129120882 L33.1009611,0.129120882" id="Path" fill="#005AB4"></path>
                            <path d="M8.69711564,23.2417585 C4.1538462,20.4010992 2.59615382,19.1098904 2.46634612,17.3021981 C2.46634612,16.9148355 2.46634612,16.2692311 2.72596152,15.8818685 L2.33653842,15.6236267 C1.94711533,16.1401102 1.81730763,16.9148355 1.81730763,17.5604399 C1.81730763,18.5934069 2.20673072,19.4972531 2.59615382,20.1428575 C3.24519231,21.1758245 3.8942308,21.692308 5.58173088,22.9835168 C7.39903865,24.2747256 8.56730794,25.953297 9.34615413,27.5027475 L9.60576953,27.5027475 L9.60576953,25.6950552 C12.0721158,27.1153849 14.149039,28.4065937 15.1875006,30.6016486 L15.447116,30.6016486 C14.9278852,28.019231 13.6298082,26.2115387 8.69711564,23.2417585 L8.69711564,23.2417585 Z M29.8557697,30.4725285 L29.5961543,30.4725285 C29.5961543,28.793957 28.038462,28.2774735 26.350962,28.2774735 L21.1586542,28.2774735 C21.2884619,29.0521988 21.4182696,30.0851659 21.2884619,30.989012 L21.0288465,30.989012 C20.5096157,27.1153855 18.4326926,25.3076932 15.3173079,23.241759 L15.3173079,24.9203305 L15.0576925,24.9203305 C14.2788463,23.1126382 12.4615386,21.4340667 10.7740386,20.2719787 C10.3846155,20.0137369 9.86538471,19.6263743 9.34615393,19.2390116 L9.34615393,21.1758249 L9.21634624,21.1758249 C8.43750007,19.3681325 7.13942312,18.0769237 5.32211539,16.3983522 C3.37499997,14.5906598 2.4663461,13.5576928 2.07692302,12.2664839 C1.81730763,11.4917586 1.68749993,10.9752751 1.68749993,10.0714289 C1.68749993,8.65109921 2.4663461,7.35989038 3.37499997,6.84340684 L3.37499997,7.48901126 C2.85576919,8.26373656 2.72596149,8.90934098 2.72596149,9.68406628 C2.72596149,10.4587916 2.85576919,11.2335169 3.24519227,11.8791213 C4.41346152,13.9450554 8.17788468,16.656594 10.5144232,18.2060446 C17.9134618,23.1126382 19.4711541,24.0164843 20.6394234,26.7280229 C20.7692311,26.9862647 20.8990388,27.3736273 21.0288465,27.8901108 C22.067308,27.76099 25.9615389,27.1153855 26.740385,26.9862647 C26.8701927,26.9862647 27.1298081,26.9862647 27.2596158,26.8571438 C27.9086543,26.4697811 28.4278851,25.9532976 28.9471159,25.1785723 L26.0913466,24.9203305 C25.9615389,25.3076932 25.8317312,25.5659349 25.7019235,25.6950558 L25.4423081,25.6950558 C25.5721158,25.4368141 25.5721158,25.1785723 25.7019235,24.7912096 L24.9230773,24.7912096 L24.9230773,24.6620888 L25.7019235,24.5329679 C25.8317312,23.7582426 25.9615389,22.9835173 25.9615389,22.208792 L22.3269234,21.9505502 L22.3269234,22.9835173 L22.067308,22.9835173 C21.9375003,22.5961546 21.9375003,22.208792 21.9375003,21.9505502 L21.1586542,21.9505502 L21.1586542,21.6923084 L21.9375003,21.6923084 C21.8076926,20.7884622 21.8076926,19.8846161 21.8076926,19.1098908 L19.7307695,18.9807699 C19.8605772,19.1098908 19.9903849,19.3681325 19.9903849,19.4972534 C20.379808,20.7884622 20.379808,22.208792 20.2500003,22.8543964 L19.9903849,22.8543964 C19.9903849,22.0796711 19.7307695,21.046704 19.4711541,20.5302205 C18.9519234,19.1098908 17.5240387,17.9478028 15.4471156,16.5274731 L15.4471156,18.2060446 L15.1875002,18.2060446 C14.408654,15.8818687 12.5913463,14.5906598 9.9951924,13.299451 C7.6586539,12.6538466 6.87980773,11.2335169 7.00961542,9.16758274 L7.78846159,9.55494539 C7.91826929,11.4917586 9.47596163,12.6538466 11.1634617,12.6538466 C12.0721155,12.6538466 12.9807694,12.5247257 13.8894233,12.3956048 C15.0576925,12.1373631 16.2259618,11.8791213 17.2644233,12.2664839 L17.2644233,11.104396 L16.4855771,11.104396 C16.2259618,11.3626378 15.706731,11.6208795 14.9278848,11.6208795 C14.0192309,11.6208795 12.3317309,11.104396 12.3317309,9.29670363 C12.3317309,7.74725303 13.6298079,7.48901126 14.7980771,7.48901126 L16.7451925,7.48901126 C17.0048079,7.48901126 17.1346156,7.48901126 17.2644233,7.35989038 C17.394231,7.23076949 17.394231,7.10164861 17.394231,6.97252773 L17.394231,5.03571448 L12.2019232,5.03571448 L12.2019232,7.10164861 L10.3846155,6.19780243 L10.3846155,5.68131889 L11.2932694,5.68131889 L11.2932694,4.90659359 L7.78846159,4.90659359 L7.78846159,3.22802211 L6.62019234,3.22802211 C5.97115386,3.22802211 5.32211539,3.61538476 5.19230769,4.51923094 C5.19230769,5.29395624 5.45192308,6.06868154 6.36057695,6.06868154 L6.49038464,6.06868154 L6.49038464,7.10164861 L6.36057695,7.10164861 C4.9326923,7.10164861 3.76442305,5.93956066 3.76442305,4.51923094 C3.76442305,2.96978034 5.0625,1.80769239 6.62019234,1.80769239 L9.08653854,1.80769239 L9.08653854,3.48626388 L18.8221157,3.48626388 L18.8221157,7.23076949 C18.8221157,7.48901126 18.692308,8.00549479 18.1730772,8.39285744 C17.9134618,8.52197833 17.5240387,8.52197833 16.7451925,8.65109921 L14.9278848,8.65109921 C13.7596156,8.52197833 13.5000002,9.03846186 13.5000002,9.42582451 L13.5000002,9.68406628 C14.0192309,9.29670363 14.7980771,9.03846186 15.5769233,9.29670363 C17.0048079,9.81318716 17.5240387,9.81318716 18.1730772,9.16758274 L18.3028849,9.29670363 C18.1730772,9.42582451 18.0432695,9.55494539 17.9134618,9.81318716 L18.5625003,9.81318716 L18.5625003,13.6868137 L20.7692311,12.3956048 L27.0000004,12.3956048 C27.0000004,12.3956048 29.5961543,13.8159345 30.1153851,13.9450554 C30.5048082,14.2032972 30.6346159,14.3324181 30.7644236,14.7197807 C30.7644236,14.9780225 30.7644236,15.3653851 30.6346159,15.6236269 C30.5048082,15.7527478 29.8557697,16.9148357 29.4663466,17.5604402 C30.5048082,18.7225281 31.2836544,20.2719787 31.2836544,22.0796711 C31.2836544,23.6291217 30.6346159,25.6950558 28.6875005,27.2445064 C29.5961543,27.5027482 30.1153851,28.0192317 30.5048082,28.5357153 L29.8557697,30.4725285 L29.8557697,30.4725285 Z M15.9663458,9.81318656 C15.0576919,9.68406569 14.6682688,9.68406569 14.149038,10.2005492 C14.4086534,10.3296701 14.6682688,10.3296701 15.0576919,10.3296701 C15.447115,10.3296701 15.8365381,10.0714283 15.9663458,9.81318656 L15.9663458,9.81318656 Z M15.4471149,15.3653853 L17.913461,13.9450556 C17.3942303,13.6868138 16.8749995,13.5576929 16.225961,13.5576929 C15.3173072,13.5576929 13.8894226,13.9450556 13.2403841,14.0741765 C13.6298072,14.2032974 14.6682687,14.8489018 15.4471149,15.3653853 L15.4471149,15.3653853 Z M26.4807685,15.4945059 L26.8701916,14.9780224 L26.3509608,14.332418 L26.4807685,14.2032971 L27.9086531,14.9780224 L27.6490377,16.0109894 C27.9086531,16.1401103 28.1682685,16.2692311 28.4278839,16.5274729 L29.3365377,14.9780224 L26.8701916,13.6868136 L21.4182686,13.6868136 L17.0048072,16.398352 C17.7836533,16.9148355 18.5624994,17.5604399 19.2115379,18.2060443 C20.3798071,16.5274729 22.4567301,15.365385 24.5336532,15.365385 C24.9230763,15.2362641 25.7019224,15.2362641 26.4807685,15.4945059 L26.4807685,15.4945059 Z M25.9615382,21.692308 C25.9615382,20.9175827 25.8317305,20.1428574 25.7019228,19.4972531 L22.8461536,19.3681322 C22.5865382,20.2719783 22.4567305,21.0467036 22.4567305,21.9505497 L25.9615382,21.692308 Z M26.9999999,19.6263736 C27.1298076,20.4010989 27.1298076,21.0467033 26.9999999,21.6923077 L29.8557691,21.5631868 C29.7259614,20.9175824 29.5961537,20.271978 29.3365383,19.7554944 L26.9999999,19.6263736 L26.9999999,19.6263736 Z M25.442307,18.593407 C25.1826916,17.56044 24.7932685,16.7857147 24.5336532,16.5274729 L23.4951916,16.5274729 C23.2355763,17.3021982 22.9759609,17.9478026 22.7163455,18.7225279 L25.442307,18.593407 Z M26.350961,16.914835 C26.6105764,17.4313185 26.7403841,18.0769228 26.8701918,18.5934063 L28.6874995,18.4642855 C27.9086534,17.8186811 27.1298072,17.1730767 26.350961,16.914835 L26.350961,16.914835 Z M29.4663474,24.274725 C29.7259628,23.7582415 29.8557705,23.2417579 29.8557705,22.7252744 L26.8701934,22.5961535 C26.7403857,23.3708788 26.4807703,24.1456041 26.2211549,24.7912085 L29.4663474,24.274725 Z M22.1971148,17.0439557 C21.1586533,17.4313183 20.5096148,18.0769227 19.8605763,18.9807689 L21.9374994,18.851648 C21.9374994,17.9478019 22.0673071,17.3021974 22.1971148,17.0439557 Z" id="Shape" fill="#FEDF01" fill-rule="nonzero"></path>
                            <path d="M18.3028843,34.8626369 C19.0817304,34.7335161 19.9903843,34.0879117 19.9903843,33.0549446 C19.9903843,32.1510984 19.6009612,31.2472522 17.0048074,31.2472522 L12.5913459,31.2472522 L12.5913459,31.3763731 C12.7211536,31.3763731 12.980769,31.505494 13.1105767,31.6346149 C13.370192,31.8928567 13.4999997,32.4093402 13.4999997,32.9258237 L13.4999997,39.5109887 L17.1346151,39.5109887 C19.0817304,39.5109887 20.6394227,38.7362634 20.6394227,37.0576919 C20.6394227,35.5082414 19.4711535,34.9917578 18.3028843,34.8626369 L18.3028843,34.8626369 Z M16.4855766,32.0219775 C17.3942304,32.0219775 18.0432689,32.2802192 18.0432689,33.1840654 C18.0432689,34.2170324 17.1346151,34.4752742 16.2259612,34.4752742 L15.4471151,34.4752742 L15.4471151,31.8928566 C15.4471151,32.0219775 15.9663458,32.0219775 16.4855766,32.0219775 Z M16.6153843,38.736263 L15.4471151,38.736263 L15.4471151,35.3791203 L16.6153843,35.3791203 C18.1730767,35.3791203 18.6923074,35.8956038 18.6923074,36.9285708 C18.6923074,38.2197795 17.9134613,38.736263 16.6153843,38.736263 L16.6153843,38.736263 Z M9.34615361,39.5109887 L11.682692,39.5109887 L8.69711516,35.6373622 C9.86538437,35.2499996 10.7740382,34.6043952 10.7740382,33.4423072 C10.7740382,32.0219775 9.86538437,31.2472522 7.65865365,31.2472522 L3.11538452,31.2472522 L3.11538452,31.3763731 C3.2451922,31.3763731 3.50480758,31.505494 3.63461527,31.6346149 C3.89423065,31.8928567 4.02403834,32.4093402 4.02403834,33.0549446 L4.02403834,39.3818678 L5.97115368,39.3818678 L5.97115368,35.7664831 L6.62019213,35.7664831 L9.34615361,39.5109887 L9.34615361,39.5109887 Z M5.97115368,32.0219776 L7.26923064,32.0219776 C8.30769221,32.0219776 8.9567307,32.2802193 8.9567307,33.4423073 C8.9567307,34.4752743 8.17788452,34.9917579 7.00961525,34.9917579 L5.97115368,34.9917579 L5.97115368,32.0219776 Z M28.2980764,32.4093402 C28.8173072,32.6675819 28.9471149,33.0549446 28.9471149,33.0549446 L29.0769226,33.0549446 L29.4663457,31.6346149 C29.4663457,31.6346149 28.6874995,31.1181314 26.9999994,31.1181314 C24.2740378,31.1181314 22.3269223,32.4093402 22.3269223,35.3791204 C22.3269223,38.7362632 24.6634609,39.5109885 26.8701917,39.5109885 C28.8173072,39.5109885 29.5961534,38.8653841 29.5961534,38.8653841 L29.5961534,37.961538 C29.5961534,37.961538 28.9471149,38.6071424 27.3894225,38.6071424 C26.2211533,38.6071424 24.4038455,38.0906588 24.2740378,35.3791204 C24.2740378,32.9258237 25.3124994,32.0219775 26.8701917,32.0219775 C27.6490379,32.0219775 28.038461,32.2802193 28.2980764,32.4093402 L28.2980764,32.4093402 Z" id="Shape" fill="#FFFFFF" fill-rule="nonzero"></path>
                        </g>
                        <path d="M35.5673081,42.7390105 C34.3990389,42.7390105 33.490385,41.8351644 33.490385,40.6730764 C33.490385,39.5109885 34.3990389,38.6071423 35.5673081,38.6071423 C36.7355774,38.6071423 37.6442312,39.5109885 37.6442312,40.6730764 C37.6442312,41.8351644 36.7355774,42.7390105 35.5673081,42.7390105 Z M35.5673081,38.9945057 C34.6586543,38.9945057 34.0096158,39.769231 34.0096158,40.6730771 C34.0096158,41.5769232 34.6586543,42.3516485 35.5673081,42.3516485 C36.475962,42.3516485 37.1250005,41.5769232 37.1250005,40.6730771 C37.2548082,39.769231 36.475962,38.9945057 35.5673081,38.9945057 Z M35.6971157,39.5109885 C36.0865388,39.5109885 36.3461541,39.7692303 36.3461541,40.1565929 C36.3461541,40.5439555 36.0865388,40.8021973 35.8269234,40.8021973 L35.9567311,40.9313182 C36.0865388,41.0604391 36.4759618,41.8351643 36.4759618,41.8351643 L35.9567311,41.8351643 C35.8269234,41.7060435 35.8269234,41.5769226 35.6971157,41.4478017 C35.4375003,41.0604391 35.4375003,40.9313182 35.3076927,40.9313182 L35.177885,40.9313182 L35.177885,41.8351643 L34.7884619,41.8351643 L34.7884619,39.5109885 L35.6971157,39.5109885 L35.6971157,39.5109885 Z M35.4375003,40.4148341 C35.6971157,40.4148341 35.8269234,40.4148341 35.9567311,40.2857132 L35.9567311,40.0274714 C35.9567311,39.8983506 35.9567311,39.7692297 35.8269234,39.7692297 L35.4375003,39.7692297 L35.4375003,40.4148341 L35.4375003,40.4148341 Z M49.4567313,0 L50.4951928,0 L50.4951928,43.2554953 L49.4567313,43.2554953 L49.4567313,0 Z M63.9951913,13.945055 C63.6057683,13.1703297 63.3461529,12.912088 62.9567298,12.1373627 C61.9182683,10.2005495 61.5288453,9.68406599 61.1394222,9.55494511 C61.0096145,9.55494511 60.8798068,9.42582423 60.7499991,9.42582423 L60.7499991,13.945055 L58.6730761,13.945055 L58.6730761,3.22802203 L62.6971145,3.22802203 C64.6442298,3.22802203 65.812499,4.51923082 65.812499,6.32692313 C65.812499,7.87637368 64.7740375,9.29670336 63.3461529,9.29670336 C63.6057683,9.42582423 63.6057683,9.55494511 63.735576,9.68406599 C64.3846144,10.4587913 66.3317297,13.8159341 66.3317297,13.8159341 L63.9951913,13.8159341 L63.9951913,13.945055 L63.9951913,13.945055 Z M62.956732,5.1648353 C62.6971166,5.03571442 62.3076936,5.03571442 61.7884628,5.03571442 L61.0096166,5.03571442 L61.0096166,8.00549473 L61.6586551,8.00549473 C62.5673089,8.00549473 62.956732,7.87637385 63.3461551,7.61813208 C63.6057705,7.35989032 63.7355781,6.97252767 63.7355781,6.58516502 C63.7355781,5.81043972 63.4759628,5.29395619 62.956732,5.1648353 L62.956732,5.1648353 Z M73.6009634,13.0412091 C72.9519249,13.6868135 72.1730787,14.2032971 71.0048094,14.2032971 C68.7980785,14.2032971 67.3701939,12.6538465 67.3701939,10.0714288 C67.3701939,7.61813208 68.7980785,5.93956062 71.0048094,5.93956062 C72.1730787,5.93956062 73.0817326,6.32692326 73.7307711,7.10164856 C74.3798096,7.87637385 74.639425,8.65109914 74.639425,9.94230796 C74.5096173,11.3626377 74.2500019,12.2664838 73.6009634,13.0412091 L73.6009634,13.0412091 Z M71.9134624,7.87637358 C71.653847,7.61813182 71.3942316,7.48901095 71.0048086,7.48901095 C70.4855778,7.48901095 70.0961547,7.7472527 69.966347,8.26373621 C69.8365393,8.65109885 69.7067317,9.29670324 69.7067317,10.0714285 C69.7067317,10.9752746 69.8365393,11.620879 69.966347,12.0082417 C70.0961547,12.3956043 70.6153855,12.6538461 71.0048086,12.6538461 C71.9134624,12.6538461 72.3028855,11.8791208 72.3028855,9.94230763 C72.3028855,8.9093406 72.1730778,8.26373621 71.9134624,7.87637358 Z M80.8701922,6.06868131 L83.0769229,6.06868131 L80.2211537,14.0741756 C79.701923,15.6236262 79.3124999,16.2692305 78.6634614,16.6565932 C78.1442307,17.0439558 77.4951922,17.3021975 76.7163461,17.4313184 L75.9374999,16.1401097 C76.326923,16.0109888 76.9759615,15.8818679 77.2355768,15.6236262 C77.4951922,15.4945053 77.6249999,15.2362635 77.8846153,14.9780218 C78.1442307,14.5906591 78.1442307,14.4615383 78.2740384,14.0741756 L77.7548076,14.0741756 C77.4951922,13.2994504 77.1057692,12.1373625 76.9759615,11.8791207 L75.0288461,6.32692306 L77.1057692,6.06868131 L78.5336538,10.7170329 C78.6634614,11.2335164 78.9230768,12.2664834 78.9230768,12.3956042 L80.8701922,6.06868131 Z M89.826921,14.4615385 C89.3076902,14.2032967 88.9182671,13.9450549 88.6586518,13.5576923 C88.5288441,13.6868131 88.2692287,13.815934 88.139421,13.9450549 C87.7499979,14.2032967 87.2307672,14.3324176 86.5817287,14.3324176 C84.7644211,14.3324176 83.8557673,13.4285714 83.8557673,11.8791208 C83.8557673,10.0714284 85.1538441,9.16758222 87.7499979,9.16758222 L88.2692287,9.16758222 L88.2692287,8.78021957 C88.2692287,7.87637338 88.139421,7.61813162 87.3605749,7.61813162 C86.7115364,7.61813162 85.9326903,8.00549427 85.0240365,8.5219778 L84.1153826,6.9725272 C84.5048057,6.71428543 84.8942288,6.58516455 85.4134595,6.32692278 C86.1923057,5.93956013 86.8413441,5.81043925 87.6201902,5.81043925 C88.9182671,5.81043925 89.826921,6.32692278 90.216344,7.23076897 L90.216344,11.3626372 C90.216344,12.2664834 90.216344,12.6538461 90.9951902,13.1703296 L89.826921,14.4615385 L89.826921,14.4615385 Z M88.0096171,10.5879123 C86.5817324,10.5879123 86.0625016,10.846154 86.0625016,11.7500002 C86.0625016,12.3956046 86.4519247,12.7829673 86.9711555,12.7829673 C87.3605786,12.7829673 87.7500017,12.5247255 88.0096171,12.2664837 L88.0096171,10.5879123 Z M94.4999991,14.203296 C93.5913453,14.203296 92.9423069,13.8159334 92.6826915,13.1703291 C92.5528838,12.7829665 92.5528838,12.5247247 92.5528838,11.3626369 L92.5528838,5.42307674 C92.5528838,4.39010977 92.5528838,3.74450541 92.4230761,3.09890104 L94.4999991,2.58241756 C94.6298068,2.96978017 94.6298068,3.48626366 94.6298068,4.64835151 L94.6298068,10.8461534 C94.6298068,12.266483 94.6298068,12.3956038 94.7596145,12.6538456 C94.8894222,12.7829665 95.0192299,12.9120873 95.1490376,12.9120873 L95.4086529,12.9120873 L95.798076,14.203296 L94.4999991,14.203296 L94.4999991,14.203296 Z M105.663461,13.945055 L100.860576,13.945055 L100.860576,3.22802203 L104.495191,3.22802203 C105.793268,3.22802203 106.442307,3.48626379 107.221153,4.00274731 C107.870191,4.51923082 108.129807,5.16483522 108.129807,5.93956049 C108.129807,6.71428577 107.870191,7.23076929 107.350961,7.7472528 C107.091345,8.00549456 106.83173,8.13461544 106.312499,8.26373632 C107.610576,8.65109896 108.51923,9.55494511 108.51923,10.9752748 C108.389422,12.5247253 107.480768,13.945055 105.663461,13.945055 Z M105.144232,5.1648353 C105.014425,5.03571442 104.754809,5.03571442 104.235579,5.03571442 L102.937502,5.03571442 L102.937502,7.48901112 L104.235579,7.48901112 C104.754809,7.48901112 105.014425,7.48901112 105.144232,7.35989024 C105.533655,7.23076936 105.793271,6.71428585 105.793271,6.32692321 C105.793271,5.81043969 105.533655,5.42307706 105.144232,5.1648353 Z M105.144234,9.42582422 C104.884618,9.29670334 104.754811,9.29670334 104.365387,9.29670334 L103.067311,9.29670334 L103.067311,12.2664836 L104.495195,12.2664836 C104.884618,12.2664836 105.274041,12.2664836 105.533657,12.0082419 C105.92308,11.7500001 106.052888,11.2335166 106.052888,10.7170331 C105.92308,10.0714286 105.663464,9.5549451 105.144234,9.42582422 L105.144234,9.42582422 Z M115.78846,14.4615385 C115.269229,14.2032967 114.879806,13.9450549 114.620191,13.5576923 C114.490383,13.6868131 114.230768,13.815934 114.10096,13.9450549 C113.711537,14.2032967 113.192306,14.3324176 112.543268,14.3324176 C110.72596,14.3324176 109.817306,13.4285714 109.817306,11.8791208 C109.817306,10.0714284 111.115383,9.16758222 113.711537,9.16758222 L114.230768,9.16758222 L114.230768,8.78021957 C114.230768,7.87637338 114.10096,7.61813162 113.322114,7.61813162 C112.673075,7.61813162 111.894229,8.00549427 110.985575,8.5219778 L110.076922,6.9725272 C110.466345,6.71428543 110.855768,6.58516455 111.374998,6.32692278 C112.153845,5.93956013 112.802883,5.81043925 113.581729,5.81043925 C114.879806,5.81043925 115.78846,6.32692278 116.177883,7.23076897 L116.177883,11.3626372 C116.177883,12.2664834 116.177883,12.6538461 116.956729,13.1703296 L115.78846,14.4615385 L115.78846,14.4615385 Z M113.971156,10.5879123 C112.543271,10.5879123 112.024041,10.846154 112.024041,11.7500002 C112.024041,12.3956046 112.413464,12.7829673 112.932694,12.7829673 C113.322117,12.7829673 113.711541,12.5247255 113.971156,12.2664837 L113.971156,10.5879123 Z M122.668268,13.9450548 L122.668268,8.78021985 C122.668268,7.87637373 122.53846,7.61813198 122.019229,7.61813198 C121.629806,7.61813198 121.110575,7.87637373 120.591345,8.39285723 L120.591345,13.9450548 L118.514422,13.9450548 L118.514422,8.26373636 C118.514422,7.61813198 118.384614,6.97252761 118.254806,6.45604411 L120.072114,5.93956062 C120.201922,6.32692324 120.331729,6.58516499 120.331729,6.97252761 C120.591345,6.71428586 120.85096,6.58516499 121.240383,6.32692324 C121.629806,6.06868149 122.149037,5.93956062 122.668268,5.93956062 C123.576922,5.93956062 124.355768,6.45604411 124.615383,7.10164849 C124.745191,7.35989023 124.745191,7.74725286 124.745191,8.26373636 L124.745191,14.0741757 L122.668268,13.9450548 L122.668268,13.9450548 Z M126.951928,13.9450545 L126.951928,5.03571418 C126.951928,4.39010981 126.951928,3.74450544 126.82212,2.96978019 L128.899044,2.4532967 C129.028851,3.09890107 129.028851,4.00274719 129.028851,5.03571418 L129.028851,13.9450545 L126.951928,13.9450545 L126.951928,13.9450545 Z M131.754811,13.945055 L129.028849,9.4258243 L131.105773,5.93956062 L133.572119,5.93956062 L130.975965,9.29670343 L134.09135,13.945055 L131.754811,13.945055 L131.754811,13.945055 Z" id="Shape" fill="#005AB4" fill-rule="nonzero"></path>
                    </g>
                </g>
                <text id="Canadian-Imperial-Ba" font-family="Roboto-Regular, Roboto" font-size="10" font-weight="normal" fill="#6F7886">
                    <tspan x="79.980957" y="87">Royal Bank</tspan>
                </text>
            </g>
        </g>
    </g>
</svg>