<?xml version="1.0" encoding="UTF-8"?>
<svg width="210px" height="97px" viewBox="0 0 210 97" version="1.1" xmlns="http://www.w3.org/2000/svg" xmlns:xlink="http://www.w3.org/1999/xlink">
    <!-- Generator: sketchtool 54.1 (76490) - https://sketchapp.com -->
    <title>71A9103A-2E44-439B-A0FD-A46A6BB13CE3</title>
    <desc>Created with sketchtool.</desc>
    <g id="UI-UX-Screens" stroke="none" stroke-width="1" fill="none" fill-rule="evenodd">
        <g id="Make-a-Payment-See-Online-Banking-and-Interac" transform="translate(-307.000000, -838.000000)">
            <g id="back-card-copy-8" transform="translate(308.000000, 839.000000)">
                <rect id="BG" stroke="#DEDEDE" fill="#FFFFFF" stroke-linecap="square" x="0" y="0" width="208" height="95" rx="6"></rect>
                <g id="bank-logo-image" transform="translate(36.000000, 12.000000)" fill-rule="nonzero">
                    <rect id="Back-logo" x="-26.5" y="0" width="188" height="77"></rect>
                    <g id="vancity-logo-new" transform="translate(0.000000, 7.142857)" fill="#EF2E31">
                        <path d="M17.7875999,3.20674283 C17.8739999,5.92468562 17.2475999,19.0524567 12.1013999,25.4713137 C6.95519996,19.0578281 6.32339997,5.92468562 6.41519997,3.20674283 L0.0594000019,3.20674283 C-0.0377999976,7.56834272 0.863999997,23.156228 9.99539995,30.6762279 C10.1951999,30.8749707 10.4705999,30.9877707 10.7513999,30.9931421 L13.4405999,30.9931421 C13.7267999,30.9931421 14.0021999,30.8803421 14.2019999,30.6762279 C23.3333999,23.1508566 24.2297999,7.56297129 24.1433999,3.20674283 L17.7875999,3.20674283 Z M120.241795,9.30868559 L108.226795,9.30868559 L108.226795,3.13691412 L101.557795,5.00617127 L101.557795,9.30868559 L98.6903948,9.30868559 L98.6903948,13.374857 L101.557795,13.374857 L101.557795,24.9986286 C101.557795,28.6888 103.615195,31.4550858 108.491395,31.4550858 C110.645995,31.4550858 112.611595,30.9662857 113.680795,30.2089143 L112.341595,26.4220571 C111.806995,26.7819429 110.959195,26.9592 110.327395,26.9592 C109.209595,26.9592 108.226795,26.5617143 108.226795,24.5528 L108.226795,13.374857 L114.064195,13.374857 C115.079395,20.6746285 118.389595,26.4435429 122.833795,29.6073143 C121.445995,32.4649143 118.627195,34.9142858 115.667995,35.9832001 L117.547195,40.6993144 C128.471395,36.2034286 134.065795,21.6038857 134.962195,9.30868559 L128.471395,9.30868559 C128.244595,16.1679999 127.083595,21.1150857 125.247595,25.0738286 C122.250595,22.0443428 120.457795,16.1250285 120.241795,9.30868559 L120.241795,9.30868559 Z M92.458802,0 C90.4446021,0 88.6950021,1.28914286 88.6950021,3.29805715 C88.6950021,5.30697144 90.4446021,6.59611429 92.458802,6.59611429 C94.473002,6.59611429 96.217202,5.30697144 96.217202,3.29805715 C96.217202,1.28914286 94.478402,0 92.458802,0 L92.458802,0 Z M89.1432026,31.0522277 L95.7744026,31.0522277 L95.7744026,9.31405681 L89.1432026,9.31405681 L89.1432026,31.0522277 Z M89.1432026,31.0522277 L95.7744026,31.0522277 L95.7744026,9.31405681 L89.1432026,9.31405681 L89.1432026,31.0522277 Z M37.7298012,26.6422855 C37.7352012,26.9162283 37.5786012,27.1633141 37.3248012,27.2653712 C36.9198012,27.4426283 36.2502012,27.5339426 35.3106012,27.5339426 C32.7078011,27.5339426 31.503601,26.3307426 31.503601,24.456114 C31.503601,22.0013711 33.4314011,20.5349711 37.7298012,20.4060568 L37.7298012,26.6422855 Z M35.0406,8.91119971 C32.0652001,8.90045685 29.1114002,9.45908543 26.3466002,10.5602283 L27.6912002,14.1698283 C29.3490001,13.4607997 31.4982001,12.8323426 33.6906,12.8323426 C36.1097999,12.8323426 37.7243999,13.4983997 37.7243999,15.8188569 L37.7243999,16.7534855 C29.9754001,17.1993141 24.8184003,19.0685712 24.8184003,24.5957713 C24.8184003,29.1775999 28.3608002,31.4550856 35.2566,31.4550856 C38.3507999,31.4550856 42.4223997,30.8319999 43.8101997,29.9833142 C44.0801997,29.806057 44.3447997,29.6341713 44.3447997,29.0057142 L44.3447997,16.4419426 C44.3555997,12.0266283 41.8499998,8.91119971 35.0406,8.91119971 L35.0406,8.91119971 Z M82.6848016,27.0021715 C79.5042017,27.0021715 77.0850018,24.5581715 77.0850018,20.3254858 C77.0850018,16.0981715 79.3692017,13.3748572 82.3662016,13.3748572 C83.2140016,13.3748572 83.9322016,13.5091429 84.8772016,13.8636572 L86.3082016,9.94251434 C84.9204016,9.23348577 83.3976016,8.91657148 81.3834017,8.91657148 C74.8440018,8.91657148 70.4160019,13.3265143 70.4160019,20.4973715 C70.4160019,27.6682287 75.1140018,31.4497144 81.5130017,31.4497144 C83.7054016,31.4497144 85.2282016,31.1381715 86.6160015,30.429143 L85.1850016,26.5080001 C84.3912016,26.8356572 83.5434016,27.0021715 82.6848016,27.0021715 L82.6848016,27.0021715 Z M57.6017977,8.92194271 C54.1565978,8.92194271 50.6627979,9.50205699 48.697198,10.3507427 C48.205798,10.5763427 47.978998,10.7482284 47.978998,11.2853713 L47.978998,31.0575996 L54.6101978,31.0575996 L54.6101978,13.5091427 C54.6101978,13.3748569 54.6533978,13.3318855 54.8747978,13.2405712 C55.2851978,13.111657 56.3057978,12.8430855 57.4775977,12.8430855 C60.2045976,12.8430855 60.8795976,14.3631998 60.8795976,15.9585141 L60.8795976,31.0522282 L67.4999974,31.0522282 L67.4999974,16.5815998 C67.4999974,15.1635426 67.4027974,14.3148569 67.1813974,13.6434284 C66.2849975,10.8395427 63.5093975,8.92194271 57.6017977,8.92194271 L57.6017977,8.92194271 Z" id="Shape"></path>
                    </g>
                </g>
                <text id="Canadian-Imperial-Ba" font-family="Roboto-Regular, Roboto" font-size="10" font-weight="normal" fill="#6F7886">
                    <tspan x="24.1118164" y="87">Vancouver City Savings Credit Union</tspan>
                </text>
            </g>
        </g>
    </g>
</svg>