<?xml version="1.0" encoding="UTF-8"?>
<svg width="210px" height="97px" viewBox="0 0 210 97" version="1.1" xmlns="http://www.w3.org/2000/svg" xmlns:xlink="http://www.w3.org/1999/xlink">
    <!-- Generator: sketchtool 54.1 (76490) - https://sketchapp.com -->
    <title>D09CAFFE-087D-48E8-8239-FBD70588CBF5</title>
    <desc>Created with sketchtool.</desc>
    <g id="UI-UX-Screens" stroke="none" stroke-width="1" fill="none" fill-rule="evenodd">
        <g id="Make-a-Payment-See-Online-Banking-and-Interac" transform="translate(-539.000000, -493.000000)">
            <g id="back-card-copy" transform="translate(540.000000, 494.000000)">
                <rect id="BG" stroke="#DEDEDE" fill="#FFFFFF" stroke-linecap="square" x="0" y="0" width="208" height="95" rx="6"></rect>
                <g id="bank-logo-image" transform="translate(36.000000, 12.000000)">
                    <rect id="Back-logo" fill-rule="nonzero" x="-26.5" y="0" width="188" height="77"></rect>
                    <g id="bmo-harris-bank-1" transform="translate(20.106383, 7.857143)">
                        <path d="M9.26541232,17.40969 C9.26541232,19.0736249 8.53770847,19.9980332 6.63132936,19.9980332 L5.0221814,19.9980332 L5.0221814,14.9035164 C5.2271684,14.882974 5.92412421,14.8624316 6.12911121,14.8624316 L6.69282546,14.8624316 C8.62995262,14.8624316 9.26541232,15.7354839 9.26541232,17.40969 M13.1601651,23.7572938 C13.1601651,21.2511202 11.1205445,20.3472543 8.65045117,20.2958983 L8.65045117,20.2034574 C10.7515679,20.0391182 12.483708,19.1455235 12.483708,17.0193844 C12.483708,14.6570076 10.5260822,14.2050746 8.34297068,14.2050746 C5.71913715,14.2050746 2.62383353,14.276973 0.0102493497,14.2050746 L0.0102493497,14.8624316 C0.573963585,14.8213468 1.90637905,14.9035164 1.90637905,15.6019583 L1.90637905,26.0066874 C1.90637905,26.6845868 0.522716836,26.79757 0.0102493497,26.79757 L0.0102493497,27.4446559 C2.55208808,27.3727574 5.55514755,27.4446559 8.09698629,27.4446559 C10.7618172,27.4343846 13.1601651,26.5099763 13.1601651,23.7572938 M9.79837844,23.5313275 C9.79837844,25.6882802 9.08092395,26.7154006 6.58008258,26.7154006 L5.0221814,26.7154006 L5.0221814,20.6862041 L6.68257608,20.6862041 C8.95793175,20.6862041 9.79837844,21.4976292 9.79837844,23.5313275 M30.1125897,27.4138418 C28.9339145,27.4138418 27.7654886,27.3932994 26.5868134,27.4343842 L26.5868134,26.7770272 C27.1197796,26.7770272 28.6059353,26.7359424 28.6059353,26.006687 L28.6059353,16.3209424 L28.5649379,16.3209424 L23.1635307,27.5884522 L22.6100658,27.5884522 L17.3521495,16.3209424 L17.3111521,16.3209424 L17.3111521,26.006687 C17.3111521,26.7564848 18.8588039,26.7770272 19.4122688,26.7770272 L19.4327675,27.4343842 C17.9671105,27.372757 15.958238,27.3419434 14.5130797,27.4343842 L14.5130797,26.7770272 C15.076794,26.7770272 16.4092094,26.7256712 16.4092094,26.006687 L16.4092094,15.6122294 C16.4092094,14.9137876 15.0255472,14.8624316 14.5130797,14.8624316 L14.492581,14.2050746 C16.163225,14.276973 17.9568612,14.276973 19.6377545,14.2050746 L24.1372189,23.6545814 L28.7084288,14.225617 C30.3175767,14.2975154 32.0497167,14.276973 33.6588646,14.2050746 L33.6588646,14.8624316 C33.1258984,14.8624316 31.7217375,14.9035164 31.7217375,15.6122294 L31.7217375,25.9964158 C31.7217375,26.7256712 33.1053997,26.766756 33.6588646,26.766756 L33.6588646,27.424113 C32.4801894,27.3932994 31.2810155,27.4138418 30.1125897,27.4138418 M46.0503285,20.7889163 C46.0503285,23.3669884 45.8043441,26.972181 42.0735807,26.972181 C38.3428172,26.972181 38.0763341,23.3772596 38.0763341,20.7889163 C38.0763341,18.2108441 38.3428172,14.6261939 42.0735807,14.6261939 C45.7838454,14.6364651 46.0503285,18.2313865 46.0503285,20.7889163 M49.5351077,20.788916 C49.5351077,16.4133834 46.8702766,13.9688369 42.0633313,13.9688369 C37.256386,13.9688369 34.5710563,16.4031122 34.5710563,20.788916 C34.5710563,25.1747199 37.2358873,27.6295376 42.0633313,27.6295376 C46.8907753,27.6295376 49.5351077,25.1849911 49.5351077,20.788916" id="Shape" fill="#0079C1" fill-rule="nonzero"></path>
                        <path d="M76.6753882,0 C66.1493062,0 57.611598,8.55591257 57.611598,19.0941674 C57.611598,29.6426935 66.1493062,38.1883349 76.6651388,38.1883349 C87.1912209,38.1883349 95.7289291,29.6426935 95.7289291,19.0941674 C95.7289291,8.55591257 87.2014702,0 76.6753882,0" id="Path" fill="#ED1C24"></path>
                        <path d="M67.6764588,21.7030525 L85.6640683,21.7030525 L85.6640683,27.4241127 L67.6764588,27.4241127 L67.6764588,21.7030525 Z M76.0911748,13.2703949 L72.7806348,8.94621839 C72.5346505,8.61753989 72.0734297,8.55591267 71.7556999,8.80242155 C71.7044531,8.84350636 71.6634557,8.88459117 71.6224583,8.93594718 L67.6867081,13.9072094 L67.6867081,21.7030525 L71.6019596,16.670163 C71.8581934,16.3414846 72.3399128,16.2798573 72.667892,16.5469086 C72.7191388,16.5879934 72.7601362,16.6290782 72.8011335,16.6804343 L76.1219228,21.0354243 C76.244915,21.1997636 76.449902,21.3127468 76.6753877,21.3127468 C76.9008734,21.3127468 77.095611,21.1997636 77.2288526,21.0354243 L80.5496418,16.6804343 C80.8058756,16.3414846 81.287595,16.2798573 81.6155742,16.5366374 C81.6668209,16.5777222 81.7078183,16.618807 81.7488157,16.670163 L85.6640673,21.7030525 L85.6640673,13.9072094 L81.728317,8.93594718 C81.4720833,8.61753989 81.0108626,8.56618388 80.6931327,8.81269275 C80.641886,8.85377756 80.6008886,8.89486237 80.5598912,8.94621839 L77.2493513,13.2703949 C77.0033669,13.5888021 76.5421461,13.6504294 76.214167,13.4039205 C76.1731696,13.3628357 76.1321722,13.3217509 76.0911748,13.2703949 L76.0911748,13.2703949 Z" id="Shape" fill="#FFFFFF" fill-rule="nonzero"></path>
                    </g>
                </g>
                <text id="Canadian-Imperial-Ba" font-family="Roboto-Regular, Roboto" font-size="10" font-weight="normal" fill="#6F7886">
                    <tspan x="66.4750977" y="87">Bank of Montreal</tspan>
                </text>
            </g>
        </g>
    </g>
</svg>