<svg xmlns="http://www.w3.org/2000/svg" width="18" height="18" viewBox="0 0 18 18">
  <path fill="#404DDC" fill-rule="evenodd" d="M19.875,4.6875 C20.1914078,4.6875 20.4580067,4.79589735 20.6748047,5.01269531 C20.8916026,5.22949327 21,5.49609217 21,5.8125 L21,19.875 C21,20.179689 20.8916026,20.4433583 20.6748047,20.6660156 C20.4580067,20.888673 20.1914078,21 19.875,21 L4.125,21 C3.80859217,21 3.54199327,20.888673 3.32519531,20.6660156 C3.10839735,20.4433583 3,20.179689 3,19.875 L3,5.8125 C3,5.49609217 3.10839735,5.22949327 3.32519531,5.01269531 C3.54199327,4.79589735 3.80859217,4.6875 4.125,4.6875 L8.625,4.6875 L8.625,3.5625 C8.625,3.41015549 8.68066351,3.27832087 8.79199219,3.16699219 C8.90332087,3.05566351 9.03515549,3 9.1875,3 C9.33984451,3 9.47167913,3.05566351 9.58300781,3.16699219 C9.69433649,3.27832087 9.75,3.41015549 9.75,3.5625 L9.75,4.6875 L14.25,4.6875 L14.25,3.5625 C14.25,3.41015549 14.3056635,3.27832087 14.4169922,3.16699219 C14.5283209,3.05566351 14.6601555,3 14.8125,3 C14.9648445,3 15.0966791,3.05566351 15.2080078,3.16699219 C15.3193365,3.27832087 15.375,3.41015549 15.375,3.5625 L15.375,4.6875 L19.875,4.6875 Z M19.875,19.875 L19.875,5.8125 L15.375,5.8125 L15.375,6.375 C15.375,6.52734451 15.3193365,6.65917913 15.2080078,6.77050781 C15.0966791,6.88183649 14.9648445,6.9375 14.8125,6.9375 C14.6601555,6.9375 14.5283209,6.88183649 14.4169922,6.77050781 C14.3056635,6.65917913 14.25,6.52734451 14.25,6.375 L14.25,5.8125 L9.75,5.8125 L9.75,6.375 C9.75,6.52734451 9.69433649,6.65917913 9.58300781,6.77050781 C9.47167913,6.88183649 9.33984451,6.9375 9.1875,6.9375 C9.03515549,6.9375 8.90332087,6.88183649 8.79199219,6.77050781 C8.68066351,6.65917913 8.625,6.52734451 8.625,6.375 L8.625,5.8125 L4.125,5.8125 L4.125,19.875 L19.875,19.875 Z M15.9375,12 C15.7851555,12 15.6533209,11.9443365 15.5419922,11.8330078 C15.4306635,11.7216791 15.375,11.5898445 15.375,11.4375 L15.375,10.3125 C15.375,10.1601555 15.4306635,10.0283209 15.5419922,9.91699219 C15.6533209,9.80566351 15.7851555,9.75 15.9375,9.75 L17.0625,9.75 C17.2148445,9.75 17.3466791,9.80566351 17.4580078,9.91699219 C17.5693365,10.0283209 17.625,10.1601555 17.625,10.3125 L17.625,11.4375 C17.625,11.5898445 17.5693365,11.7216791 17.4580078,11.8330078 C17.3466791,11.9443365 17.2148445,12 17.0625,12 L15.9375,12 Z M15.9375,16.5 C15.7851555,16.5 15.6533209,16.4443365 15.5419922,16.3330078 C15.4306635,16.2216791 15.375,16.0898445 15.375,15.9375 L15.375,14.8125 C15.375,14.6601555 15.4306635,14.5283209 15.5419922,14.4169922 C15.6533209,14.3056635 15.7851555,14.25 15.9375,14.25 L17.0625,14.25 C17.2148445,14.25 17.3466791,14.3056635 17.4580078,14.4169922 C17.5693365,14.5283209 17.625,14.6601555 17.625,14.8125 L17.625,15.9375 C17.625,16.0898445 17.5693365,16.2216791 17.4580078,16.3330078 C17.3466791,16.4443365 17.2148445,16.5 17.0625,16.5 L15.9375,16.5 Z M12.5625,14.25 C12.7148445,14.25 12.8466791,14.3056635 12.9580078,14.4169922 C13.0693365,14.5283209 13.125,14.6601555 13.125,14.8125 L13.125,15.9375 C13.125,16.0898445 13.0693365,16.2216791 12.9580078,16.3330078 C12.8466791,16.4443365 12.7148445,16.5 12.5625,16.5 L11.4375,16.5 C11.2851555,16.5 11.1533209,16.4443365 11.0419922,16.3330078 C10.9306635,16.2216791 10.875,16.0898445 10.875,15.9375 L10.875,14.8125 C10.875,14.6601555 10.9306635,14.5283209 11.0419922,14.4169922 C11.1533209,14.3056635 11.2851555,14.25 11.4375,14.25 L12.5625,14.25 Z M12.5625,9.75 C12.7148445,9.75 12.8466791,9.80566351 12.9580078,9.91699219 C13.0693365,10.0283209 13.125,10.1601555 13.125,10.3125 L13.125,11.4375 C13.125,11.5898445 13.0693365,11.7216791 12.9580078,11.8330078 C12.8466791,11.9443365 12.7148445,12 12.5625,12 L11.4375,12 C11.2851555,12 11.1533209,11.9443365 11.0419922,11.8330078 C10.9306635,11.7216791 10.875,11.5898445 10.875,11.4375 L10.875,10.3125 C10.875,10.1601555 10.9306635,10.0283209 11.0419922,9.91699219 C11.1533209,9.80566351 11.2851555,9.75 11.4375,9.75 L12.5625,9.75 Z M8.0625,9.75 C8.21484451,9.75 8.34667913,9.80566351 8.45800781,9.91699219 C8.56933649,10.0283209 8.625,10.1601555 8.625,10.3125 L8.625,11.4375 C8.625,11.5898445 8.56933649,11.7216791 8.45800781,11.8330078 C8.34667913,11.9443365 8.21484451,12 8.0625,12 L6.9375,12 C6.78515549,12 6.65332087,11.9443365 6.54199219,11.8330078 C6.43066351,11.7216791 6.375,11.5898445 6.375,11.4375 L6.375,10.3125 C6.375,10.1601555 6.43066351,10.0283209 6.54199219,9.91699219 C6.65332087,9.80566351 6.78515549,9.75 6.9375,9.75 L8.0625,9.75 Z M8.0625,14.25 C8.21484451,14.25 8.34667913,14.3056635 8.45800781,14.4169922 C8.56933649,14.5283209 8.625,14.6601555 8.625,14.8125 L8.625,15.9375 C8.625,16.0898445 8.56933649,16.2216791 8.45800781,16.3330078 C8.34667913,16.4443365 8.21484451,16.5 8.0625,16.5 L6.9375,16.5 C6.78515549,16.5 6.65332087,16.4443365 6.54199219,16.3330078 C6.43066351,16.2216791 6.375,16.0898445 6.375,15.9375 L6.375,14.8125 C6.375,14.6601555 6.43066351,14.5283209 6.54199219,14.4169922 C6.65332087,14.3056635 6.78515549,14.25 6.9375,14.25 L8.0625,14.25 Z" transform="translate(-3 -3)"/>
</svg>
