<svg xmlns="http://www.w3.org/2000/svg" width="12" height="12" viewBox="0 0 12 12">
  <path d="M12.984375,12.3027344 L17.4492188,16.7851562 C17.5898445,16.9140631 17.6601562,17.0751943 17.6601562,17.2685547 C17.6601562,17.461915 17.5927741,17.6259759 17.4580078,17.7607422 C17.3232415,17.8955085 17.1591807,17.9628906 16.9658203,17.9628906 C16.77246,17.9628906 16.6113288,17.8925788 16.4824219,17.7519531 L12,13.2695312 L7.51757812,17.7519531 C7.38867123,17.8925788 7.22754003,17.9628906 7.03417969,17.9628906 C6.84081935,17.9628906 6.67675849,17.8955085 6.54199219,17.7607422 C6.40722589,17.6259759 6.33984375,17.461915 6.33984375,17.2685547 C6.33984375,17.0751943 6.41015555,16.9140631 6.55078125,16.7851562 L11.015625,12.3027344 L6.55078125,7.8203125 C6.41015555,7.69140561 6.33984375,7.5302744 6.33984375,7.33691406 C6.33984375,7.14355372 6.40722589,6.97949286 6.54199219,6.84472656 C6.67675849,6.70996026 6.84081935,6.64257812 7.03417969,6.64257812 C7.22754003,6.64257812 7.38867123,6.71288992 7.51757812,6.85351562 L12,11.3183594 L16.4824219,6.85351562 C16.6113288,6.71288992 16.77246,6.64257812 16.9658203,6.64257812 C17.1591807,6.64257812 17.3232415,6.70996026 17.4580078,6.84472656 C17.5927741,6.97949286 17.6601562,7.14355372 17.6601562,7.33691406 C17.6601562,7.5302744 17.5898445,7.69140561 17.4492188,7.8203125 L12.984375,12.3027344 Z" transform="translate(-6 -6)"/>
</svg>
