<?xml version="1.0" encoding="UTF-8"?>
<svg width="18px" height="19px" viewBox="0 0 18 19" version="1.1" xmlns="http://www.w3.org/2000/svg" xmlns:xlink="http://www.w3.org/1999/xlink">
    <g id="UI-UX-Screens" stroke="none" stroke-width="1" fill="none" fill-rule="evenodd" fill-opacity="0.798545063">
        <g id="#3-Account-Edit-Profile" transform="translate(-1202.000000, -587.000000)" fill="#6F7886" fill-rule="nonzero">
            <g id="Page-dividor-Copy-4" transform="translate(284.000000, 577.000000)">
                <g id="icon/user" transform="translate(915.000000, 7.000000)">
                    <path d="M19.9453125,4.00390625 C20.2968768,4.33203289 20.560546,4.6748029 20.7363281,5.03222656 C20.9121103,5.38965022 21.0058593,5.74999818 21.0175781,6.11328125 C21.0292969,6.50000193 20.9472665,6.87792784 20.7714844,7.24707031 C20.5957022,7.61621278 20.3378923,7.97656074 19.9980469,8.328125 C19.8339836,8.50390713 19.1777401,9.16015057 18.0292969,10.296875 C16.8808536,11.4335994 15.6416082,12.6611262 14.3115234,13.9794922 C12.9814387,15.2978582 11.7597712,16.507807 10.6464844,17.609375 C9.53319756,18.710943 8.92382865,19.3144526 8.81835937,19.4199219 C8.78320295,19.4550783 8.74511739,19.4843749 8.70410156,19.5078125 C8.66308573,19.5312501 8.61914086,19.5488281 8.57226562,19.5605469 C8.4082023,19.6074221 8.06250264,19.7158195 7.53515625,19.8857422 C7.00780986,20.0556649 6.4658231,20.2285147 5.90917969,20.4042969 C5.35253628,20.580079 4.85156473,20.7412102 4.40625,20.8876953 C3.96093527,21.0341804 3.73242193,21.1074219 3.72070312,21.1074219 C3.69726551,21.1191407 3.67089858,21.1279297 3.64160156,21.1337891 C3.61230454,21.1396485 3.5800783,21.1425781 3.54492187,21.1425781 C3.47460902,21.1425781 3.40429723,21.1279298 3.33398437,21.0986328 C3.26367152,21.0693358 3.20507836,21.0253909 3.15820312,20.9667969 C3.07617146,20.896484 3.02343762,20.8085943 3,20.703125 C2.97656238,20.5976557 2.97656238,20.492188 3,20.3867188 C3.01171881,20.3749999 3.08203061,20.1552756 3.2109375,19.7275391 C3.33984439,19.2998025 3.48925696,18.8046903 3.65917969,18.2421875 C3.82910241,17.6796847 3.99316327,17.1318386 4.15136719,16.5986328 C4.3095711,16.065427 4.41796846,15.6816418 4.4765625,15.4472656 C4.50000012,15.4003904 4.52343738,15.3564455 4.546875,15.3154297 C4.57031262,15.2744139 4.5996092,15.2363283 4.63476562,15.2011719 L10.0839844,9.75195312 C11.455085,8.38085252 12.723627,7.10938086 13.8896484,5.9375 C15.0556699,4.76561914 15.6796871,4.1445316 15.7617187,4.07421875 C15.8789068,3.95703066 16.1308574,3.76660288 16.5175781,3.50292969 C16.9042988,3.23925649 17.3789034,3.10742188 17.9414062,3.10742188 C18.3046893,3.10742188 18.6533186,3.18359299 18.9873047,3.3359375 C19.3212907,3.48828201 19.6406235,3.71093604 19.9453125,4.00390625 Z M15.5859375,5.8671875 C15.0351535,6.4062527 14.3320355,7.10351135 13.4765625,7.95898438 C12.6210895,8.8144574 11.7392624,9.69921418 10.8310547,10.6132812 C9.92284702,11.5273483 9.05273854,12.4003865 8.22070312,13.2324219 L6.234375,15.21875 C6.46875117,15.3125005 6.72949075,15.4472647 7.01660156,15.6230469 C7.30371237,15.798829 7.59374854,16.0332017 7.88671875,16.3261719 C8.12109492,16.5722669 8.31738202,16.8212878 8.47558594,17.0732422 C8.63378985,17.3251966 8.75976516,17.5566396 8.85351562,17.7675781 C9.34570559,17.2753882 10.0048787,16.6220744 10.8310547,15.8076172 C11.6572307,14.99316 12.5214799,14.1376998 13.4238281,13.2412109 C14.3261764,12.3447221 15.2021442,11.4746136 16.0517578,10.6308594 C16.9013714,9.78710516 17.6015597,9.09570582 18.1523437,8.55664062 C18.1406249,8.46289016 18.0732428,8.24316579 17.9501953,7.89746094 C17.8271478,7.55175608 17.5898455,7.20312676 17.2382812,6.8515625 C16.886717,6.51171705 16.5585953,6.27148508 16.2539062,6.13085938 C15.9492172,5.99023367 15.7265632,5.90234393 15.5859375,5.8671875 Z M5.4609375,16.1679688 C5.33203061,16.6015647 5.15332146,17.1757777 4.92480469,17.890625 C4.69628792,18.6054723 4.50000082,19.2265599 4.3359375,19.7539062 C4.8867215,19.5781241 5.52538699,19.3671887 6.25195312,19.1210938 C6.97851926,18.8749988 7.53515432,18.6875006 7.921875,18.5585938 C7.86328096,18.3828116 7.76953189,18.1660169 7.640625,17.9082031 C7.51171811,17.6503893 7.32421998,17.3984387 7.078125,17.1523438 C6.74999836,16.8242171 6.43945459,16.5869148 6.14648437,16.4404297 C5.85351416,16.2939446 5.62500082,16.2031252 5.4609375,16.1679688 Z M19.171875,7.51953125 C19.4062512,7.28515508 19.5820307,7.05078242 19.6992187,6.81640625 C19.8164068,6.58203008 19.875,6.35937605 19.875,6.1484375 C19.875,5.93749895 19.8134772,5.72070424 19.6904297,5.49804688 C19.5673822,5.27538951 19.388673,5.05273549 19.1542969,4.83007812 C18.9667959,4.64257719 18.7705088,4.50195359 18.5654297,4.40820312 C18.3603505,4.31445266 18.1523448,4.26757812 17.9414062,4.26757812 C17.5781232,4.26757812 17.2646498,4.36132719 17.0009766,4.54882812 C16.7373034,4.73632906 16.5937501,4.84765607 16.5703125,4.8828125 L16.4824219,4.97070312 C16.7050792,5.06445359 16.9511705,5.19628821 17.2207031,5.36621094 C17.4902357,5.53613366 17.7656236,5.76171734 18.046875,6.04296875 C18.3164076,6.31250135 18.5332023,6.58788922 18.6972656,6.86914062 C18.8613289,7.15039203 18.9843746,7.40820195 19.0664062,7.64257812 C19.0898439,7.61914051 19.1103515,7.59570324 19.1279297,7.57226562 C19.1455079,7.54882801 19.1601562,7.53125006 19.171875,7.51953125 Z" id="Pencil---simple-line-icons"></path>
                </g>
            </g>
        </g>
    </g>
</svg>