<svg xmlns="http://www.w3.org/2000/svg" width="20" height="21" viewBox="0 0 20 21">
  <path fill="#6F7886" fill-opacity=".799" d="M5.125,9.578125 C5.67187773,9.72135488 6.12109199,10.0143207 6.47265625,10.4570312 C6.82422051,10.8997418 7,11.4140596 7,12 C7,12.5859404 6.82422051,13.1002582 6.47265625,13.5429688 C6.12109199,13.9856793 5.67187773,14.2786451 5.125,14.421875 L5.125,21.375 C5.125,21.5442717 5.06315166,21.6907546 4.93945312,21.8144531 C4.81575459,21.9381517 4.66927168,22 4.5,22 C4.33072832,22 4.18424541,21.9381517 4.06054688,21.8144531 C3.93684834,21.6907546 3.875,21.5442717 3.875,21.375 L3.875,14.421875 C3.34114316,14.2786451 2.89518408,13.9856793 2.53710938,13.5429688 C2.17903467,13.1002582 2,12.5859404 2,12 C2,11.4140596 2.17903467,10.8997418 2.53710938,10.4570312 C2.89518408,10.0143207 3.34114316,9.72135488 3.875,9.578125 L3.875,2.625 C3.875,2.45572832 3.93684834,2.30924541 4.06054688,2.18554688 C4.18424541,2.06184834 4.33072832,2 4.5,2 C4.66927168,2 4.81575459,2.06184834 4.93945312,2.18554688 C5.06315166,2.30924541 5.125,2.45572832 5.125,2.625 L5.125,9.578125 Z M4.5,13.25 C4.85156426,13.25 5.14778525,13.1263033 5.38867188,12.8789062 C5.6295585,12.6315092 5.75,12.3385434 5.75,12 C5.75,11.6614566 5.6295585,11.3684908 5.38867188,11.1210938 C5.14778525,10.8736967 4.85156426,10.75 4.5,10.75 C4.14843574,10.75 3.85221475,10.8736967 3.61132812,11.1210938 C3.3704415,11.3684908 3.25,11.6614566 3.25,12 C3.25,12.3385434 3.3704415,12.6315092 3.61132812,12.8789062 C3.85221475,13.1263033 4.14843574,13.25 4.5,13.25 Z M12.625,13.328125 C13.1718777,13.4713549 13.621092,13.7643207 13.9726562,14.2070312 C14.3242205,14.6497418 14.5,15.1640596 14.5,15.75 C14.5,16.3359404 14.3242205,16.8502582 13.9726562,17.2929688 C13.621092,17.7356793 13.1718777,18.0286451 12.625,18.171875 L12.625,21.375 C12.625,21.5442717 12.5631517,21.6907546 12.4394531,21.8144531 C12.3157546,21.9381517 12.1692717,22 12,22 C11.8307283,22 11.6842454,21.9381517 11.5605469,21.8144531 C11.4368483,21.6907546 11.375,21.5442717 11.375,21.375 L11.375,18.171875 C10.8411432,18.0286451 10.3951841,17.7356793 10.0371094,17.2929688 C9.67903467,16.8502582 9.5,16.3359404 9.5,15.75 C9.5,15.1640596 9.67903467,14.6497418 10.0371094,14.2070312 C10.3951841,13.7643207 10.8411432,13.4713549 11.375,13.328125 L11.375,2.625 C11.375,2.45572832 11.4368483,2.30924541 11.5605469,2.18554688 C11.6842454,2.06184834 11.8307283,2 12,2 C12.1692717,2 12.3157546,2.06184834 12.4394531,2.18554688 C12.5631517,2.30924541 12.625,2.45572832 12.625,2.625 L12.625,13.328125 Z M12,17 C12.3515643,17 12.6477853,16.8763033 12.8886719,16.6289062 C13.1295585,16.3815092 13.25,16.0885434 13.25,15.75 C13.25,15.4114566 13.1295585,15.1184908 12.8886719,14.8710938 C12.6477853,14.6236967 12.3515643,14.5 12,14.5 C11.6484357,14.5 11.3522147,14.6236967 11.1113281,14.8710938 C10.8704415,15.1184908 10.75,15.4114566 10.75,15.75 C10.75,16.0885434 10.8704415,16.3815092 11.1113281,16.6289062 C11.3522147,16.8763033 11.6484357,17 12,17 Z M20.125,5.828125 C20.6718777,5.97135488 21.121092,6.2643207 21.4726562,6.70703125 C21.8242205,7.1497418 22,7.66405957 22,8.25 C22,8.83594043 21.8242205,9.3502582 21.4726562,9.79296875 C21.121092,10.2356793 20.6718777,10.5286451 20.125,10.671875 L20.125,21.375 C20.125,21.5442717 20.0631517,21.6907546 19.9394531,21.8144531 C19.8157546,21.9381517 19.6692717,22 19.5,22 C19.3307283,22 19.1842454,21.9381517 19.0605469,21.8144531 C18.9368483,21.6907546 18.875,21.5442717 18.875,21.375 L18.875,10.671875 C18.3411432,10.5286451 17.8951841,10.2356793 17.5371094,9.79296875 C17.1790347,9.3502582 17,8.83594043 17,8.25 C17,7.66405957 17.1790347,7.1497418 17.5371094,6.70703125 C17.8951841,6.2643207 18.3411432,5.97135488 18.875,5.828125 L18.875,2.625 C18.875,2.45572832 18.9368483,2.30924541 19.0605469,2.18554688 C19.1842454,2.06184834 19.3307283,2 19.5,2 C19.6692717,2 19.8157546,2.06184834 19.9394531,2.18554688 C20.0631517,2.30924541 20.125,2.45572832 20.125,2.625 L20.125,5.828125 Z M19.5,9.5 C19.8515643,9.5 20.1477853,9.37630332 20.3886719,9.12890625 C20.6295585,8.88150918 20.75,8.58854336 20.75,8.25 C20.75,7.91145664 20.6295585,7.61849082 20.3886719,7.37109375 C20.1477853,7.12369668 19.8515643,7 19.5,7 C19.1484357,7 18.8522147,7.12369668 18.6113281,7.37109375 C18.3704415,7.61849082 18.25,7.91145664 18.25,8.25 C18.25,8.58854336 18.3704415,8.88150918 18.6113281,9.12890625 C18.8522147,9.37630332 19.1484357,9.5 19.5,9.5 Z" transform="rotate(90 11.75 10.25)"/>
</svg>
