<svg id="Layer_1" xmlns="http://www.w3.org/2000/svg" width="20" height="13" viewBox="-574 831.3 20 13">
  <style>
    .st1{fill:#393939}
  </style>
  <g opacity=".3">
    <path class="st1" d="M-564 835.2c-.9 0-1.8.5-2.2 1.3-.5.8-.5 1.8 0 2.6.4.8 1.3 1.3 2.2 1.3 1.4 0 2.4-1.2 2.4-2.6 0-1.4-1-2.6-2.4-2.6z"/>
    <path class="st1" d="M-564 833.2c3.9 0 6.4 2.5 7.8 4.5-1.4 2-3.9 4.5-7.8 4.5s-6.4-2.5-7.8-4.5c1.4-1.9 3.9-4.5 7.8-4.5zm0-1.9c-4.5 0-7.9 2.8-10 6.5 2.1 3.7 5.5 6.5 10 6.5s7.9-2.8 10-6.5c-2.1-3.7-5.5-6.5-10-6.5z"/>
  </g>
</svg>