<svg xmlns="http://www.w3.org/2000/svg" width="128" height="31" viewBox="0 0 128 31">
  <g fill="none" fill-rule="evenodd">
    <path fill="#ED212A" d="M127.616766 15.2202439C127.616766 16.6191408 126.467184 17.7531707 125.049102 17.7531707 123.63102 17.7531707 122.481437 16.6191408 122.481437 15.2202439 122.481437 13.821347 123.63102 12.6873171 125.049102 12.6873171 126.467184 12.6873171 127.616766 13.821347 127.616766 15.2202439M5.13532934 2.53292683C5.13532934 3.93182369 3.98574671 5.06585366 2.56766467 5.06585366 1.14958263 5.06585366-7.14513457e-16 3.93182369-8.8817842e-16 2.53292683-1.06184338e-15 1.13402997 1.14958263 2.56973184e-16 2.56766467 0 3.98574671 8.56577281e-17 5.13532934 1.13402997 5.13532934 2.53292683M12.5623952 6.7595122C12.5665656 8.16059608 11.4200746 9.30051405 9.99978668 9.30742867 8.57949879 9.3143433 7.421658 8.18564391 7.41180954 6.78458766 7.40196108 5.38353142 8.54382334 4.23910114 9.96407186 4.22658537 11.3821539 4.22658537 12.5317365 5.36061533 12.5317365 6.7595122M19.9817964 10.9860976C19.9817964 12.3849944 18.8322138 13.5190244 17.4141317 13.5190244 15.9960497 13.5190244 14.8464671 12.3849944 14.8464671 10.9860976 14.8464671 9.5872007 15.9960497 8.45317073 17.4141317 8.45317073 18.8322138 8.45317073 19.9817964 9.5872007 19.9817964 10.9860976M12.5623952 15.2202439C12.5665656 16.6213278 11.4200746 17.7612458 9.99978668 17.7681604 8.57949879 17.775075 7.421658 16.6463756 7.41180954 15.2453194 7.40196108 13.8442631 8.54382334 12.6998328 9.96407186 12.6873171 11.3821539 12.6873171 12.5317365 13.821347 12.5317365 15.2202439M5.13532934 19.4468293C5.13532934 20.8457261 3.98574671 21.9797561 2.56766467 21.9797561 1.14958263 21.9797561-1.15860267e-15 20.8457261-1.33226763e-15 19.4468293-1.50593259e-15 18.0479324 1.14958263 16.9139024 2.56766467 16.9139024 3.24865168 16.9139024 3.90174724 17.1807636 4.38327777 17.6557795 4.8648083 18.1307955 5.13532934 18.7750553 5.13532934 19.4468293"/>
    <path fill="#F9A577" d="M5.13532934 10.9860976C5.13532934 12.3849944 3.98574671 13.5190244 2.56766467 13.5190244 1.14958263 13.5190244-1.15860267e-15 12.3849944-1.33226763e-15 10.9860976-1.50593259e-15 9.5872007 1.14958263 8.45317073 2.56766467 8.45317073 3.24865168 8.45317073 3.90174724 8.7200319 4.38327777 9.19504782 4.8648083 9.67006375 5.13532934 10.3143236 5.13532934 10.9860976M19.9817964 19.4468293C19.9817964 20.8457261 18.8322138 21.9797561 17.4141317 21.9797561 15.9960497 21.9797561 14.8464671 20.8457261 14.8464671 19.4468293 14.8464671 18.0479324 15.9960497 16.9139024 17.4141317 16.9139024 18.8322138 16.9139024 19.9817964 18.0479324 19.9817964 19.4468293M12.5623952 23.6734146C12.5778732 24.7021742 11.9628155 25.6385674 11.0046552 26.0449924 10.0464949 26.4514174 8.93444193 26.2476167 8.18818855 25.5288318 7.44193517 24.8100469 7.20884561 23.7182178 7.59784892 22.7635856 7.98685223 21.8089534 8.92113111 21.1800314 9.96407186 21.1707317 11.3821539 21.1707317 12.5317365 22.3047617 12.5317365 23.7036585M5.13532934 27.9C5.13532934 29.2988969 3.98574671 30.4329268 2.56766467 30.4329268 1.14958263 30.4329268-1.15860267e-15 29.2988969-1.33226763e-15 27.9-1.50593259e-15 26.5011031 1.14958263 25.3670732 2.56766467 25.3670732 3.24865168 25.3670732 3.90174724 25.6339343 4.38327777 26.1089503 4.8648083 26.5839662 5.13532934 27.228226 5.13532934 27.9"/>
    <path fill="#000" fill-rule="nonzero" d="M29.2637126,9.82926829 C26.6500599,9.82926829 25.2244311,12.3546341 24.8258683,14.2221951 L25.2934132,14.2221951 C27.0179641,14.2221951 30.9346108,13.8139024 30.9346108,11.3112195 C30.9672738,10.880533 30.7996717,10.4585568 30.4791106,10.1643947 C30.1585495,9.87023265 29.7198024,9.73579401 29.2867066,9.79902439 M32.8047904,10.9634146 C32.8047904,14.9480488 27.8534132,15.5529268 25.2704192,15.5529268 C25.0251497,15.5529268 24.8028743,15.5529268 24.6035928,15.5529268 C24.6035928,15.8402439 24.5576048,16.112439 24.5576048,16.3770732 C24.5576048,18.0782927 25.2704192,19.6358537 27.508503,19.6358537 C28.7127436,19.5985736 29.8785852,19.2090766 30.8579641,18.5168293 L31.5017964,19.8021951 C30.2391058,20.6736163 28.7352687,21.140837 27.1942515,21.1404878 C23.9904192,21.1404878 22.6567665,19.1746341 22.6567665,16.3543902 C22.6567665,12.105122 25.3470659,8.38512195 29.5549701,8.38512195 C31.6244311,8.38512195 32.7817964,9.40585366 32.7817964,10.9860976"/>
    <path fill="#000" d="M33.371976 20.77L35.257485 10.5173171 35.4337725 8.69512195 37.1046707 8.69512195 37.0050299 10.4417073C38.0673645 9.1477825 39.6555799 8.38379476 41.3432335 8.35487805 43.4816766 8.35487805 44.6160479 9.35292683 44.6390419 11.3187805 44.6132896 11.8089265 44.5518135 12.2966088 44.4550898 12.7780488L42.9988024 20.77 41.0826347 20.77 42.4392814 13.1182927C42.5153354 12.6683896 42.5563336 12.2133995 42.5619162 11.7573171 42.5619162 10.6836585 42.1403593 9.8595122 40.7147305 9.8595122 38.8514749 9.85502776 37.2157662 11.0814719 36.7214371 12.8536585L35.2958084 20.77 33.371976 20.77zM50.8320958 3.88634146L49.965988 8.69512195 53.4917365 8.69512195 53.1928144 10.3207317 49.6747305 10.3207317 48.3947305 17.5112195C48.3352348 17.8155599 48.2993623 18.1239344 48.2874251 18.4336585 48.2874251 19.4543902 48.8009581 19.6056098 49.6440719 19.6056098 50.3728533 19.5633731 51.0815323 19.3536457 51.7135329 18.9931707L52.2270659 20.3087805C51.2957362 20.8405936 50.2372831 21.1172889 49.1611976 21.1102439 46.9691018 21.1102439 46.3252695 20.134878 46.3022754 18.9478049 46.3093441 18.4406876 46.3580463 17.9349685 46.4479042 17.4356098L48.9082635 3.88634146 50.8320958 3.88634146z"/>
    <path fill="#000" fill-rule="nonzero" d="M62.8502994,10.222439 C62.0965006,9.93263347 61.2903503,9.79880601 60.4819162,9.82926829 C56.4426347,9.82926829 55.3619162,13.8365854 55.3619162,16.5358537 C55.3619162,18.1463415 55.9520958,19.6585366 57.9449102,19.6585366 C59.7434268,19.701027 61.313623,18.4644143 61.6699401,16.724878 L62.8502994,10.222439 Z M63.2411976,18.6529268 L63.0725749,20.77 L61.3173653,20.77 L61.44,19.3334146 L61.3403593,19.3334146 C60.4541949,20.4868023 59.0589109,21.1482659 57.5923353,21.1102439 C55.0093413,21.1102439 53.4304192,19.6736585 53.4304192,16.7626829 C53.4304192,11.9009756 56.0440719,8.37756098 60.7731737,8.37756098 C62.1871462,8.38759697 63.5882449,8.64354944 64.9120958,9.13365854 L63.2411976,18.6529268 Z"/>
    <path fill="#000" d="M65.9161677,20.77 L67.7633533,10.5173171 L67.9396407,8.69512195 L69.6105389,8.69512195 L69.5108982,10.4417073 C70.5745752,9.1494486 72.1619523,8.38586409 73.8491018,8.35487805 C75.9952096,8.35487805 77.1219162,9.35292683 77.1525749,11.3187805 C77.1367363,11.8081815 77.0855083,12.2958432 76.9992814,12.7780488 L75.5813174,20.77 L73.657485,20.77 L75.0141317,13.1182927 C75.0901857,12.6683896 75.1311839,12.2133995 75.1367665,11.7573171 C75.1367665,10.6836585 74.7152096,9.8595122 73.2895808,9.8595122 C71.4263252,9.85502776 69.7906165,11.0814719 69.2962874,12.8536585 L67.8706587,20.77 L65.9161677,20.77 Z"/>
    <path fill="#000" fill-rule="nonzero" d="M88.1437126 10.3434146C87.4934921 10.0272682 86.7760471 9.86912874 86.0512575 9.88219512 82.4565269 9.88219512 80.7549701 12.8007317 80.7549701 16.3468293 80.7549701 18.1463415 81.3988024 19.6509756 83.291976 19.6509756 85.0478782 19.6812204 86.592509 18.5117706 87.017006 16.8307317L88.1437126 10.3434146zM88.4196407 8.83121951L89.3317365 3.92414634 91.2095808 3.92414634 88.5729341 18.6226829 88.3813174 20.8078049 86.6107784 20.8078049 86.7027545 19.3485366 86.6107784 19.3485366C85.6615422 20.5086973 84.2284555 21.1793693 82.7171257 21.1707317 79.8352096 21.1707317 78.777485 19.1065854 78.777485 16.6341463 78.777485 11.8782927 81.360479 8.4002439 85.8443114 8.4002439 86.7091876 8.40214012 87.5673164 8.55047278 88.3813174 8.83878049L88.4196407 8.83121951zM98.1077844 9.82926829C95.4941317 9.82926829 94.068503 12.3546341 93.6699401 14.2221951L94.114491 14.2221951C95.8390419 14.2221951 99.7556886 13.8139024 99.7556886 11.3112195 99.7786405 10.8856377 99.6068087 10.4723522 99.2875369 10.1852329 98.9682652 9.8981135 98.5352453 9.76745922 98.1077844 9.82926829M101.625868 10.9936585C101.625868 14.9782927 96.674491 15.5831707 94.091497 15.5831707 93.8462275 15.5831707 93.6239521 15.5831707 93.4246707 15.5831707 93.4246707 15.8704878 93.3786826 16.1426829 93.3786826 16.4073171 93.3786826 18.1085366 94.091497 19.6660976 96.3295808 19.6660976 97.5338215 19.6288175 98.699663 19.2393205 99.6790419 18.5470732L100.322874 19.832439C99.0601836 20.7038602 97.5563466 21.1710809 96.0153293 21.1707317 92.811497 21.1707317 91.4778443 19.204878 91.4778443 16.3846341 91.4778443 12.1353659 94.1681437 8.41536585 98.3760479 8.41536585 100.445509 8.41536585 101.602874 9.43609756 101.602874 11.0163415"/>
    <path fill="#000" d="M102.047425,20.77 L103.863952,10.5173171 L104.017246,8.69512195 L105.642156,8.69512195 L105.542515,10.4190244 C106.542413,9.15812877 108.059304,8.40163083 109.681437,8.35487805 C111.329341,8.35487805 112.41006,9.01268293 112.808623,10.6231707 C113.747187,9.22982256 115.320883,8.38151365 117.016527,8.35487805 C119.185629,8.35487805 120.297006,9.45121951 120.297006,11.4397561 C120.29051,11.8810916 120.246928,12.3211359 120.166707,12.7553659 L118.741078,20.77 L116.817246,20.77 L118.173892,13.1409756 C118.257224,12.7246977 118.305929,12.3023978 118.319521,11.8782927 C118.319521,10.7365854 117.905629,9.8595122 116.426347,9.8595122 C114.655209,9.94571982 113.15677,11.1800972 112.75497,12.8839024 L111.352335,20.754878 L109.428503,20.754878 L110.808144,13.1485366 C110.892449,12.692069 110.933504,12.2288519 110.930778,11.764878 C111.013517,11.2402029 110.839717,10.7078484 110.462137,10.3294168 C110.084557,9.95098533 109.547728,9.77110857 109.014611,9.84439024 C107.203423,9.91429835 105.676412,11.1987602 105.32024,12.9519512 L103.963593,20.754878 L102.047425,20.77 Z"/>
  </g>
</svg>
