<svg xmlns="http://www.w3.org/2000/svg" width="15" height="19" viewBox="0 0 15 19">
  <g fill="#FFF" fill-rule="evenodd" transform="translate(.408 .566)">
    <path d="M7.3483621,11.2326896 L6.76382094,11.2326896 C6.21807539,11.2326896 5.77414922,10.7929275 5.77414922,10.2524879 L4.59647973,10.2524879 C4.59647973,11.3362524 5.41210783,12.2346062 6.46725679,12.3782578 L6.46725679,13.5663443 L7.64492628,13.5663443 L7.64492628,12.3782578 C8.70007521,12.2344543 9.51570335,11.3362524 9.51570335,10.2524879 C9.51570335,9.06895687 8.5435126,8.10621802 7.3483621,8.10621802 L6.76382094,8.10621802 C6.21807539,8.10621802 5.77414922,7.66645592 5.77414922,7.12601623 C5.77414922,6.58557654 6.21807539,6.14596629 6.76382094,6.14596629 L7.3483621,6.14596629 C7.89410764,6.14596629 8.33818718,6.58557654 8.33818718,7.12601623 L9.51570335,7.12601623 C9.51570335,6.04225171 8.70022854,5.14404976 7.64492628,5.00024633 L7.64492628,3.81215977 L6.46725679,3.81215977 L6.46725679,5.00024633 C5.41210783,5.14404976 4.59647973,6.04225171 4.59647973,7.12601623 C4.59647973,8.30954722 5.56882376,9.27228611 6.76382094,9.27228611 L7.3483621,9.27228611 C7.89410764,9.27228611 8.33818718,9.71204821 8.33818718,10.2524879 C8.33818718,10.7929275 7.89410764,11.2326896 7.3483621,11.2326896 Z"/>
    <path d="M8.8817842e-13,0 L8.8817842e-13,16.8576349 L2.19279606,18.0575989 L3.88339582,17.3858395 L5.53075304,18.0403779 L7.17811026,17.3858395 L8.82562082,18.0403779 L10.4731314,17.3858395 L12.1641912,18.0575989 L14.3572939,16.8576349 L14.3572939,0 L8.8817842e-13,0 Z M13.1796244,16.1520928 L12.0773994,16.7465472 L10.4731314,16.1184188 L8.82562082,16.76352 L7.17811026,16.1184188 L5.53075304,16.76352 L3.88339582,16.1184188 L2.27958783,16.7464114 L1.1776695,16.1520928 L1.1776695,1.16621993 L13.1796244,1.16621993 L13.1796244,16.1520928 Z"/>
  </g>
</svg>
