<svg xmlns="http://www.w3.org/2000/svg" width="13" height="11" viewBox="0 0 13 11">
  <path d="M0.501718535,1.70531209 C0.451093286,1.6462493 0.413124919,1.58507805 0.387812294,1.52179649 C0.36249967,1.45851492 0.349843548,1.38468754 0.349843548,1.30031213 C0.349843548,1.22437426 0.36249967,1.15265623 0.387812294,1.0851559 C0.413124919,1.01765557 0.451093286,0.958593662 0.501718535,0.907968414 C0.552343783,0.857343165 0.611405688,0.819374798 0.678906019,0.794062173 C0.746406351,0.768749549 0.818124378,0.756093427 0.894062251,0.756093427 L12.4492175,0.756093427 C12.5251554,0.756093427 12.5968734,0.768749549 12.6643737,0.794062173 C12.7318741,0.819374798 12.790936,0.857343165 12.8415612,0.907968414 C12.8921865,0.958593662 12.9301548,1.01765557 12.9554675,1.0851559 C12.9807801,1.15265623 12.9934362,1.22437426 12.9934362,1.30031213 C12.9934362,1.38468754 12.9807801,1.45851492 12.9554675,1.52179649 C12.9301548,1.58507805 12.8921865,1.6462493 12.8415612,1.70531209 C12.790936,1.75593734 12.7318741,1.79390571 12.6643737,1.81921834 C12.5968734,1.84453096 12.5251554,1.85718708 12.4492175,1.85718708 L0.894062251,1.85718708 C0.818124378,1.85718708 0.746406351,1.84453096 0.678906019,1.81921834 C0.611405688,1.79390571 0.552343783,1.75593734 0.501718535,1.70531209 Z M12.8415612,5.31234303 C12.8921865,5.36296828 12.9301548,5.42203019 12.9554675,5.48953052 C12.9807801,5.55703085 12.9934362,5.62874888 12.9934362,5.70468675 C12.9934362,5.78062462 12.9807801,5.85234265 12.9554675,5.91984298 C12.9301548,5.98734331 12.8921865,6.04640522 12.8415612,6.09703047 C12.790936,6.14765572 12.7318741,6.18562408 12.6643737,6.21093671 C12.5968734,6.23624933 12.5251554,6.24890545 12.4492175,6.24890545 L0.894062251,6.24890545 C0.818124378,6.24890545 0.746406351,6.23624933 0.678906019,6.21093671 C0.611405688,6.18562408 0.552343783,6.14765572 0.501718535,6.09703047 C0.451093286,6.04640522 0.413124919,5.98734331 0.387812294,5.91984298 C0.36249967,5.85234265 0.349843548,5.78062462 0.349843548,5.70468675 C0.349843548,5.62874888 0.36249967,5.55703085 0.387812294,5.48953052 C0.413124919,5.42203019 0.451093286,5.36296828 0.501718535,5.31234303 C0.552343783,5.26171779 0.611405688,5.22374942 0.678906019,5.19843679 C0.746406351,5.17312417 0.818124378,5.16046805 0.894062251,5.16046805 L12.4492175,5.16046805 C12.5251554,5.16046805 12.5968734,5.17312417 12.6643737,5.19843679 C12.7318741,5.22374942 12.790936,5.26171779 12.8415612,5.31234303 Z M12.8415612,9.70406141 C12.8921865,9.75468666 12.9301548,9.81374856 12.9554675,9.88124889 C12.9807801,9.94874922 12.9934362,10.0204672 12.9934362,10.0964051 C12.9934362,10.1807805 12.9807801,10.2546079 12.9554675,10.3178895 C12.9301548,10.381171 12.8921865,10.4423423 12.8415612,10.5014051 C12.790936,10.5520303 12.7318741,10.5899987 12.6643737,10.6153113 C12.5968734,10.640624 12.5251554,10.6532801 12.4492175,10.6532801 L0.894062251,10.6532801 C0.818124378,10.6532801 0.746406351,10.640624 0.678906019,10.6153113 C0.611405688,10.5899987 0.552343783,10.5520303 0.501718535,10.5014051 C0.451093286,10.4423423 0.413124919,10.381171 0.387812294,10.3178895 C0.36249967,10.2546079 0.349843548,10.1807805 0.349843548,10.0964051 C0.349843548,10.0204672 0.36249967,9.94874922 0.387812294,9.88124889 C0.413124919,9.81374856 0.451093286,9.75468666 0.501718535,9.70406141 C0.552343783,9.65343616 0.611405688,9.61546779 0.678906019,9.59015517 C0.746406351,9.56484254 0.818124378,9.55218642 0.894062251,9.55218642 L12.4492175,9.55218642 C12.5251554,9.55218642 12.5968734,9.56484254 12.6643737,9.59015517 C12.7318741,9.61546779 12.790936,9.65343616 12.8415612,9.70406141 Z"/>
</svg>
