<svg xmlns="http://www.w3.org/2000/svg" width="12" height="18" viewBox="0 0 12 18">
  <path fill="#FFF" fill-rule="evenodd" d="M13.2422392,1.20383993 L6.01919965,1.20383993 C5.02190599,1.20383993 4.21343975,2.01230617 4.21343975,3.00959983 L4.21343975,18.238175 L8.86628109,16.0652439 C9.35076568,15.8388594 9.91067321,15.8388594 10.3951578,16.0652439 L15.0479991,18.238175 L15.0479991,3.00959983 C15.0479991,2.01230617 14.2395329,1.20383993 13.2422392,1.20383993 Z M13.8441592,16.3481463 L10.9007706,14.9757688 C10.0955497,14.6009565 9.16588918,14.6009565 8.36066831,14.9757688 L5.41727968,16.3481463 L5.41727968,4.81535972 L13.8441592,4.81535972 L13.8441592,16.3481463 Z M13.8441592,3.61151979 L5.41727968,3.61151979 L5.41727968,3.00959983 C5.41727968,2.67716861 5.68676843,2.40767986 6.01919965,2.40767986 L13.2422392,2.40767986 C13.5746705,2.40767986 13.8441592,2.67716861 13.8441592,3.00959983 L13.8441592,3.61151979 Z" transform="translate(-4 -1.036)"/>
</svg>
