<svg xmlns="http://www.w3.org/2000/svg" width="17" height="17" viewBox="0 0 17 17">
  <path fill="#FFF" fill-rule="evenodd" d="M14.4460792,10.2326394 C16.1082352,10.2326394 17.455679,11.5800831 17.455679,13.2422392 L17.455679,17.455679 L16.2518391,17.455679 L16.2518391,13.2422392 C16.2518391,12.2449456 15.4433728,11.4364793 14.4460792,11.4364793 L4.8153597,11.4364793 C3.81806604,11.4364793 3.0095998,12.2449456 3.0095998,13.2422392 L3.0095998,17.455679 L1.80575987,17.455679 L1.80575987,13.2422392 C1.80575987,11.5800831 3.15320361,10.2326394 4.8153597,10.2326394 L14.4460792,10.2326394 Z M9.63071943,9.02879946 C7.63613212,9.02879946 6.01919963,7.41186697 6.01919963,5.41727966 C6.01919963,3.42269236 7.63613212,1.80575987 9.63071943,1.80575987 C11.6253067,1.80575987 13.2422392,3.42269236 13.2422392,5.41727966 C13.2422392,7.41186697 11.6253067,9.02879946 9.63071943,9.02879946 Z M9.63071943,3.0095998 C8.30099455,3.0095998 7.22303956,4.08755479 7.22303956,5.41727966 C7.22303956,6.74700454 8.30099455,7.82495953 9.63071943,7.82495953 C10.9604443,7.82495953 12.0383993,6.74700454 12.0383993,5.41727966 C12.0383993,4.08755479 10.9604443,3.0095998 9.63071943,3.0095998 Z" transform="translate(-1 -1.036)"/>
</svg>
