<svg xmlns="http://www.w3.org/2000/svg" width="18" height="14" viewBox="0 0 18 14">
  <path fill="#FFF" fill-rule="evenodd" d="M2.60831984,7.12271958 L16.653119,7.12271958 L16.653119,6.6545596 C16.653119,5.74960796 16.0243119,5.0159997 15.2486391,5.0159997 L4.01279976,5.0159997 C3.23712692,5.0159997 2.60831984,5.74960796 2.60831984,6.6545596 L2.60831984,7.12271958 Z M16.653119,8.52719949 L2.60831984,8.52719949 L2.60831984,13.2087992 C2.60831984,14.1137509 3.23712692,14.8473591 4.01279976,14.8473591 L15.2486391,14.8473591 C16.0243119,14.8473591 16.653119,14.1137509 16.653119,13.2087992 L16.653119,8.52719949 Z M5.76839966,11.6043776 C5.95475886,11.4375816 6.20085502,11.3361593 6.47063961,11.3361593 C7.05239424,11.3361593 7.52399955,11.8077646 7.52399955,12.3895193 C7.52399955,12.9712739 7.05239424,13.4428792 6.47063961,13.4428792 C6.20085502,13.4428792 5.95475886,13.3414569 5.76839966,13.1746609 C5.58204045,13.3414569 5.33594429,13.4428792 5.0661597,13.4428792 C4.48440507,13.4428792 4.01279976,12.9712739 4.01279976,12.3895193 C4.01279976,11.8077646 4.48440507,11.3361593 5.0661597,11.3361593 C5.33594429,11.3361593 5.58204045,11.4375816 5.76839966,11.6043776 Z M4.01279976,3.61151978 L15.2486391,3.61151978 C16.7999848,3.61151978 18.0575989,5.02633571 18.0575989,6.7715996 L18.0575989,13.0917592 C18.0575989,14.8370231 16.7999848,16.251839 15.2486391,16.251839 L4.01279976,16.251839 C2.46145408,16.251839 1.20383993,14.8370231 1.20383993,13.0917592 L1.20383993,6.7715996 C1.20383993,5.02633571 2.46145408,3.61151978 4.01279976,3.61151978 Z" transform="translate(-1 -3.036)"/>
</svg>
