<svg xmlns="http://www.w3.org/2000/svg" width="14" height="17" viewBox="0 0 14 17">
  <path fill="#FFF" fill-rule="evenodd" d="M7.22303956,9.02879946 L12.0383993,9.02879946 L12.6403193,9.02879946 L12.6403193,10.2326394 L12.0383993,10.2326394 L7.22303956,10.2326394 L6.6211196,10.2326394 L6.6211196,9.02879946 L7.22303956,9.02879946 Z M7.22303956,11.4364793 L9.02879946,11.4364793 L9.63071943,11.4364793 L9.63071943,12.6403193 L9.02879946,12.6403193 L7.22303956,12.6403193 L6.6211196,12.6403193 L6.6211196,11.4364793 L7.22303956,11.4364793 Z M12.2851865,1.80575987 L16.2518391,5.77241244 L16.2518391,15.6499191 C16.2518391,16.6472127 15.4433728,17.455679 14.4460792,17.455679 L4.8153597,17.455679 C3.81806604,17.455679 3.0095998,16.6472127 3.0095998,15.6499191 L3.0095998,1.80575987 L12.2851865,1.80575987 Z M12.0383993,3.25638699 L12.0383993,5.41727966 C12.0383993,5.74971088 12.307888,6.01919963 12.6403193,6.01919963 L14.8012119,6.01919963 L12.0383993,3.25638699 Z M14.4460792,16.2518391 C14.7785104,16.2518391 15.0479991,15.9823503 15.0479991,15.6499191 L15.0479991,7.22303956 L12.6403193,7.22303956 C11.6430256,7.22303956 10.8345594,6.41457332 10.8345594,5.41727966 L10.8345594,3.0095998 L4.21343973,3.0095998 L4.21343973,15.6499191 C4.21343973,15.9823503 4.48292848,16.2518391 4.8153597,16.2518391 L14.4460792,16.2518391 Z" transform="translate(-3 -1.036)"/>
</svg>
