<svg xmlns="http://www.w3.org/2000/svg" width="18" height="17" viewBox="0 0 18 17">
  <path fill="#FFF" fill-rule="evenodd" d="M9.63071943,1.2038399 C11.8656668,1.2038399 14.0090766,2.0916693 15.5894231,3.67201577 C17.1697695,5.25236224 18.057599,7.39577202 18.057599,9.63071943 C18.057599,14.2847565 14.2847565,18.057599 9.63071943,18.057599 C4.97668238,18.057599 1.2038399,14.2847565 1.2038399,9.63071943 C1.2038399,4.97668238 4.97668238,1.2038399 9.63071943,1.2038399 Z M9.63071943,16.853759 C11.5463886,16.853759 13.383597,16.0927624 14.7381797,14.7381797 C16.0927624,13.383597 16.853759,11.5463886 16.853759,9.63071943 C16.853759,5.64154481 13.619894,2.40767983 9.63071943,2.40767983 C5.64154481,2.40767983 2.40767983,5.64154481 2.40767983,9.63071943 C2.40767983,13.619894 5.64154481,16.853759 9.63071943,16.853759 Z M10.8345594,4.21343973 C11.831853,4.21343973 12.6403193,5.02190598 12.6403193,6.01919963 L12.6403193,6.72344599 C12.6398978,7.20220194 12.4493722,7.6611955 12.1106297,7.99951632 L10.4071962,9.70294982 C10.2945249,9.81654345 10.2317144,9.97032087 10.2326394,10.130313 L10.2326394,12.0383993 L9.02879946,12.0383993 L9.02879946,10.130313 C9.02922093,9.65155705 9.21974656,9.19256348 9.55848903,8.85424267 L11.2619225,7.15080917 C11.3745938,7.03721553 11.4374043,6.88343811 11.4364793,6.72344599 L11.4364793,6.01919963 C11.4364793,5.68676841 11.1669906,5.41727966 10.8345594,5.41727966 L8.42687949,5.41727966 C8.09444828,5.41727966 7.82495953,5.68676841 7.82495953,6.01919963 L7.82495953,7.22303956 L6.6211196,7.22303956 L6.6211196,6.01919963 C6.6211196,5.02190598 7.42958584,4.21343973 8.42687949,4.21343973 L10.8345594,4.21343973 Z M9.63071943,15.6499191 C8.96585699,15.6499191 8.42687949,15.1109416 8.42687949,14.4460792 C8.42687949,13.7812167 8.96585699,13.2422392 9.63071943,13.2422392 C10.2955819,13.2422392 10.8345594,13.7812167 10.8345594,14.4460792 C10.8345594,15.1109416 10.2955819,15.6499191 9.63071943,15.6499191 Z" transform="translate(-1 -1.036)"/>
</svg>
