<svg xmlns="http://www.w3.org/2000/svg" width="4" height="13" viewBox="0 0 4 13">
  <path fill="#3E4254" fill-rule="evenodd" d="M10.5585938,16.25 L10.5585938,15.9335938 C10.5585938,15.9257812 10.5605469,15.9140626 10.5644531,15.8984375 C10.5683594,15.8828124 10.5742187,15.8710938 10.5820312,15.8632813 C10.6289065,15.5273421 10.7773425,15.2402356 11.0273438,15.0019531 C11.277345,14.7636707 11.5664046,14.6367188 11.8945312,14.6210938 C12.2617206,14.5898436 12.5859361,14.6699209 12.8671875,14.8613281 C13.1484389,15.0527353 13.3398432,15.3203108 13.4414062,15.6640625 C13.4570313,15.7031252 13.4707031,15.7460935 13.4824219,15.7929688 C13.4941407,15.839844 13.5039062,15.8867185 13.5117188,15.9335938 L13.5117188,16.25 C13.5117188,16.2656251 13.5097656,16.2773437 13.5058594,16.2851562 L13.4882812,16.3203125 C13.441406,16.6250015 13.3144542,16.8886708 13.1074219,17.1113281 C12.9003896,17.3339855 12.6445328,17.4765622 12.3398438,17.5390625 C12.3164061,17.546875 12.2929689,17.5527344 12.2695312,17.5566406 C12.2460936,17.5605469 12.2226564,17.5664062 12.1992188,17.5742188 L11.8828125,17.5742188 C11.8671874,17.5742188 11.8554688,17.5722656 11.8476562,17.5683594 L11.8125,17.5507812 C11.507811,17.503906 11.2480479,17.3789073 11.0332031,17.1757812 C10.8183583,16.9726552 10.6757816,16.7226577 10.6054688,16.4257812 C10.5976562,16.3945311 10.5898438,16.3652345 10.5820312,16.3378906 C10.5742187,16.3105467 10.5664063,16.2812502 10.5585938,16.25 Z M13.5117188,7.25 L13.5117188,7.56640625 C13.5117188,7.57421879 13.5097656,7.58593742 13.5058594,7.6015625 C13.5019531,7.61718758 13.4960938,7.62890621 13.4882812,7.63671875 C13.441406,7.97265793 13.29297,8.25976443 13.0429688,8.49804688 C12.7929675,8.73632932 12.5000017,8.86328117 12.1640625,8.87890625 C11.8046857,8.90234387 11.4824233,8.81836033 11.1972656,8.62695312 C10.9121079,8.43554592 10.7187505,8.16797047 10.6171875,7.82421875 C10.609375,7.78515605 10.5996094,7.74218773 10.5878906,7.6953125 C10.5761718,7.64843727 10.5664063,7.60546895 10.5585938,7.56640625 L10.5585938,7.25 C10.5585938,7.23437492 10.5605469,7.22265629 10.5644531,7.21484375 L10.5820312,7.1796875 C10.636719,6.87499848 10.7519522,6.62304787 10.9277344,6.42382812 C11.1035165,6.22460838 11.3398423,6.07812547 11.6367188,5.984375 C11.6757814,5.97656246 11.7148436,5.96679693 11.7539062,5.95507812 C11.7929689,5.94335932 11.8320311,5.93359379 11.8710938,5.92578125 L12.1992188,5.92578125 C12.2070313,5.92578125 12.2167968,5.92968746 12.2285156,5.9375 C12.2402344,5.94531254 12.25,5.94921875 12.2578125,5.94921875 C12.5625015,5.99609398 12.8242177,6.12109273 13.0429688,6.32421875 C13.2617198,6.52734477 13.4062496,6.78124848 13.4765625,7.0859375 C13.4765625,7.10937512 13.4804687,7.13476549 13.4882812,7.16210938 C13.4960938,7.18945326 13.5039062,7.21874984 13.5117188,7.25 Z M13.5117188,11.5859375 L13.5117188,11.9140625 C13.5117188,11.921875 13.5097656,11.9316406 13.5058594,11.9433594 C13.5019531,11.9550782 13.4960938,11.9687499 13.4882812,11.984375 C13.4335935,12.3203142 13.2792981,12.6074207 13.0253906,12.8457031 C12.7714831,13.0839856 12.4804704,13.2109374 12.1523438,13.2265625 C11.7773419,13.2421876 11.4472671,13.1484385 11.1621094,12.9453125 C10.8769517,12.7421865 10.6914067,12.4687517 10.6054688,12.125 C10.5976562,12.0937498 10.5898438,12.0585939 10.5820312,12.0195312 C10.5742187,11.9804686 10.5664063,11.9453127 10.5585938,11.9140625 L10.5585938,11.5859375 C10.5585938,11.578125 10.5625,11.5683594 10.5703125,11.5566406 C10.578125,11.5449218 10.5820312,11.5312501 10.5820312,11.515625 C10.6289065,11.1796858 10.7812487,10.8925793 11.0390625,10.6542969 C11.2968763,10.4160144 11.5898421,10.2890626 11.9179688,10.2734375 C12.2929706,10.2578124 12.6230454,10.3515615 12.9082031,10.5546875 C13.1933608,10.7578135 13.3789058,11.0312483 13.4648438,11.375 C13.4726563,11.4062502 13.4804687,11.4414061 13.4882812,11.4804688 C13.4960938,11.5195314 13.5039062,11.5546873 13.5117188,11.5859375 Z" transform="translate(-10 -5)"/>
</svg>
