<svg xmlns="http://www.w3.org/2000/svg" width="26" height="27" viewBox="0 0 26 27">
  <path fill="#6F7886" fill-opacity=".799" d="M15.5372,13.37 L15.5372,10.7828 L18.0628,10.7828 L18.0628,13.37 L15.5372,13.37 Z M16.8,4.375 C18.5390712,4.375 20.1755783,4.70312172 21.7095703,5.359375 C23.2435624,6.01562828 24.5806584,6.91386149 25.7208984,8.05410156 C26.8611385,9.19434164 27.7593717,10.5314376 28.415625,12.0654297 C29.0718783,13.5994217 29.4,15.2359288 29.4,16.975 C29.4,18.7140712 29.0718783,20.3505783 28.415625,21.8845703 C27.7593717,23.4185624 26.8611385,24.7556584 25.7208984,25.8958984 C24.5806584,27.0361385 23.2435624,27.9343717 21.7095703,28.590625 C20.1755783,29.2468783 18.5390712,29.575 16.8,29.575 C15.0609288,29.575 13.4244217,29.2468783 11.8904297,28.590625 C10.3564376,27.9343717 9.01934164,27.0361385 7.87910156,25.8958984 C6.73886149,24.7556584 5.84062828,23.4185624 5.184375,21.8845703 C4.52812172,20.3505783 4.2,18.7140712 4.2,16.975 C4.2,15.2359288 4.52812172,13.5994217 5.184375,12.0654297 C5.84062828,10.5314376 6.73886149,9.19434164 7.87910156,8.05410156 C9.01934164,6.91386149 10.3564376,6.01562828 11.8904297,5.359375 C13.4244217,4.70312172 15.0609288,4.375 16.8,4.375 Z M16.8,28.0246094 C18.3257889,28.0246094 19.7572199,27.7334013 21.0943359,27.1509766 C22.431452,26.5685518 23.5962841,25.7769581 24.5888672,24.7761719 C25.5814503,23.7753856 26.3689424,22.606452 26.9513672,21.2693359 C27.533792,19.9322199 27.825,18.5007889 27.825,16.975 C27.825,15.4492111 27.533792,14.0177801 26.9513672,12.6806641 C26.3689424,11.343548 25.5814503,10.1787159 24.5888672,9.18613281 C23.5962841,8.19354972 22.431452,7.4060576 21.0943359,6.82363281 C19.7572199,6.24120803 18.3257889,5.95 16.8,5.95 C15.2742111,5.95 13.8427801,6.24120803 12.5056641,6.82363281 C11.168548,7.4060576 10.0037159,8.19354972 9.01113281,9.18613281 C8.01854972,10.1787159 7.2310576,11.343548 6.64863281,12.6806641 C6.06620803,14.0177801 5.775,15.4492111 5.775,16.975 C5.775,18.5007889 6.06620803,19.9322199 6.64863281,21.2693359 C7.2310576,22.606452 8.01854972,23.7753856 9.01113281,24.7761719 C10.0037159,25.7769581 11.168548,26.5685518 12.5056641,27.1509766 C13.8427801,27.7334013 15.2742111,28.0246094 16.8,28.0246094 Z M15.5372,23.6572 L15.5372,15.9572 L18.0628,15.9572 L18.0628,23.6572 L15.5372,23.6572 Z" transform="translate(-4 -3.5)"/>
</svg>
