<?xml version="1.0" encoding="UTF-8"?>
<svg width="92px" height="92px" viewBox="0 0 92 92" version="1.1" xmlns="http://www.w3.org/2000/svg" xmlns:xlink="http://www.w3.org/1999/xlink">
    <!-- Generator: sketchtool 54.1 (76490) - https://sketchapp.com -->
    <title>E96C6C24-2197-4700-B388-40188D1327E5</title>
    <desc>Created with sketchtool.</desc>
    <defs>
        <linearGradient x1="72.6429581%" y1="79.0711505%" x2="31.875217%" y2="4.33066609%" id="linearGradient-1">
            <stop stop-color="#F0F0FA" offset="0%"></stop>
            <stop stop-color="#C4C4D9" offset="100%"></stop>
        </linearGradient>
    </defs>
    <g id="UI-UX-Screens" stroke="none" stroke-width="1" fill="none" fill-rule="evenodd">
        <g id="#2---Dashboard" transform="translate(-1172.000000, -365.000000)">
            <g id="Group-5" transform="translate(1035.000000, 258.000000)">
                <g id="Group" transform="translate(98.000000, 102.000000)">
                    <g id="illustrations" transform="translate(34.000000, 0.000000)">
                        <circle id="Oval" fill="#F3F3F8" cx="51" cy="51" r="45.15"></circle>
                        <g id="1246473" transform="translate(35.100000, 25.500000)" fill-rule="nonzero">
                            <path d="M9.6,7.05 C9.82068327,6.96786181 10.0409493,6.8871904 10.2666385,6.817764 C11.1769044,6.53419167 12.1096977,6.36062593 13.05,6.3 C12.1109492,6.35769237 11.1794075,6.53028032 10.2708101,6.81385266 C10.0442867,6.88474584 9.82151756,6.96688403 9.6,7.05 Z" id="Path" fill="#9BC9FF"></path>
                            <path d="M9.4559002,6.87151293 C9.67524823,6.80148135 9.89500932,6.73227362 10.1201405,6.67254068 C11.0198391,6.43360923 11.9422574,6.28819063 12.8721112,6.23958039 C13.0819582,6.22722192 13.2909791,6.21527537 13.5,6.21197977 L12.5127274,2.53943859 C12.2111756,1.36208323 11.2982582,0.437665797 10.122619,0.118403921 C8.94697978,-0.20044603 7.69037601,0.135293877 6.83198583,0.99750682 C5.97400882,1.86013179 5.6468457,3.11575775 5.97566116,4.28569795 L6.96045522,7.95 C7.75275173,7.50591712 8.58924843,7.14463632 9.4559002,6.87151293 Z" id="Path" fill="#404DDC"></path>
                            <path d="M13.8,6.20507812 C13.5503289,6.20507812 13.3006579,6.22675777 13.05,6.24492187 C13.3006579,6.22441417 13.5513158,6.20742187 13.8,6.20507812 Z" id="Path" fill="#9BC9FF"></path>
                            <path d="M9.6,7.05 C8.71440163,7.31590913 7.85961757,7.66764709 7.05,8.1 C7.86046185,7.66885032 8.71482372,7.31711226 9.6,7.05 Z" id="Path" fill="#9BC9FF"></path>
                            <path d="M21.7082562,49.7734957 C24.4326534,49.0431945 26.0519923,46.2354994 25.3269276,43.5 L15.45,46.1495326 C16.1813009,48.8850322 18.9830274,50.5075527 21.7082562,49.7734957 Z" id="Path" fill="#FF6743"></path>
                            <path d="M19.7977813,32.6715322 C22.9654907,27.0933351 25.1006754,20.9826281 26.1,14.6371991 C23.9648153,9.53512838 18.9748326,6.24066752 13.4743976,6.3008098 C13.2652366,6.3008098 13.0544157,6.31459238 12.8435947,6.32628672 C11.9081804,6.37807591 10.9802362,6.52634338 10.0747021,6.76858315 C9.85018609,6.82747245 9.63106509,6.89680309 9.41152901,6.96696909 C8.54127007,7.24596258 7.70172122,7.61349879 6.90533267,8.06373058 C1.5103081,11.1418463 -1.13781905,17.4985519 0.462843219,23.5286516 L2.67272837,31.8424874 C3.13545539,33.5778431 3.36951657,35.3662409 3.36951657,37.1629916 C3.36951657,40.7631758 2.42870725,44.2998764 0.641294085,47.4185046 C0.341662774,47.9384848 0.382747881,48.589191 0.745459586,49.0665703 C1.10858627,49.5443674 1.72154403,49.7544478 2.29881158,49.5999156 L5.75785237,48.6664571 C11.4645434,44.3454008 16.2408001,38.9037767 19.7977813,32.6715322 L19.7977813,32.6715322 Z" id="Path" fill="url(#linearGradient-1)"></path>
                            <path d="M38.560418,37.148448 C33.8708938,34.4266044 30.4485167,29.9407655 29.0451885,24.678451 L26.834739,16.3591295 C26.6657583,15.7418775 26.4540136,15.1371626 26.2011653,14.55 C25.2013977,20.8992967 23.0652665,27.0137284 19.8961529,32.5953257 C16.3375948,38.8313689 11.5592208,44.2763098 5.85,48.6 L15.363984,46.032365 L25.2275545,43.3790585 L38.202943,39.8786498 C38.8568608,39.7039637 39.3089981,39.1042637 39.2998641,38.4239074 C39.30194,37.8948341 39.0187832,37.406716 38.560418,37.148448 Z" id="Path" fill="#D1D1E3"></path>
                        </g>
                    </g>
                </g>
            </g>
        </g>
    </g>
</svg>