<?xml version="1.0" encoding="UTF-8"?>
<svg width="93px" height="81px" viewBox="0 0 93 81" version="1.1" xmlns="http://www.w3.org/2000/svg" xmlns:xlink="http://www.w3.org/1999/xlink">
    <!-- Generator: sketchtool 54.1 (76490) - https://sketchapp.com -->
    <title>B5EB47C2-EF90-41A6-906A-0FE18F151E56</title>
    <desc>Created with sketchtool.</desc>
    <defs>
        <linearGradient x1="0%" y1="76.209838%" x2="129.477796%" y2="5.18930455%" id="linearGradient-1">
            <stop stop-color="#F0F0FA" offset="0%"></stop>
            <stop stop-color="#C4C4D9" offset="100%"></stop>
        </linearGradient>
    </defs>
    <g id="UI-UX-Screens" stroke="none" stroke-width="1" fill="none" fill-rule="evenodd">
        <g id="#2---Dashboard" transform="translate(-591.000000, -659.000000)">
            <g id="Group-4" transform="translate(443.000000, 658.000000)">
                <g id="illustrations-copy-2" transform="translate(139.000000, 0.000000)">
                    <circle id="Oval" fill="#F3F3F8" cx="77.175" cy="26.175" r="24.825"></circle>
                    <g id="138287" transform="translate(9.150000, 20.700000)" fill-rule="nonzero">
                        <path d="M79.0575362,60.6 L4.64246379,60.6 C2.07806897,60.6 0,58.5222857 0,55.9583286 L0,4.64167143 C0,2.07771429 2.07806897,0 4.64246379,0 L79.0575362,0 C81.621931,0 83.7,2.07771429 83.7,4.64167143 L83.7,55.9583286 C83.7,58.5222857 81.621931,60.6 79.0575362,60.6" id="XMLID_115_" fill="url(#linearGradient-1)"></path>
                        <rect id="XMLID_114_" fill="#F3F3F8" x="0" y="7.2" width="83.7" height="11.55"></rect>
                        <path d="M21.6545455,28.8 L8.64545455,28.8 C7.84756364,28.8 7.2,28.1616 7.2,27.375 C7.2,26.5884 7.84756364,25.95 8.64545455,25.95 L21.6545455,25.95 C22.4524364,25.95 23.1,26.5884 23.1,27.375 C23.1,28.1616 22.4524364,28.8 21.6545455,28.8" id="XMLID_113_" fill="#FFFFFF"></path>
                        <path d="M40.4045455,28.8 L27.3954545,28.8 C26.5975636,28.8 25.95,28.1616 25.95,27.375 C25.95,26.5884 26.5975636,25.95 27.3954545,25.95 L40.4045455,25.95 C41.2024364,25.95 41.85,26.5884 41.85,27.375 C41.85,28.1616 41.2024364,28.8 40.4045455,28.8" id="XMLID_112_" fill="#FFFFFF"></path>
                        <path d="M10.1,36 L8.65,36 C7.8496,36 7.2,35.3616 7.2,34.575 C7.2,33.7884 7.8496,33.15 8.65,33.15 L10.1,33.15 C10.9004,33.15 11.55,33.7884 11.55,34.575 C11.55,35.3616 10.9004,36 10.1,36" id="XMLID_111_" fill="#FFFFFF"></path>
                        <path d="M18.675,36 L15.825,36 C15.0384,36 14.4,35.3616 14.4,34.575 C14.4,33.7884 15.0384,33.15 15.825,33.15 L18.675,33.15 C19.4616,33.15 20.1,33.7884 20.1,34.575 C20.1,35.3616 19.4616,36 18.675,36" id="XMLID_110_" fill="#FFFFFF"></path>
                        <path d="M26,36 L24.55,36 C23.7496,36 23.1,35.3616 23.1,34.575 C23.1,33.7884 23.7496,33.15 24.55,33.15 L26,33.15 C26.8004,33.15 27.45,33.7884 27.45,34.575 C27.45,35.3616 26.8004,36 26,36" id="XMLID_109_" fill="#FFFFFF"></path>
                        <path d="M34.575,36 L31.725,36 C30.9384,36 30.3,35.3616 30.3,34.575 C30.3,33.7884 30.9384,33.15 31.725,33.15 L34.575,33.15 C35.3616,33.15 36,33.7884 36,34.575 C36,35.3616 35.3616,36 34.575,36" id="XMLID_108_" fill="#FFFFFF"></path>
                        <path d="M40.425,36 C40.0545,36 39.684,35.8422642 39.41325,35.5841509 C39.15675,35.3116981 39,34.9532075 39,34.5660377 C39,34.1932075 39.15675,33.8203774 39.41325,33.5479245 C39.9405,33.0173585 40.89525,33.0173585 41.43675,33.5479245 C41.69325,33.8203774 41.85,34.1932075 41.85,34.5660377 C41.85,34.9388679 41.69325,35.3116981 41.43675,35.5841509 C41.166,35.8422642 40.7955,36 40.425,36" id="XMLID_107_" fill="#FFFFFF"></path>
                        <path d="M66.3,44.775 C66.3,49.538875 62.438875,53.4 57.675,53.4 C52.911125,53.4 49.05,49.538875 49.05,44.775 C49.05,40.011125 52.911125,36.15 57.675,36.15 C62.438875,36.15 66.3,40.011125 66.3,44.775" id="XMLID_106_" fill="#FF6743"></path>
                        <path d="M76.5,44.775 C76.5,49.538875 72.638875,53.4 67.875,53.4 C63.111125,53.4 59.25,49.538875 59.25,44.775 C59.25,40.011125 63.111125,36.15 67.875,36.15 C72.638875,36.15 76.5,40.011125 76.5,44.775" id="XMLID_105_" fill="#404DDC"></path>
                    </g>
                </g>
            </g>
        </g>
    </g>
</svg>