<svg xmlns="http://www.w3.org/2000/svg" width="48" height="48" viewBox="0 0 48 48">
  <g fill="none" fill-rule="evenodd">
    <path fill="#404DDC" d="M19.7519531,7.60742188 C20.0917986,7.60742188 20.3847644,7.73046752 20.6308594,7.9765625 C20.8769544,8.22265748 21,8.5156233 21,8.85546875 L21,16.484375 C21,16.8359393 20.8769544,17.1347644 20.6308594,17.3808594 C20.3847644,17.6269544 20.0917986,17.75 19.7519531,17.75 L17.625,17.75 L17.625,21.125 L6.375,21.125 L6.375,17.75 L4.24804688,17.75 C3.90820143,17.75 3.61523561,17.6269544 3.36914062,17.3808594 C3.12304564,17.1347644 3,16.8359393 3,16.484375 L3,8.85546875 C3,8.5156233 3.12304564,8.22265748 3.36914062,7.9765625 C3.61523561,7.73046752 3.90820143,7.60742188 4.24804688,7.60742188 L6.375,7.60742188 L6.375,3.125 L17.625,3.125 L17.625,7.60742188 L19.7519531,7.60742188 Z M7.5,4.23242188 L7.5,7.60742188 L16.5,7.60742188 L16.5,4.23242188 L7.5,4.23242188 Z M16.5,20 L16.5,13.7949219 L7.5,13.7949219 L7.5,20 L16.5,20 Z M19.875,16.484375 L19.875,8.85546875 C19.875,8.82031232 19.8632814,8.79101574 19.8398438,8.76757812 C19.8164061,8.74414051 19.7871096,8.73242188 19.7519531,8.73242188 L4.24804688,8.73242188 C4.21289045,8.73242188 4.18359387,8.74414051 4.16015625,8.76757812 C4.13671863,8.79101574 4.125,8.82031232 4.125,8.85546875 L4.125,16.484375 C4.125,16.5195314 4.13671863,16.548828 4.16015625,16.5722656 C4.18359387,16.5957032 4.21289045,16.6074219 4.24804688,16.6074219 L6.375,16.6074219 L6.375,12.6699219 L17.625,12.6699219 L17.625,16.625 L19.7519531,16.625 C19.7871096,16.625 19.8164061,16.6103517 19.8398438,16.5810547 C19.8632814,16.5517577 19.875,16.5195314 19.875,16.484375 Z M17.625,9.85742188 C17.7773445,9.85742188 17.9091791,9.91308538 18.0205078,10.0244141 C18.1318365,10.1357427 18.1875,10.2675774 18.1875,10.4199219 C18.1875,10.5839852 18.1318365,10.7187495 18.0205078,10.8242188 C17.9091791,10.929688 17.7773445,10.9824219 17.625,10.9824219 L17.0625,10.9824219 C16.9101555,10.9824219 16.7783209,10.929688 16.6669922,10.8242188 C16.5556635,10.7187495 16.5,10.5839852 16.5,10.4199219 C16.5,10.2675774 16.5556635,10.1357427 16.6669922,10.0244141 C16.7783209,9.91308538 16.9101555,9.85742188 17.0625,9.85742188 L17.625,9.85742188 Z" transform="translate(12 12)"/>
  </g>
</svg>
