<?xml version="1.0" encoding="UTF-8"?>
<svg width="107px" height="106px" viewBox="0 0 107 106" version="1.1" xmlns="http://www.w3.org/2000/svg" xmlns:xlink="http://www.w3.org/1999/xlink">
    <!-- Generator: sketchtool 54.1 (76490) - https://sketchapp.com -->
    <title>F8686E5A-55AB-4F4A-80F2-108187380CB4</title>
    <desc>Created with sketchtool.</desc>
    <defs>
        <linearGradient x1="16.0016293%" y1="100%" x2="104.042311%" y2="-35.4844953%" id="linearGradient-1">
            <stop stop-color="#F0F0FA" offset="0%"></stop>
            <stop stop-color="#C4C4D9" offset="100%"></stop>
        </linearGradient>
    </defs>
    <g id="UI-UX-Screens" stroke="none" stroke-width="1" fill="none" fill-rule="evenodd">
        <g id="Draft-Reports-no-draft" transform="translate(-789.000000, -266.000000)">
            <g id="illustrations" transform="translate(778.000000, 255.000000)">
                <g id="icon" transform="translate(11.294118, 11.858824)">
                    <path d="M15.4259835,80.4735937 C13.2074599,79.4972286 12.1974428,76.9012076 13.1703652,74.6751604 L42.8370162,6.77631272 C43.8096133,4.54993898 46.3964807,3.53667443 48.6150042,4.51271302 L103.162439,28.5146415 C105.380637,29.4910067 106.390654,32.0870277 105.418057,34.3130749 L75.7510807,102.211923 C74.7784836,104.438296 72.1916162,105.451561 69.9730927,104.475522 L15.4259835,80.4735937 Z" id="Fill-1" fill="#F3F3F8"></path>
                    <path d="M4.37369008,82.6352941 C1.95824762,82.6352941 0,80.6718925 0,78.2500928 L0,4.3852013 C0,1.96340157 1.95824762,0 4.37369008,0 L63.7674864,0 C66.1829289,0 68.1411765,1.96340157 68.1411765,4.3852013 L68.1411765,78.2500928 C68.1411765,80.6718925 66.1829289,82.6352941 63.7674864,82.6352941 L4.37369008,82.6352941 Z" id="Fill-4" fill="url(#linearGradient-1)" fill-rule="nonzero"></path>
                    <polygon id="Fill-7" fill="#404DDC" points="12.2352941 72.4705882 54.9647059 72.4705882 54.9647059 66.6352941 12.2352941 66.6352941"></polygon>
                    <path d="M13.9393969,52.3294118 C12.998151,52.3294118 12.2352941,53.1299313 12.2352941,54.1176471 C12.2352941,55.1053629 12.998151,55.9058824 13.9393969,55.9058824 L52.6958972,55.9058824 C53.6368188,55.9058824 54.4,55.1053629 54.4,54.1176471 C54.4,53.1299313 53.6368188,52.3294118 52.6958972,52.3294118 L13.9393969,52.3294118 Z" id="Fill-9" fill="#FF6743"></path>
                    <path d="M13.9393969,44.6117647 C12.998151,44.6117647 12.2352941,45.4122842 12.2352941,46.4 C12.2352941,47.3877158 12.998151,48.1882353 13.9393969,48.1882353 L52.6958972,48.1882353 C53.6368188,48.1882353 54.4,47.3877158 54.4,46.4 C54.4,45.4122842 53.6368188,44.6117647 52.6958972,44.6117647 L13.9393969,44.6117647 Z" id="Fill-10" fill="#FF6743"></path>
                    <path d="M13.9393969,36.5176471 C12.998151,36.5176471 12.2352941,37.3185069 12.2352941,38.3058824 C12.2352941,39.2935982 12.998151,40.0941176 13.9393969,40.0941176 L52.6958972,40.0941176 C53.6368188,40.0941176 54.4,39.2935982 54.4,38.3058824 C54.4,37.3185069 53.6368188,36.5176471 52.6958972,36.5176471 L13.9393969,36.5176471 Z" id="Fill-11" fill="#FF6743"></path>
                    <path d="M28.4235294,19.5764706 C28.4235294,21.8636742 26.5695566,23.7176471 24.2823529,23.7176471 C21.9951493,23.7176471 20.1411765,21.8636742 20.1411765,19.5764706 C20.1411765,17.289267 21.9951493,15.4352941 24.2823529,15.4352941 C26.5695566,15.4352941 28.4235294,17.289267 28.4235294,19.5764706" id="Fill-12" fill="#404DDC"></path>
                    <path d="M13.3647059,20.8 C13.3647059,19.8125365 12.5639341,19.0117647 11.5764706,19.0117647 C10.5890071,19.0117647 9.78823529,19.8125365 9.78823529,20.8 C9.78823529,21.7874635 10.5890071,22.5882353 11.5764706,22.5882353 C12.5639341,22.5882353 13.3647059,21.7874635 13.3647059,20.8" id="Fill-13" fill="#FFFFFF"></path>
                </g>
            </g>
        </g>
    </g>
</svg>