<svg xmlns="http://www.w3.org/2000/svg" width="15" height="15" viewBox="0 0 15 15">
  <path fill="#FFF" fill-rule="evenodd" d="M4.0453125,10.15 L5.7046875,11.7953125 C5.78906292,11.889063 5.83125,11.9968744 5.83125,12.11875 C5.83125,12.2406256 5.78906292,12.348437 5.7046875,12.4421875 C5.65781227,12.4796877 5.60625028,12.5101561 5.55,12.5335938 C5.49374972,12.5570314 5.43750028,12.56875 5.38125,12.56875 C5.32499972,12.56875 5.26875028,12.5570314 5.2125,12.5335938 C5.15624972,12.5101561 5.10468773,12.4796877 5.0578125,12.4421875 L2.4,9.7140625 L5.0578125,6.9859375 C5.15156297,6.89218703 5.25937439,6.8453125 5.38125,6.8453125 C5.50312561,6.8453125 5.61093703,6.89218703 5.7046875,6.9859375 C5.78906292,7.07031292 5.83125,7.17578062 5.83125,7.30234375 C5.83125,7.42890688 5.78906292,7.53437458 5.7046875,7.61875 L4.0734375,9.25 L11.8359375,9.25 C11.9671882,9.25 12.0749996,9.29218708 12.159375,9.3765625 C12.2437504,9.46093792 12.2859375,9.56874934 12.2859375,9.7 C12.2859375,9.82187561 12.2437504,9.9273433 12.159375,10.0164063 C12.0749996,10.1054692 11.9671882,10.15 11.8359375,10.15 L4.0453125,10.15 Z M15.9,2.5 C16.1437512,2.5 16.3546866,2.58671788 16.5328125,2.76015625 C16.7109384,2.93359462 16.8,3.14687373 16.8,3.4 L16.8,16 C16.8,16.2531263 16.7109384,16.4664054 16.5328125,16.6398438 C16.3546866,16.8132821 16.1437512,16.9 15.9,16.9 L8.25,16.9 C7.99687373,16.9 7.78359462,16.8132821 7.61015625,16.6398438 C7.43671788,16.4664054 7.35,16.2531263 7.35,16 L7.35,11.9359375 L8.25,11.9359375 L8.25,15.4515625 C8.25,15.6015632 8.30390571,15.7304682 8.41171875,15.8382812 C8.51953179,15.9460943 8.64843675,16 8.7984375,16 L15.3515625,16 C15.5015632,16 15.6281245,15.9460943 15.73125,15.8382812 C15.8343755,15.7304682 15.8859375,15.6015632 15.8859375,15.4515625 L15.871875,3.9484375 C15.871875,3.79843675 15.820313,3.66953179 15.7171875,3.56171875 C15.614062,3.45390571 15.4875007,3.4 15.3375,3.4 L8.7984375,3.4 C8.64843675,3.4 8.51953179,3.45390571 8.41171875,3.56171875 C8.30390571,3.66953179 8.25,3.79843675 8.25,3.9484375 L8.25,7.45 L7.35,7.45 L7.35,3.4 C7.35,3.14687373 7.43671788,2.93359462 7.61015625,2.76015625 C7.78359462,2.58671788 7.99687373,2.5 8.25,2.5 L15.9,2.5 Z" transform="translate(-2 -2)"/>
</svg>
