<?xml version="1.0" encoding="UTF-8"?>
<svg width="30px" height="30px" viewBox="0 0 145 145" version="1.1" xmlns="http://www.w3.org/2000/svg" xmlns:xlink="http://www.w3.org/1999/xlink">
    <!-- Generator: sketchtool 54.1 (76490) - https://sketchapp.com -->
    <title>AF79D616-219C-4FFE-8159-4A0CE900EBE0</title>
    <desc>Created with sketchtool.</desc>
    <defs>
        <linearGradient x1="50%" y1="100%" x2="50%" y2="-14.61319%" id="linearGradient-1">
            <stop stop-color="#FFD4AC" offset="0%"></stop>
            <stop stop-color="#FF6743" offset="100%"></stop>
        </linearGradient>
    </defs>
    <g id="UI-UX-Screens" stroke="none" stroke-width="1" fill="none" fill-rule="evenodd">
        <g id="My-Tariff--Unit" transform="translate(-250.000000, -270.000000)" fill-rule="nonzero">
            <g id="tariff-line-copy-2" transform="translate(283.000000, 319.000000)">
                <g id="UX/-Tariff-MINI" transform="translate(24.000000, 8.587500)">
                    <g id="Group" transform="translate(-57.000000, -57.000000)">
                        <ellipse id="Mask" fill="url(#linearGradient-1)" cx="72.5" cy="72.0068027" rx="72.5" ry="72.0068027"></ellipse>
                        <ellipse id="Mask" fill="#FFFFFF" opacity="0.0863095238" cx="72.5" cy="72.1428571" rx="61.5" ry="62.1428571"></ellipse>
                        <ellipse id="Mask" fill="#FFD4AC" opacity="0.331728981" cx="72" cy="72.3333333" rx="49" ry="48.3333333"></ellipse>
                    </g>
                    <path d="M55.3666345,-28.9860024 C55.0080745,-29.2959103 54.5349745,-29.4369266 54.0568945,-29.381176 L2.59689448,-22.8042416 C1.76855448,-22.6976595 1.14937448,-22.0024164 1.14937448,-21.177635 L1.14937448,-11.3114136 L1.14937448,-4.40489462 L1.14937448,38.2853289 C-1.73404552,35.0222775 -6.23098552,32.9152317 -11.2989655,32.9152317 C-20.0089855,32.9152317 -27.0689655,39.1150295 -27.0689655,46.7610641 C-27.0689655,54.4070988 -20.0089855,60.6068966 -11.2989655,60.6068966 C-2.58894552,60.6068966 4.47103448,54.4070988 4.47103448,46.7610641 C4.47103448,46.2166756 4.42621448,45.6821255 4.35649448,45.1524945 C4.42289448,44.9754043 4.47103448,44.7901154 4.47103448,44.5900691 L4.47103448,-2.96521663 L52.6110345,-9.11910213 L52.6110345,21.8864457 C49.7259545,18.6250339 45.2290145,16.5179881 40.1610345,16.5179881 C31.4510145,16.5179881 24.3910345,22.7177859 24.3910345,30.3638206 C24.3910345,38.0098552 31.4510145,44.209653 40.1610345,44.209653 C48.8710545,44.209653 55.9310345,38.0098552 55.9310345,30.3638206 C55.9310345,30.2129659 55.9111145,30.0670305 55.9061345,29.9178156 C55.9094545,29.873543 55.9310345,29.8358293 55.9310345,29.7915568 L55.9310345,-10.9851084 L55.9310345,-17.8899877 L55.9310345,-27.7545694 C55.9310345,-28.22681 55.7251945,-28.6760945 55.3666345,-28.9860024 Z" id="Path" fill="#FFFFFF"></path>
                </g>
            </g>
        </g>
    </g>
</svg>