<?xml version="1.0" encoding="UTF-8"?>
<svg width="36px" height="11px" viewBox="0 0 36 11" version="1.1" xmlns="http://www.w3.org/2000/svg" xmlns:xlink="http://www.w3.org/1999/xlink">
    <!-- Generator: sketchtool 54.1 (76490) - https://sketchapp.com -->
    <title>E094E02E-B1CC-441E-A665-7D83A3A41E74@3x</title>
    <desc>Created with sketchtool.</desc>
    <g id="UI-UX-Screens" stroke="none" stroke-width="1" fill="none" fill-rule="evenodd">
        <g id="Make-a-Payment" transform="translate(-801.000000, -554.000000)">
            <g id="Visa" transform="translate(801.000000, 554.000000)">
                <polyline id="Fill-2" fill="#004F8B" points="12.4615385 10.3125 14.3259435 0 17.3076923 0 15.4420299 10.3125 12.4615385 10.3125"></polyline>
                <path d="M26.3076923,0.447479771 C25.713468,0.23149729 24.7823972,0 23.6194545,0 C20.6559217,0 18.5680211,1.445327 18.5503146,3.51675822 C18.533662,5.0480291 20.0408289,5.90236434 21.1784765,6.41210749 C22.3458458,6.93430332 22.7385523,7.26746344 22.7328609,7.73392844 C22.7254832,8.44822211 21.8005254,8.77464553 20.9383837,8.77464553 C19.73792,8.77464553 19.1002724,8.61316903 18.1152387,8.21529582 L17.7286451,8.04585777 L17.3076923,10.4314639 C18.0083668,10.7288991 19.303898,10.9867308 20.6487547,11 C23.8017901,11 25.8483753,9.57120852 25.8717733,7.3591233 C25.8831561,6.14692673 25.0838306,5.22420385 23.3536451,4.46377403 C22.3051628,3.97077054 21.6630886,3.64169327 21.669834,3.14256551 C21.669834,2.69957687 22.2132572,2.22596689 23.3875827,2.22596689 C24.3684006,2.21126865 25.0787716,2.41826887 25.6323129,2.63425135 L25.9010734,2.75714498 L26.3076923,0.447479771" id="Fill-3" fill="#004F8B"></path>
                <path d="M33.6592697,0 L31.4246313,0 C30.7323914,0 30.2143293,0.183636429 29.9102802,0.855718085 L25.6153846,10.3125 L28.6522165,10.3125 C28.6522165,10.3125 29.148735,9.04088197 29.2611275,8.76177041 C29.5930205,8.76177041 32.5428651,8.76611918 32.9645908,8.76611918 C33.0511716,9.12726423 33.3166048,10.3125 33.3166048,10.3125 L36,10.3125 L33.6592697,0 M30.0934007,6.65103867 C30.3324125,6.05644408 31.2455757,3.76642467 31.2455757,3.76642467 C31.2283002,3.79390095 31.4829616,3.16906268 31.6288889,2.78162737 L31.824407,3.67134488 C31.824407,3.67134488 32.3782396,6.13452415 32.4938839,6.65103867 L30.0934007,6.65103867" id="Fill-4" fill="#004F8B"></path>
                <path d="M10.0356065,0 L7.15342778,7.04364328 L6.84640365,5.61212107 C6.30993898,3.96196278 4.6382712,2.1742913 2.76923077,1.27936733 L5.40459019,10.3125 L8.51931276,10.3091364 L13.1538462,0 L10.0356065,0" id="Fill-5" fill="#004F8B"></path>
                <path d="M4.63194205,0 L0.0364530595,0 L0,0.210346528 C3.5754042,1.04727779 5.94104752,3.06978096 6.92307692,5.5 L5.92382245,0.853588534 C5.75117115,0.213251866 5.25084289,0.022274264 4.63194205,0" id="Fill-6" fill="#ED9F2D"></path>
            </g>
        </g>
    </g>
</svg>