<?xml version="1.0" encoding="UTF-8"?>
<svg width="16px" height="17px" viewBox="0 0 16 17" version="1.1" xmlns="http://www.w3.org/2000/svg" xmlns:xlink="http://www.w3.org/1999/xlink">
    <!-- Generator: sketchtool 54.1 (76490) - https://sketchapp.com -->
    <title>EB367F8E-A119-4E9D-9081-F1295A61A8F3</title>
    <desc>Created with sketchtool.</desc>
    <g id="Staff-Admin" stroke="none" stroke-width="1" fill="none" fill-rule="evenodd">
        <g id="User-Management-Bulk-Actions" transform="translate(-1275.000000, -238.000000)" fill="#3E4254" fill-rule="nonzero">
            <g id="Page-dividor" transform="translate(283.000000, 211.000000)">
                <g id="icon/user" transform="translate(988.000000, 23.500000)">
                    <path d="M11.578125,17.03125 L8.8359375,14.2890625 C8.71874941,14.1718744 8.66015625,14.0312508 8.66015625,13.8671875 C8.66015625,13.7031242 8.71874941,13.5595709 8.8359375,13.4365234 C8.95312559,13.3134759 9.09374918,13.2519531 9.2578125,13.2519531 C9.42187582,13.2519531 9.56835873,13.3105463 9.69726562,13.4277344 L11.4023438,15.1328125 L11.4023438,4.99023438 C11.4023438,4.81445225 11.4609369,4.66796934 11.578125,4.55078125 C11.6953131,4.43359316 11.8359367,4.375 12,4.375 C12.1640633,4.375 12.3076166,4.43359316 12.4306641,4.55078125 C12.5537116,4.66796934 12.6152344,4.81445225 12.6152344,4.99023438 L12.6152344,15.1328125 L14.3203125,13.4453125 C14.4375006,13.3164056 14.5781242,13.2519531 14.7421875,13.2519531 C14.9062508,13.2519531 15.0498041,13.3134759 15.1728516,13.4365234 C15.2958991,13.5595709 15.3574219,13.7031242 15.3574219,13.8671875 C15.3574219,14.0312508 15.2929694,14.1718744 15.1640625,14.2890625 L12.421875,17.03125 C12.3046869,17.1484381 12.1640633,17.2070312 12,17.2070312 C11.8359367,17.2070312 11.6953131,17.1484381 11.578125,17.03125 Z M19.6816406,14.6933594 C19.7988287,14.8105475 19.8574219,14.9511711 19.8574219,15.1152344 L19.8574219,19.0351562 C19.8574219,19.3281265 19.7519542,19.5830067 19.5410156,19.7998047 C19.3300771,20.0166026 19.0722671,20.125 18.7675781,20.125 L5.19726562,20.125 C4.8925766,20.125 4.63476668,20.0195323 4.42382812,19.8085938 C4.21288957,19.5976552 4.10742188,19.3398453 4.10742188,19.0351562 L4.10742188,15.1152344 C4.10742188,14.9511711 4.16601504,14.8076178 4.28320312,14.6845703 C4.40039121,14.5615228 4.54394446,14.5 4.71386719,14.5 C4.88378991,14.5 5.02734316,14.5615228 5.14453125,14.6845703 C5.26171934,14.8076178 5.3203125,14.9511711 5.3203125,15.1152344 L5.3203125,18.5429688 C5.3203125,18.648438 5.3554684,18.7363278 5.42578125,18.8066406 C5.4960941,18.8769535 5.58398385,18.9121094 5.68945312,18.9121094 L18.2753906,18.9121094 C18.3808599,18.9121094 18.4687496,18.8769535 18.5390625,18.8066406 C18.6093754,18.7363278 18.6445312,18.648438 18.6445312,18.5429688 L18.6445312,15.1152344 C18.6445312,14.9511711 18.7031244,14.8076178 18.8203125,14.6845703 C18.9375006,14.5615228 19.0810538,14.5 19.2509766,14.5 C19.4208993,14.5 19.5644525,14.5644525 19.6816406,14.6933594 Z" id="download---anticon"></path>
                </g>
            </g>
        </g>
    </g>
</svg>