<svg width="32" height="32" xmlns="http://www.w3.org/2000/svg">
  <path d="M22.501 10.495a.48.48 0 0 1 .35.148.48.48 0 0 1 .149.351.48.48 0 0 1-.148.351.48.48 0 0 1-.35.148h-.687l-1.169 11.54a1.01 1.01 0 0 1-.335.686c-.202.187-.439.281-.71.281h-6.203c-.27 0-.507-.094-.71-.28a1.075 1.075 0 0 1-.35-.687l-1.153-11.54h-.686a.48.48 0 0 1-.35-.148.48.48 0 0 1-.149-.35.48.48 0 0 1 .148-.352.48.48 0 0 1 .35-.148h3.508V9.138c0-.322.114-.592.343-.81.229-.219.499-.328.81-.328h2.682c.311 0 .581.11.81.327.229.219.343.49.343.811v1.357h3.507zm-7.497-1.357v1.357h2.992V9.138a.15.15 0 0 0-.046-.109.15.15 0 0 0-.11-.047h-2.68a.15.15 0 0 0-.11.047.15.15 0 0 0-.046.11zm4.66 13.802l1.138-11.447h-8.604l1.138 11.447c0 .01.008.023.023.039.016.015.029.023.04.023h6.203c.01 0 .023-.005.039-.016a.052.052 0 0 0 .023-.046z" stroke="#5D5D5D" stroke-width=".3" fill="#5D5D5D" fill-rule="evenodd"/>
</svg>