<?xml version="1.0" encoding="UTF-8"?>
<svg width="19px" height="19px" viewBox="0 0 19 19" version="1.1" xmlns="http://www.w3.org/2000/svg" xmlns:xlink="http://www.w3.org/1999/xlink">
    <!-- Generator: sketchtool 54.1 (76490) - https://sketchapp.com -->
    <title>C3CDE571-C9A2-496D-8806-DB8D59FA1DBB</title>
    <desc>Created with sketchtool.</desc>
    <g id="UI-UX-Screens" stroke="none" stroke-width="1" fill="none" fill-rule="evenodd" fill-opacity="0.798545063">
        <g id="#3-Account-Edit-Profile" transform="translate(-310.000000, -736.000000)" fill="#6F7886" fill-rule="nonzero">
            <g id="contact-table" transform="translate(284.000000, 713.000000)">
                <g id="Page-dividor-Copy-3">
                    <g id="Icon-2" transform="translate(17.000000, 13.000000)">
                        <g id="icon/user-copy" transform="translate(7.000000, 7.000000)">
                            <path d="M20.8417969,20.1582031 C20.9472662,20.2636724 21,20.395507 21,20.5537109 C21,20.7119149 20.9472662,20.8437495 20.8417969,20.9492188 C20.7246088,21.0664068 20.5898445,21.125 20.4375,21.125 C20.2851555,21.125 20.1503912,21.0664068 20.0332031,20.9492188 L14.5839844,15.4648438 C13.9628875,16.0039089 13.2597696,16.4257797 12.4746094,16.7304688 C11.6894492,17.0351578 10.8574263,17.1875 9.97851562,17.1875 C9.00585451,17.1875 8.09180115,17.0029315 7.23632812,16.6337891 C6.3808551,16.2646466 5.63379226,15.763675 4.99511719,15.1308594 C4.35644212,14.4980437 3.85547057,13.7539105 3.4921875,12.8984375 C3.12890443,12.0429645 2.94726562,11.1289111 2.94726562,10.15625 C2.94726562,9.18358889 3.12890443,8.26953553 3.4921875,7.4140625 C3.85547057,6.55858947 4.35644212,5.81445629 4.99511719,5.18164062 C5.63379226,4.54882496 6.3808551,4.04785341 7.23632812,3.67871094 C8.09180115,3.30956847 9.00585451,3.125 9.97851562,3.125 C10.9394579,3.125 11.847652,3.30956847 12.703125,3.67871094 C13.558598,4.04785341 14.3056609,4.54882496 14.9443359,5.18164062 C15.583011,5.81445629 16.0869122,6.55858947 16.4560547,7.4140625 C16.8251972,8.26953553 17.0097656,9.18358889 17.0097656,10.15625 C17.0097656,11.011723 16.8632827,11.8232383 16.5703125,12.5908203 C16.2773423,13.3584023 15.8789088,14.046872 15.375,14.65625 L20.8417969,20.1582031 Z M9.97851562,16.0800781 C10.7871134,16.0800781 11.5517542,15.9248062 12.2724609,15.6142578 C12.9931677,15.3037094 13.6201145,14.8789089 14.1533203,14.3398438 C14.6865261,13.8007786 15.1083969,13.1738317 15.4189453,12.4589844 C15.7294937,11.7441371 15.8847656,10.9765666 15.8847656,10.15625 C15.8847656,9.3359334 15.7294937,8.56836295 15.4189453,7.85351562 C15.1083969,7.1386683 14.6865261,6.51172145 14.1533203,5.97265625 C13.6201145,5.43359105 12.9931677,5.00879062 12.2724609,4.69824219 C11.5517542,4.38769376 10.7871134,4.23242188 9.97851562,4.23242188 C9.15819902,4.23242188 8.38769892,4.38769376 7.66699219,4.69824219 C6.94628546,5.00879062 6.3193386,5.43359105 5.78613281,5.97265625 C5.25292702,6.51172145 4.83105624,7.1386683 4.52050781,7.85351562 C4.20995938,8.56836295 4.0546875,9.3359334 4.0546875,10.15625 C4.0546875,10.9765666 4.20995938,11.7441371 4.52050781,12.4589844 C4.83105624,13.1738317 5.25292702,13.8007786 5.78613281,14.3398438 C6.3193386,14.8789089 6.94628546,15.3037094 7.66699219,15.6142578 C8.38769892,15.9248062 9.15819902,16.0800781 9.97851562,16.0800781 Z" id="Magnifier---simple-line-icons"></path>
                        </g>
                    </g>
                </g>
            </g>
        </g>
    </g>
</svg>